<svg xmlns="http://www.w3.org/2000/svg" width="1012.5" viewBox="0 0 1012.5 487.5" height="487.5" version="1.0"><defs><clipPath id="a"><path d="M 290.554688 24.363281 L 639 24.363281 L 639 438.890625 L 290.554688 438.890625 Z M 290.554688 24.363281"/></clipPath></defs><g clip-path="url(#a)"><path fill="#FFF" d="M 499.449219 317.847656 C 499.894531 317.757812 500.160156 317.402344 500.160156 316.957031 C 500.160156 316.511719 499.894531 316.152344 499.449219 316.066406 C 491.976562 314.285156 490.730469 313.035156 488.949219 305.554688 C 488.859375 305.109375 488.503906 304.84375 488.058594 304.84375 C 487.613281 304.84375 487.257812 305.109375 487.171875 305.554688 C 485.390625 313.035156 484.144531 314.285156 476.671875 316.066406 C 476.226562 316.152344 475.960938 316.511719 475.960938 316.957031 C 475.960938 317.402344 476.226562 317.757812 476.671875 317.847656 C 484.144531 319.628906 485.390625 320.875 487.171875 328.355469 C 487.257812 328.800781 487.613281 329.070312 488.058594 329.070312 C 488.503906 329.070312 488.859375 328.800781 488.949219 328.355469 C 490.730469 320.785156 492.0625 319.539062 499.449219 317.847656 Z M 488.148438 324.617188 C 486.726562 320.160156 484.945312 318.292969 480.496094 316.957031 C 484.945312 315.53125 486.8125 313.75 488.148438 309.296875 C 489.574219 313.75 491.351562 315.621094 495.800781 316.957031 C 491.351562 318.378906 489.574219 320.160156 488.148438 324.617188 Z M 520.625 423.125 C 520.625 423.570312 520.355469 423.929688 519.910156 424.015625 C 516.175781 424.90625 513.59375 425.710938 511.726562 426.867188 C 512.261719 428.113281 513.0625 429.449219 514.039062 431.054688 C 514.21875 431.410156 514.21875 431.855469 513.949219 432.121094 C 513.773438 432.300781 513.59375 432.390625 513.328125 432.390625 C 513.148438 432.390625 512.972656 432.390625 512.882812 432.300781 C 511.28125 431.320312 509.945312 430.519531 508.703125 429.984375 C 507.542969 431.855469 506.742188 434.4375 505.855469 438.179688 C 505.765625 438.625 505.410156 438.890625 504.964844 438.890625 C 504.519531 438.890625 504.164062 438.625 504.074219 438.179688 C 503.183594 434.4375 502.382812 431.855469 501.226562 429.984375 C 499.980469 430.519531 498.648438 431.320312 497.046875 432.300781 C 496.691406 432.480469 496.246094 432.480469 495.976562 432.210938 C 495.710938 431.945312 495.621094 431.5 495.890625 431.144531 C 496.867188 429.539062 497.667969 428.203125 498.203125 426.957031 C 496.335938 425.796875 493.753906 424.996094 490.015625 424.105469 C 489.574219 424.015625 489.304688 423.660156 489.304688 423.214844 C 489.304688 422.769531 489.574219 422.414062 490.015625 422.324219 C 493.753906 421.433594 496.335938 420.632812 498.203125 419.472656 C 497.667969 418.226562 496.867188 416.890625 495.890625 415.289062 C 495.710938 414.933594 495.710938 414.488281 495.976562 414.21875 C 496.246094 413.953125 496.691406 413.863281 497.046875 414.128906 C 498.648438 415.109375 499.980469 415.910156 501.226562 416.445312 C 502.382812 414.574219 503.183594 411.992188 504.074219 408.25 C 504.164062 407.804688 504.519531 407.539062 504.964844 407.539062 C 505.410156 407.539062 505.765625 407.804688 505.855469 408.25 C 506.742188 411.992188 507.542969 414.574219 508.703125 416.445312 C 509.945312 415.910156 511.28125 415.109375 512.882812 414.128906 C 513.238281 413.953125 513.683594 413.953125 513.949219 414.21875 C 514.21875 414.488281 514.304688 414.933594 514.039062 415.289062 C 513.0625 416.890625 512.261719 418.226562 511.726562 419.472656 C 513.59375 420.632812 516.175781 421.433594 519.910156 422.324219 C 520.355469 422.414062 520.625 422.769531 520.625 423.125 Z M 486.546875 187.003906 C 486.546875 187.449219 486.8125 187.804688 487.257812 187.894531 C 492.953125 189.230469 493.753906 190.121094 495.089844 195.730469 C 495.175781 196.175781 495.535156 196.445312 495.976562 196.445312 C 496.421875 196.445312 496.777344 196.175781 496.867188 195.730469 C 498.203125 190.03125 499.09375 189.230469 504.699219 187.894531 C 505.140625 187.804688 505.410156 187.449219 505.410156 187.003906 C 505.410156 186.558594 505.140625 186.203125 504.699219 186.113281 C 499.003906 184.777344 498.203125 183.886719 496.867188 178.273438 C 496.777344 177.828125 496.421875 177.5625 495.976562 177.5625 C 495.535156 177.5625 495.175781 177.828125 495.089844 178.273438 C 493.753906 183.976562 492.863281 184.777344 487.257812 186.113281 C 486.8125 186.203125 486.546875 186.558594 486.546875 187.003906 Z M 495.976562 181.746094 C 496.957031 184.597656 498.292969 185.933594 501.226562 187.003906 C 498.378906 187.984375 497.046875 189.320312 495.976562 192.257812 C 495 189.40625 493.664062 188.070312 490.730469 187.003906 C 493.574219 185.933594 495 184.597656 495.976562 181.746094 Z M 321.773438 33.445312 C 326.488281 34.605469 327.289062 35.316406 328.355469 40.039062 C 328.445312 40.484375 328.800781 40.75 329.246094 40.75 C 329.691406 40.75 330.046875 40.484375 330.136719 40.039062 C 331.292969 35.316406 332.003906 34.515625 336.71875 33.445312 C 337.164062 33.359375 337.433594 33 337.433594 32.554688 C 337.433594 32.109375 337.164062 31.753906 336.71875 31.664062 C 332.003906 30.507812 331.203125 29.796875 330.136719 25.074219 C 330.046875 24.628906 329.691406 24.363281 329.246094 24.363281 C 328.800781 24.363281 328.445312 24.628906 328.355469 25.074219 C 327.289062 29.796875 326.488281 30.597656 321.773438 31.664062 C 321.328125 31.753906 321.0625 32.109375 321.0625 32.554688 C 321.0625 33 321.328125 33.359375 321.773438 33.445312 Z M 329.246094 28.460938 C 330.046875 30.597656 331.203125 31.753906 333.339844 32.554688 C 331.203125 33.359375 330.046875 34.515625 329.246094 36.652344 C 328.445312 34.515625 327.289062 33.359375 325.152344 32.554688 C 327.289062 31.753906 328.445312 30.597656 329.246094 28.460938 Z M 298.195312 59.011719 C 298.285156 59.457031 298.640625 59.722656 299.085938 59.722656 C 299.53125 59.722656 299.886719 59.457031 299.976562 59.011719 C 301.132812 54.289062 301.84375 53.488281 306.558594 52.417969 C 307.003906 52.328125 307.269531 51.972656 307.269531 51.527344 C 307.269531 51.082031 307.003906 50.726562 306.558594 50.636719 C 301.84375 49.480469 301.042969 48.765625 299.976562 44.046875 C 299.886719 43.601562 299.53125 43.332031 299.085938 43.332031 C 298.640625 43.332031 298.285156 43.601562 298.195312 44.046875 C 297.039062 48.765625 296.328125 49.570312 291.613281 50.636719 C 291.167969 50.726562 290.898438 51.082031 290.898438 51.527344 C 290.898438 51.972656 291.167969 52.328125 291.613281 52.417969 C 296.328125 53.488281 297.128906 54.199219 298.195312 59.011719 Z M 299.085938 47.429688 C 299.886719 49.570312 301.042969 50.726562 303.179688 51.527344 C 301.042969 52.328125 299.886719 53.488281 299.085938 55.625 C 298.285156 53.488281 297.128906 52.328125 294.992188 51.527344 C 297.128906 50.636719 298.285156 49.570312 299.085938 47.429688 Z M 566.976562 88.582031 C 572.9375 90.007812 573.917969 90.898438 575.25 96.863281 C 575.339844 97.308594 575.695312 97.578125 576.140625 97.578125 C 576.585938 97.578125 576.941406 97.308594 577.03125 96.863281 C 578.453125 90.898438 579.34375 89.917969 585.304688 88.582031 C 585.75 88.492188 586.015625 88.136719 586.015625 87.691406 C 586.015625 87.246094 585.75 86.890625 585.304688 86.800781 C 579.34375 85.375 578.367188 84.484375 577.03125 78.515625 C 576.941406 78.070312 576.585938 77.804688 576.140625 77.804688 C 575.695312 77.804688 575.339844 78.070312 575.25 78.515625 C 573.828125 84.484375 572.9375 85.464844 566.886719 86.800781 C 566.445312 86.890625 566.175781 87.246094 566.175781 87.691406 C 566.175781 88.136719 566.53125 88.492188 566.976562 88.582031 Z M 576.140625 81.988281 C 577.210938 85.109375 578.632812 86.53125 581.835938 87.691406 C 578.722656 88.757812 577.296875 90.183594 576.140625 93.390625 C 575.074219 90.273438 573.648438 88.847656 570.445312 87.691406 C 573.648438 86.621094 575.074219 85.195312 576.140625 81.988281 Z M 614.042969 197.425781 C 613.597656 197.425781 613.242188 197.691406 613.152344 198.136719 C 611.730469 204.105469 610.839844 205.085938 604.878906 206.421875 C 604.433594 206.507812 604.167969 206.867188 604.167969 207.3125 C 604.167969 207.757812 604.433594 208.113281 604.878906 208.203125 C 610.839844 209.625 611.820312 210.515625 613.152344 216.484375 C 613.242188 216.929688 613.597656 217.199219 614.042969 217.199219 C 614.488281 217.199219 614.84375 216.929688 614.933594 216.484375 C 616.355469 210.515625 617.246094 209.539062 623.207031 208.203125 C 623.652344 208.113281 623.917969 207.757812 623.917969 207.3125 C 623.917969 206.867188 623.652344 206.507812 623.207031 206.421875 C 617.246094 204.996094 616.265625 204.105469 614.933594 198.136719 C 614.753906 197.691406 614.398438 197.425781 614.042969 197.425781 Z M 619.648438 207.3125 C 616.535156 208.378906 615.109375 209.804688 613.953125 213.011719 C 612.886719 209.894531 611.460938 208.46875 608.261719 207.3125 C 611.375 206.242188 612.796875 204.816406 613.953125 201.609375 C 615.109375 204.816406 616.535156 206.242188 619.648438 207.3125 Z M 526.140625 281.683594 C 526.140625 281.238281 525.871094 280.882812 525.429688 280.792969 C 520.710938 279.636719 519.910156 278.921875 518.84375 274.203125 C 518.753906 273.757812 518.398438 273.488281 517.953125 273.488281 C 517.507812 273.488281 517.152344 273.757812 517.066406 274.203125 C 515.90625 278.921875 515.195312 279.722656 510.480469 280.792969 C 510.035156 280.882812 509.769531 281.238281 509.769531 281.683594 C 509.769531 282.128906 510.035156 282.484375 510.480469 282.574219 C 515.195312 283.734375 515.996094 284.445312 517.066406 289.164062 C 517.152344 289.609375 517.507812 289.878906 517.953125 289.878906 C 518.398438 289.878906 518.753906 289.609375 518.84375 289.164062 C 520 284.445312 520.710938 283.644531 525.429688 282.574219 C 525.871094 282.484375 526.140625 282.128906 526.140625 281.683594 Z M 517.953125 285.78125 C 517.152344 283.644531 515.996094 282.484375 513.863281 281.683594 C 515.996094 280.882812 517.152344 279.722656 517.953125 277.585938 C 518.753906 279.722656 519.910156 280.882812 522.046875 281.683594 C 519.910156 282.484375 518.753906 283.644531 517.953125 285.78125 Z M 626.5 372.269531 C 626.5 372.714844 626.230469 373.070312 625.789062 373.160156 C 622.050781 374.050781 619.46875 374.851562 617.601562 376.007812 C 618.136719 377.253906 618.9375 378.589844 619.914062 380.195312 C 620.09375 380.550781 620.09375 380.996094 619.824219 381.265625 C 619.648438 381.441406 619.46875 381.53125 619.203125 381.53125 C 619.023438 381.53125 618.847656 381.53125 618.757812 381.441406 C 617.15625 380.460938 615.824219 379.660156 614.578125 379.125 C 613.421875 380.996094 612.621094 383.578125 611.730469 387.320312 C 611.640625 387.765625 611.285156 388.03125 610.839844 388.03125 C 610.394531 388.03125 610.039062 387.765625 609.949219 387.320312 C 609.0625 383.578125 608.261719 380.996094 607.101562 379.125 C 605.859375 379.660156 604.523438 380.460938 602.921875 381.441406 C 602.566406 381.621094 602.121094 381.621094 601.855469 381.351562 C 601.585938 381.085938 601.496094 380.640625 601.765625 380.285156 C 602.742188 378.679688 603.542969 377.34375 604.078125 376.097656 C 602.210938 374.941406 599.628906 374.136719 595.894531 373.246094 C 595.449219 373.160156 595.179688 372.800781 595.179688 372.355469 C 595.179688 371.910156 595.449219 371.554688 595.894531 371.464844 C 599.628906 370.574219 602.210938 369.773438 604.078125 368.617188 C 603.542969 367.367188 602.742188 366.03125 601.765625 364.429688 C 601.585938 364.074219 601.585938 363.628906 601.855469 363.359375 C 602.121094 363.09375 602.566406 363.003906 602.921875 363.273438 C 604.523438 364.25 605.859375 365.054688 607.101562 365.585938 C 608.261719 363.71875 609.0625 361.132812 609.949219 357.394531 C 610.039062 356.949219 610.394531 356.679688 610.839844 356.679688 C 611.285156 356.679688 611.640625 356.949219 611.730469 357.394531 C 612.621094 361.132812 613.421875 363.71875 614.578125 365.585938 C 615.824219 365.054688 617.15625 364.25 618.757812 363.273438 C 619.113281 363.09375 619.558594 363.09375 619.824219 363.359375 C 620.09375 363.628906 620.183594 364.074219 619.914062 364.429688 C 618.9375 366.03125 618.136719 367.367188 617.601562 368.617188 C 619.46875 369.773438 622.050781 370.574219 625.789062 371.464844 C 626.144531 371.554688 626.5 371.910156 626.5 372.269531 Z M 460.566406 150.21875 C 460.566406 150.664062 460.300781 151.019531 459.855469 151.109375 C 456.121094 152 453.539062 152.800781 451.671875 153.957031 C 452.203125 155.207031 453.003906 156.542969 453.984375 158.144531 C 454.160156 158.5 454.160156 158.945312 453.894531 159.214844 C 453.71875 159.390625 453.539062 159.480469 453.273438 159.480469 C 453.09375 159.480469 452.917969 159.480469 452.828125 159.390625 C 451.226562 158.410156 449.890625 157.609375 448.644531 157.074219 C 447.488281 158.945312 446.6875 161.527344 445.796875 165.269531 C 445.710938 165.714844 445.355469 165.984375 444.910156 165.984375 C 444.464844 165.984375 444.109375 165.714844 444.019531 165.269531 C 443.128906 161.527344 442.328125 158.945312 441.171875 157.074219 C 439.925781 157.609375 438.59375 158.410156 436.992188 159.390625 C 436.632812 159.570312 436.191406 159.570312 435.921875 159.300781 C 435.65625 159.035156 435.566406 158.589844 435.832031 158.234375 C 436.8125 156.628906 437.613281 155.292969 438.148438 154.046875 C 436.277344 152.890625 433.699219 152.085938 429.960938 151.195312 C 429.515625 151.109375 429.25 150.75 429.25 150.304688 C 429.25 149.859375 429.515625 149.503906 429.960938 149.414062 C 433.699219 148.523438 436.277344 147.722656 438.148438 146.566406 C 437.613281 145.320312 436.8125 143.984375 435.832031 142.378906 C 435.65625 142.023438 435.65625 141.578125 435.921875 141.308594 C 436.191406 141.042969 436.632812 140.953125 436.992188 141.222656 C 438.59375 142.199219 439.925781 143.003906 441.171875 143.535156 C 442.328125 141.667969 443.128906 139.082031 444.019531 135.34375 C 444.109375 134.898438 444.464844 134.628906 444.910156 134.628906 C 445.355469 134.628906 445.710938 134.898438 445.796875 135.34375 C 446.6875 139.082031 447.488281 141.667969 448.644531 143.535156 C 449.890625 143.003906 451.226562 142.199219 452.828125 141.222656 C 453.183594 141.042969 453.628906 141.042969 453.894531 141.308594 C 454.160156 141.578125 454.25 142.023438 453.984375 142.378906 C 453.003906 143.984375 452.203125 145.320312 451.671875 146.566406 C 453.539062 147.722656 456.121094 148.523438 459.855469 149.414062 C 460.210938 149.503906 460.566406 149.859375 460.566406 150.21875 Z M 626.5 128.21875 C 626.5 128.664062 626.230469 129.019531 625.789062 129.109375 C 622.050781 130 619.46875 130.800781 617.601562 131.957031 C 618.136719 133.203125 618.9375 134.542969 619.914062 136.144531 C 620.09375 136.5 620.09375 136.945312 619.824219 137.214844 C 619.558594 137.480469 619.113281 137.570312 618.757812 137.300781 C 617.15625 136.324219 615.824219 135.519531 614.578125 134.988281 C 613.421875 136.855469 612.621094 139.441406 611.730469 143.179688 C 611.640625 143.625 611.285156 143.894531 610.839844 143.894531 C 610.394531 143.894531 610.039062 143.625 609.949219 143.179688 C 609.0625 139.441406 608.261719 136.855469 607.101562 134.988281 C 605.859375 135.519531 604.523438 136.324219 602.921875 137.300781 C 602.742188 137.390625 602.65625 137.390625 602.476562 137.390625 C 602.210938 137.390625 602.03125 137.300781 601.855469 137.125 C 601.585938 136.855469 601.496094 136.410156 601.765625 136.054688 C 602.742188 134.453125 603.542969 133.117188 604.078125 131.867188 C 602.210938 130.710938 599.628906 129.910156 595.894531 129.019531 C 595.449219 128.929688 595.179688 128.574219 595.179688 128.128906 C 595.179688 127.683594 595.449219 127.328125 595.894531 127.238281 C 599.628906 126.347656 602.210938 125.546875 604.078125 124.386719 C 603.542969 123.140625 602.742188 121.804688 601.765625 120.199219 C 601.585938 119.84375 601.585938 119.398438 601.855469 119.132812 C 602.121094 118.863281 602.566406 118.777344 602.921875 119.042969 C 604.523438 120.023438 605.859375 120.824219 607.101562 121.359375 C 608.261719 119.488281 609.0625 116.90625 609.949219 113.164062 C 610.039062 112.71875 610.394531 112.453125 610.839844 112.453125 C 611.285156 112.453125 611.640625 112.71875 611.730469 113.164062 C 612.621094 116.90625 613.421875 119.488281 614.578125 121.359375 C 615.824219 120.824219 617.15625 120.023438 618.757812 119.042969 C 619.113281 118.863281 619.558594 118.863281 619.824219 119.132812 C 620.09375 119.398438 620.183594 119.84375 619.914062 120.199219 C 618.9375 121.804688 618.136719 123.140625 617.601562 124.386719 C 619.46875 125.546875 622.050781 126.347656 625.789062 127.238281 C 626.144531 127.414062 626.5 127.773438 626.5 128.21875 Z M 403.894531 209.449219 C 403.894531 209.894531 403.625 210.25 403.179688 210.339844 C 400.421875 210.960938 398.464844 211.585938 396.953125 212.476562 C 397.398438 213.367188 397.933594 214.347656 398.644531 215.59375 C 398.820312 215.949219 398.820312 216.394531 398.554688 216.664062 C 398.289062 216.929688 397.84375 217.019531 397.488281 216.753906 C 396.332031 216.039062 395.261719 215.417969 394.375 215.058594 C 393.484375 216.484375 392.949219 218.445312 392.238281 221.292969 C 392.148438 221.738281 391.792969 222.007812 391.347656 222.007812 C 390.902344 222.007812 390.546875 221.738281 390.457031 221.292969 C 389.835938 218.535156 389.214844 216.574219 388.324219 215.058594 C 387.433594 215.503906 386.453125 216.039062 385.210938 216.753906 C 385.03125 216.839844 384.941406 216.839844 384.765625 216.839844 C 384.496094 216.839844 384.320312 216.753906 384.140625 216.574219 C 383.875 216.308594 383.785156 215.863281 384.054688 215.503906 C 384.765625 214.347656 385.386719 213.277344 385.742188 212.386719 C 384.320312 211.496094 382.363281 210.960938 379.515625 210.25 C 379.070312 210.160156 378.804688 209.804688 378.804688 209.359375 C 378.804688 208.914062 379.070312 208.558594 379.515625 208.46875 C 382.273438 207.84375 384.230469 207.222656 385.742188 206.332031 C 385.296875 205.441406 384.765625 204.460938 384.054688 203.214844 C 383.875 202.855469 383.875 202.410156 384.140625 202.144531 C 384.410156 201.878906 384.855469 201.789062 385.210938 202.054688 C 386.367188 202.769531 387.433594 203.390625 388.324219 203.75 C 389.214844 202.324219 389.746094 200.363281 390.457031 197.511719 C 390.546875 197.066406 390.902344 196.800781 391.347656 196.800781 C 391.792969 196.800781 392.148438 197.066406 392.238281 197.511719 C 392.859375 200.273438 393.484375 202.234375 394.375 203.75 C 395.261719 203.304688 396.242188 202.769531 397.488281 202.054688 C 397.84375 201.878906 398.289062 201.878906 398.554688 202.144531 C 398.820312 202.410156 398.910156 202.855469 398.644531 203.214844 C 397.933594 204.371094 397.308594 205.441406 396.953125 206.332031 C 398.378906 207.222656 400.335938 207.757812 403.179688 208.46875 C 403.625 208.648438 403.894531 209.003906 403.894531 209.449219 Z M 313.945312 140.597656 C 314.121094 140.953125 314.121094 141.398438 313.855469 141.667969 C 313.585938 141.933594 313.144531 142.023438 312.785156 141.753906 C 311.542969 141.042969 310.5625 140.417969 309.671875 139.972656 C 308.785156 141.398438 308.160156 143.449219 307.539062 146.210938 C 307.449219 146.65625 307.09375 146.921875 306.648438 146.921875 C 306.203125 146.921875 305.847656 146.65625 305.757812 146.210938 C 305.136719 143.359375 304.511719 141.398438 303.621094 139.972656 C 302.734375 140.417969 301.753906 140.953125 300.507812 141.753906 C 300.332031 141.84375 300.242188 141.84375 300.0625 141.84375 C 299.796875 141.84375 299.621094 141.753906 299.441406 141.578125 C 299.175781 141.308594 299.085938 140.863281 299.351562 140.507812 C 300.0625 139.261719 300.6875 138.28125 301.132812 137.390625 C 299.707031 136.5 297.660156 135.878906 294.902344 135.253906 C 294.457031 135.164062 294.191406 134.808594 294.191406 134.363281 C 294.191406 133.917969 294.457031 133.5625 294.902344 133.472656 C 297.75 132.847656 299.707031 132.226562 301.132812 131.335938 C 300.6875 130.445312 300.152344 129.464844 299.351562 128.21875 C 299.175781 127.859375 299.175781 127.414062 299.441406 127.148438 C 299.707031 126.882812 300.152344 126.792969 300.507812 127.058594 C 301.753906 127.773438 302.734375 128.394531 303.621094 128.839844 C 304.511719 127.414062 305.136719 125.367188 305.757812 122.605469 C 305.847656 122.160156 306.203125 121.894531 306.648438 121.894531 C 307.09375 121.894531 307.449219 122.160156 307.539062 122.605469 C 308.160156 125.457031 308.785156 127.414062 309.671875 128.839844 C 310.5625 128.394531 311.542969 127.859375 312.785156 127.058594 C 313.144531 126.882812 313.585938 126.882812 313.855469 127.148438 C 314.121094 127.414062 314.210938 127.859375 313.945312 128.21875 C 313.230469 129.464844 312.609375 130.445312 312.164062 131.335938 C 313.585938 132.226562 315.632812 132.847656 318.390625 133.472656 C 318.835938 133.5625 319.105469 133.917969 319.105469 134.363281 C 319.105469 134.808594 318.835938 135.164062 318.390625 135.253906 C 315.546875 135.878906 313.585938 136.5 312.164062 137.390625 C 312.699219 138.371094 313.230469 139.351562 313.945312 140.597656 Z M 300.0625 118.6875 L 299.796875 111.648438 C 299.796875 111.117188 300.152344 110.757812 300.6875 110.757812 C 301.132812 110.757812 301.578125 111.117188 301.578125 111.648438 L 301.84375 118.597656 C 301.84375 119.132812 301.488281 119.488281 300.953125 119.488281 C 300.507812 119.488281 300.0625 119.132812 300.0625 118.6875 Z M 299.53125 104.523438 L 299.441406 100.785156 C 299.441406 100.25 299.796875 99.894531 300.332031 99.894531 C 300.777344 99.894531 301.222656 100.25 301.222656 100.785156 L 301.308594 104.523438 C 301.308594 105.058594 300.953125 105.414062 300.421875 105.414062 C 299.976562 105.414062 299.621094 104.96875 299.53125 104.523438 Z M 299.085938 91.789062 L 298.730469 79.496094 C 298.730469 78.960938 299.085938 78.605469 299.621094 78.605469 C 300.152344 78.605469 300.507812 78.960938 300.507812 79.496094 L 300.953125 91.875 C 300.953125 92.410156 300.597656 92.765625 300.0625 92.765625 C 299.53125 92.679688 299.175781 92.320312 299.085938 91.789062 Z M 299.351562 72.816406 C 298.90625 72.816406 298.460938 72.460938 298.460938 71.925781 L 298.195312 64.976562 C 298.195312 64.441406 298.550781 64.085938 299.085938 64.085938 C 299.53125 64.085938 299.976562 64.441406 299.976562 64.976562 L 300.242188 71.925781 C 300.242188 72.371094 299.796875 72.726562 299.351562 72.816406 Z M 313.320312 121.269531 L 314.300781 115.570312 C 314.386719 115.125 314.832031 114.769531 315.367188 114.855469 C 315.8125 114.945312 316.167969 115.390625 316.078125 115.925781 L 315.101562 121.625 C 315.011719 122.070312 314.65625 122.339844 314.210938 122.339844 C 314.121094 122.339844 314.121094 122.339844 314.03125 122.339844 C 313.585938 122.25 313.230469 121.804688 313.320312 121.269531 Z M 316.167969 104.703125 L 318.214844 92.5 C 318.304688 92.054688 318.746094 91.699219 319.28125 91.789062 C 319.726562 91.875 320.082031 92.320312 319.992188 92.855469 L 317.949219 105.058594 C 317.859375 105.503906 317.503906 105.773438 317.058594 105.773438 C 316.96875 105.773438 316.96875 105.773438 316.878906 105.773438 C 316.433594 105.683594 316.078125 105.148438 316.167969 104.703125 Z M 319.191406 86.710938 L 319.90625 82.703125 C 319.992188 82.257812 320.4375 81.902344 320.972656 81.988281 C 321.417969 82.078125 321.773438 82.523438 321.683594 83.058594 L 320.972656 87.066406 C 320.882812 87.511719 320.527344 87.78125 320.082031 87.78125 C 319.992188 87.78125 319.992188 87.78125 319.90625 87.78125 C 319.460938 87.691406 319.105469 87.246094 319.191406 86.710938 Z M 327.824219 46.898438 L 323.640625 71.65625 C 323.550781 72.101562 323.195312 72.371094 322.75 72.371094 C 322.664062 72.371094 322.664062 72.371094 322.574219 72.371094 C 322.128906 72.28125 321.773438 71.835938 321.863281 71.300781 L 326.042969 46.628906 C 326.132812 46.183594 326.578125 45.828125 327.109375 45.917969 C 327.554688 46.007812 327.910156 46.453125 327.824219 46.898438 Z M 379.425781 202.410156 C 379.25 202.410156 378.980469 202.324219 378.804688 202.234375 L 368.839844 193.503906 C 368.484375 193.148438 368.394531 192.613281 368.75 192.257812 C 369.105469 191.902344 369.640625 191.8125 369.996094 192.167969 L 379.960938 200.898438 C 380.316406 201.253906 380.40625 201.789062 380.050781 202.144531 C 379.871094 202.234375 379.691406 202.410156 379.425781 202.410156 Z M 361.898438 185.042969 C 362.253906 185.398438 362.34375 185.933594 361.988281 186.289062 C 361.808594 186.46875 361.542969 186.558594 361.277344 186.558594 C 361.097656 186.558594 360.832031 186.46875 360.652344 186.378906 L 350.066406 177.117188 C 349.710938 176.761719 349.621094 176.226562 349.976562 175.871094 C 350.332031 175.511719 350.867188 175.425781 351.222656 175.78125 Z M 345.617188 170.792969 C 345.972656 171.148438 346.0625 171.683594 345.707031 172.039062 C 345.527344 172.21875 345.261719 172.304688 344.996094 172.304688 C 344.816406 172.304688 344.550781 172.21875 344.371094 172.128906 L 327.644531 157.519531 C 327.289062 157.164062 327.199219 156.628906 327.554688 156.273438 C 327.910156 155.917969 328.445312 155.828125 328.800781 156.183594 Z M 322.394531 150.574219 C 322.75 150.929688 322.839844 151.464844 322.484375 151.820312 C 322.308594 152 322.039062 152.085938 321.773438 152.085938 C 321.59375 152.085938 321.328125 152 321.148438 151.910156 L 316.347656 147.722656 C 315.988281 147.367188 315.902344 146.832031 316.257812 146.476562 C 316.613281 146.121094 317.148438 146.03125 317.503906 146.386719 Z M 431.296875 164.648438 L 420.976562 176.582031 C 420.796875 176.761719 420.53125 176.847656 420.265625 176.847656 C 420.085938 176.847656 419.820312 176.761719 419.640625 176.671875 C 419.285156 176.316406 419.195312 175.78125 419.550781 175.425781 L 429.871094 163.488281 C 430.230469 163.132812 430.761719 163.042969 431.117188 163.398438 C 431.652344 163.757812 431.652344 164.289062 431.296875 164.648438 Z M 415.28125 183.082031 L 411.902344 187.003906 C 411.722656 187.179688 411.457031 187.269531 411.1875 187.269531 C 411.011719 187.269531 410.742188 187.179688 410.566406 187.09375 C 410.210938 186.734375 410.121094 186.203125 410.476562 185.84375 L 413.859375 181.925781 C 414.214844 181.570312 414.746094 181.480469 415.105469 181.835938 C 415.636719 182.191406 415.636719 182.726562 415.28125 183.082031 Z M 402.46875 196.535156 C 402.113281 196.175781 402.023438 195.644531 402.378906 195.285156 L 406.027344 191.101562 C 406.382812 190.742188 406.917969 190.65625 407.273438 191.011719 C 407.628906 191.367188 407.71875 191.902344 407.363281 192.257812 L 403.714844 196.445312 C 403.539062 196.621094 403.269531 196.710938 403.003906 196.710938 C 402.824219 196.800781 402.648438 196.710938 402.46875 196.535156 Z M 484.324219 178.007812 C 483.96875 177.652344 483.878906 177.117188 484.234375 176.761719 C 484.589844 176.402344 485.125 176.316406 485.480469 176.671875 L 488.683594 179.519531 C 489.039062 179.878906 489.128906 180.410156 488.773438 180.769531 C 488.59375 180.945312 488.328125 181.035156 488.058594 181.035156 C 487.882812 181.035156 487.613281 180.945312 487.4375 180.855469 Z M 470.800781 166.070312 C 470.445312 165.714844 470.355469 165.179688 470.710938 164.824219 C 471.066406 164.46875 471.601562 164.378906 471.957031 164.734375 L 480.941406 172.664062 C 481.296875 173.019531 481.386719 173.554688 481.03125 173.910156 C 480.851562 174.089844 480.585938 174.175781 480.320312 174.175781 C 480.140625 174.175781 479.875 174.089844 479.695312 174 Z M 466.085938 161.886719 L 462.4375 158.589844 C 462.082031 158.234375 461.992188 157.699219 462.347656 157.34375 C 462.703125 156.988281 463.238281 156.898438 463.59375 157.253906 L 467.242188 160.550781 C 467.597656 160.90625 467.6875 161.441406 467.328125 161.796875 C 467.152344 161.972656 466.886719 162.0625 466.617188 162.0625 C 466.441406 162.152344 466.261719 162.0625 466.085938 161.886719 Z M 598.027344 137.480469 C 598.207031 137.925781 598.027344 138.460938 597.582031 138.636719 L 568.488281 152.265625 C 568.402344 152.355469 568.222656 152.355469 568.132812 152.355469 C 567.777344 152.355469 567.511719 152.175781 567.332031 151.820312 C 567.15625 151.375 567.332031 150.839844 567.777344 150.664062 L 596.960938 137.035156 C 597.316406 136.769531 597.851562 137.035156 598.027344 137.480469 Z M 556.480469 156.808594 C 556.300781 156.363281 556.480469 155.828125 556.921875 155.652344 L 561.371094 153.601562 C 561.816406 153.421875 562.351562 153.601562 562.527344 154.046875 C 562.707031 154.492188 562.527344 155.027344 562.082031 155.207031 L 557.636719 157.253906 C 557.546875 157.34375 557.367188 157.34375 557.28125 157.34375 C 556.921875 157.34375 556.65625 157.164062 556.480469 156.808594 Z M 528.542969 169.902344 C 528.363281 169.457031 528.542969 168.921875 528.988281 168.742188 L 552.832031 157.609375 C 553.277344 157.433594 553.808594 157.609375 553.988281 158.054688 C 554.164062 158.5 553.988281 159.035156 553.542969 159.214844 L 529.699219 170.347656 C 529.609375 170.4375 529.429688 170.4375 529.34375 170.4375 C 528.988281 170.347656 528.71875 170.167969 528.542969 169.902344 Z M 509.503906 177.828125 L 518.753906 173.554688 C 519.199219 173.375 519.734375 173.554688 519.910156 174 C 520.089844 174.445312 519.910156 174.980469 519.464844 175.15625 L 510.214844 179.433594 C 510.125 179.519531 509.945312 179.519531 509.859375 179.519531 C 509.503906 179.519531 509.234375 179.34375 509.058594 178.988281 C 508.789062 178.542969 509.058594 178.007812 509.503906 177.828125 Z M 597.582031 108.976562 C 597.226562 108.621094 597.226562 108.085938 597.496094 107.730469 C 597.851562 107.375 598.382812 107.375 598.738281 107.640625 L 605.769531 114.054688 C 606.125 114.410156 606.125 114.945312 605.859375 115.300781 C 605.679688 115.480469 605.414062 115.570312 605.234375 115.570312 C 605.058594 115.570312 604.789062 115.480469 604.613281 115.300781 Z M 588.507812 100.695312 C 588.152344 100.339844 588.152344 99.804688 588.417969 99.449219 C 588.773438 99.089844 589.308594 99.089844 589.664062 99.359375 L 593.222656 102.566406 C 593.578125 102.921875 593.578125 103.457031 593.3125 103.8125 C 593.136719 103.988281 592.867188 104.078125 592.691406 104.078125 C 592.511719 104.078125 592.246094 103.988281 592.066406 103.8125 Z M 582.636719 92.855469 L 586.371094 96.332031 C 586.730469 96.6875 586.730469 97.222656 586.460938 97.578125 C 586.285156 97.753906 586.015625 97.84375 585.839844 97.84375 C 585.660156 97.84375 585.394531 97.753906 585.214844 97.578125 L 581.480469 94.101562 C 581.125 93.746094 581.125 93.210938 581.390625 92.855469 C 581.65625 92.5 582.191406 92.5 582.636719 92.855469 Z M 615.554688 190.742188 C 615.554688 190.210938 615.910156 189.851562 616.445312 189.851562 C 616.980469 189.851562 617.335938 190.210938 617.335938 190.742188 L 617.335938 195.464844 C 617.335938 196 616.980469 196.355469 616.445312 196.355469 C 615.910156 196.355469 615.554688 196 615.554688 195.464844 Z M 615.554688 160.460938 C 615.554688 159.925781 615.910156 159.570312 616.445312 159.570312 C 616.980469 159.570312 617.335938 159.925781 617.335938 160.460938 L 617.335938 184.597656 C 617.335938 185.132812 616.980469 185.488281 616.445312 185.488281 C 615.910156 185.488281 615.554688 185.132812 615.554688 184.597656 Z M 615.554688 155.5625 L 615.554688 142.023438 C 615.554688 141.488281 615.910156 141.132812 616.445312 141.132812 C 616.980469 141.132812 617.335938 141.488281 617.335938 142.023438 L 617.335938 155.5625 C 617.335938 156.097656 616.980469 156.453125 616.445312 156.453125 C 615.910156 156.453125 615.554688 156.007812 615.554688 155.5625 Z M 510.660156 261.554688 L 509.503906 253.894531 C 509.414062 253.449219 509.769531 252.914062 510.214844 252.914062 C 510.746094 252.824219 511.191406 253.183594 511.191406 253.628906 L 512.347656 261.285156 C 512.4375 261.730469 512.082031 262.265625 511.636719 262.265625 C 511.546875 262.265625 511.546875 262.265625 511.460938 262.265625 C 511.101562 262.355469 510.746094 262 510.660156 261.554688 Z M 508.703125 248.550781 L 506.476562 234.03125 C 506.386719 233.585938 506.742188 233.050781 507.1875 233.050781 C 507.722656 232.960938 508.167969 233.320312 508.167969 233.765625 L 510.390625 248.28125 C 510.480469 248.726562 510.125 249.261719 509.679688 249.261719 C 509.589844 249.261719 509.589844 249.261719 509.503906 249.261719 C 509.144531 249.261719 508.789062 248.996094 508.703125 248.550781 Z M 505.675781 228.953125 L 504.964844 224.414062 C 504.875 223.96875 505.230469 223.433594 505.675781 223.433594 C 506.210938 223.34375 506.65625 223.699219 506.65625 224.144531 L 507.367188 228.6875 C 507.457031 229.132812 507.101562 229.667969 506.65625 229.667969 C 506.566406 229.667969 506.566406 229.667969 506.476562 229.667969 C 506.121094 229.667969 505.765625 229.398438 505.675781 228.953125 Z M 503.273438 212.921875 L 500.605469 195.554688 C 500.515625 195.109375 500.871094 194.574219 501.316406 194.574219 C 501.851562 194.484375 502.296875 194.839844 502.296875 195.285156 L 504.964844 212.65625 C 505.054688 213.101562 504.699219 213.636719 504.253906 213.636719 C 504.164062 213.636719 504.164062 213.636719 504.074219 213.636719 C 503.71875 213.722656 503.363281 213.367188 503.273438 212.921875 Z M 477.382812 303.773438 L 464.925781 290.414062 C 464.570312 290.054688 464.570312 289.523438 464.925781 289.164062 C 465.285156 288.808594 465.816406 288.808594 466.171875 289.164062 L 478.628906 302.527344 C 478.984375 302.882812 478.984375 303.417969 478.628906 303.773438 C 478.449219 303.953125 478.273438 304.039062 478.007812 304.039062 C 477.828125 304.039062 477.5625 303.953125 477.382812 303.773438 Z M 457.988281 280.257812 C 458.34375 280.613281 458.34375 281.148438 457.988281 281.503906 C 457.808594 281.683594 457.632812 281.773438 457.363281 281.773438 C 457.097656 281.773438 456.921875 281.683594 456.742188 281.503906 L 451.582031 275.984375 C 451.226562 275.628906 451.226562 275.09375 451.582031 274.738281 C 451.9375 274.378906 452.472656 274.378906 452.828125 274.738281 Z M 443.21875 264.40625 C 443.574219 264.761719 443.574219 265.296875 443.21875 265.652344 C 443.039062 265.828125 442.863281 265.917969 442.597656 265.917969 C 442.328125 265.917969 442.152344 265.828125 441.972656 265.652344 L 426.226562 248.816406 C 425.871094 248.460938 425.871094 247.925781 426.226562 247.570312 C 426.582031 247.214844 427.113281 247.214844 427.46875 247.570312 Z M 420.53125 240.089844 C 420.886719 240.445312 420.886719 240.980469 420.53125 241.335938 C 420.351562 241.511719 420.175781 241.601562 419.90625 241.601562 C 419.640625 241.601562 419.464844 241.511719 419.285156 241.335938 L 415.90625 237.683594 C 415.546875 237.328125 415.546875 236.792969 415.90625 236.4375 C 416.261719 236.082031 416.792969 236.082031 417.148438 236.4375 Z M 411.011719 229.933594 C 411.367188 230.289062 411.367188 230.824219 411.011719 231.179688 C 410.832031 231.359375 410.65625 231.449219 410.386719 231.449219 C 410.121094 231.449219 409.945312 231.359375 409.765625 231.179688 L 404.605469 225.660156 C 404.25 225.304688 404.25 224.769531 404.605469 224.414062 C 404.960938 224.054688 405.496094 224.054688 405.851562 224.414062 Z M 499.804688 401.214844 L 498.738281 394.089844 C 498.648438 393.644531 499.003906 393.109375 499.449219 393.109375 C 499.894531 393.019531 500.425781 393.378906 500.425781 393.824219 L 501.496094 400.949219 C 501.582031 401.394531 501.226562 401.929688 500.78125 401.929688 C 500.695312 401.929688 500.695312 401.929688 500.605469 401.929688 C 500.25 402.015625 499.804688 401.660156 499.804688 401.214844 Z M 498.558594 387.320312 C 498.46875 387.320312 498.46875 387.320312 498.378906 387.320312 C 497.9375 387.320312 497.578125 386.964844 497.492188 386.609375 L 495.265625 372.089844 C 495.175781 371.644531 495.535156 371.109375 495.976562 371.109375 C 496.421875 371.019531 496.957031 371.378906 496.957031 371.824219 L 499.179688 386.339844 C 499.359375 386.785156 499.003906 387.230469 498.558594 387.320312 Z M 493.308594 359.351562 L 492.597656 354.632812 C 492.507812 354.1875 492.863281 353.652344 493.308594 353.652344 C 493.753906 353.652344 494.289062 353.917969 494.289062 354.363281 L 495 359.085938 C 495.089844 359.53125 494.734375 360.066406 494.289062 360.066406 C 494.199219 360.066406 494.199219 360.066406 494.109375 360.066406 C 493.753906 360.066406 493.398438 359.796875 493.308594 359.351562 Z M 492.242188 346.082031 C 492.152344 346.082031 492.152344 346.082031 492.0625 346.082031 C 491.617188 346.082031 491.261719 345.726562 491.175781 345.367188 L 489.574219 334.679688 C 489.484375 334.234375 489.839844 333.699219 490.285156 333.699219 C 490.730469 333.613281 491.261719 333.96875 491.261719 334.414062 L 492.863281 345.101562 C 493.042969 345.546875 492.6875 345.992188 492.242188 346.082031 Z M 598.027344 381.53125 C 598.207031 381.976562 598.027344 382.511719 597.582031 382.6875 L 580.324219 391.148438 C 580.234375 391.238281 580.054688 391.238281 579.96875 391.238281 C 579.609375 391.238281 579.34375 391.0625 579.167969 390.703125 C 578.988281 390.257812 579.167969 389.726562 579.609375 389.546875 L 596.871094 381.085938 C 597.316406 380.90625 597.851562 381.085938 598.027344 381.53125 Z M 574.363281 393.109375 C 574.539062 393.554688 574.363281 394.089844 573.917969 394.269531 L 558.613281 401.75 C 558.523438 401.839844 558.347656 401.839844 558.257812 401.839844 C 557.902344 401.839844 557.636719 401.660156 557.457031 401.304688 C 557.28125 400.859375 557.457031 400.324219 557.902344 400.144531 L 573.207031 392.664062 C 573.5625 392.488281 574.09375 392.664062 574.363281 393.109375 Z M 552.207031 403.886719 C 552.386719 404.332031 552.207031 404.867188 551.761719 405.046875 L 549.539062 406.113281 C 549.449219 406.203125 549.273438 406.203125 549.183594 406.203125 C 548.828125 406.203125 548.558594 406.023438 548.382812 405.667969 C 548.203125 405.222656 548.382812 404.6875 548.828125 404.511719 L 551.050781 403.441406 C 551.496094 403.265625 552.03125 403.441406 552.207031 403.886719 Z M 544.824219 407.539062 C 545 407.984375 544.824219 408.519531 544.378906 408.695312 L 535.035156 413.238281 C 534.949219 413.328125 534.769531 413.328125 534.679688 413.328125 C 534.324219 413.328125 534.058594 413.152344 533.878906 412.792969 C 533.703125 412.347656 533.878906 411.816406 534.324219 411.636719 L 543.667969 407.09375 C 544.113281 406.914062 544.644531 407.09375 544.824219 407.539062 Z M 528.273438 415.644531 C 528.453125 416.089844 528.273438 416.625 527.828125 416.800781 L 525.960938 417.691406 C 525.871094 417.78125 525.695312 417.78125 525.605469 417.78125 C 525.25 417.78125 524.984375 417.605469 524.804688 417.246094 C 524.628906 416.800781 524.804688 416.269531 525.25 416.089844 L 527.117188 415.199219 C 527.5625 415.019531 528.097656 415.199219 528.273438 415.644531 Z M 532.277344 293.621094 C 532.632812 293.976562 532.632812 294.511719 532.367188 294.867188 C 532.191406 295.042969 531.921875 295.132812 531.746094 295.132812 C 531.566406 295.132812 531.300781 295.042969 531.121094 294.867188 L 527.652344 291.75 C 527.296875 291.390625 527.296875 290.859375 527.5625 290.5 C 527.917969 290.144531 528.453125 290.144531 528.808594 290.414062 Z M 535.925781 297.003906 L 543.933594 304.398438 C 544.289062 304.753906 544.289062 305.289062 544.023438 305.644531 C 543.84375 305.820312 543.578125 305.910156 543.398438 305.910156 C 543.222656 305.910156 542.957031 305.820312 542.777344 305.644531 L 534.769531 298.25 C 534.414062 297.894531 534.414062 297.359375 534.679688 297.003906 C 534.949219 296.648438 535.570312 296.648438 535.925781 297.003906 Z M 569.644531 330.316406 L 553.808594 315.796875 C 553.453125 315.441406 553.453125 314.90625 553.71875 314.550781 C 554.078125 314.195312 554.609375 314.195312 554.964844 314.460938 L 570.804688 328.980469 C 571.160156 329.335938 571.160156 329.871094 570.890625 330.226562 C 570.714844 330.40625 570.445312 330.492188 570.269531 330.492188 C 570.003906 330.582031 569.824219 330.492188 569.644531 330.316406 Z M 580.144531 340.023438 L 574.808594 335.125 C 574.449219 334.769531 574.449219 334.234375 574.71875 333.878906 C 575.074219 333.523438 575.609375 333.523438 575.964844 333.789062 L 581.300781 338.6875 C 581.65625 339.042969 581.65625 339.578125 581.390625 339.933594 C 581.210938 340.113281 580.945312 340.203125 580.769531 340.203125 C 580.5 340.203125 580.324219 340.113281 580.144531 340.023438 Z M 589.398438 346.082031 L 598.5625 354.453125 C 598.917969 354.808594 598.917969 355.34375 598.652344 355.699219 C 598.472656 355.878906 598.207031 355.96875 598.027344 355.96875 C 597.851562 355.96875 597.582031 355.878906 597.40625 355.699219 L 588.242188 347.328125 C 587.886719 346.972656 587.886719 346.4375 588.152344 346.082031 C 588.417969 345.8125 589.042969 345.726562 589.398438 346.082031 Z M 334.230469 305.289062 C 330.046875 305.289062 326.578125 308.761719 326.578125 312.949219 C 326.578125 317.132812 330.046875 320.605469 334.230469 320.605469 C 338.410156 320.605469 341.878906 317.132812 341.878906 312.949219 C 341.878906 308.761719 338.5 305.289062 334.230469 305.289062 Z M 334.230469 318.914062 C 331.027344 318.914062 328.355469 316.242188 328.355469 313.035156 C 328.355469 309.828125 331.027344 307.15625 334.230469 307.15625 C 337.433594 307.15625 340.101562 309.828125 340.101562 313.035156 C 340.101562 316.242188 337.519531 318.914062 334.230469 318.914062 Z M 416.617188 351.601562 C 414.570312 351.601562 412.878906 353.296875 412.878906 355.34375 C 412.878906 357.394531 414.570312 359.085938 416.617188 359.085938 C 418.664062 359.085938 420.351562 357.394531 420.351562 355.34375 C 420.351562 353.296875 418.664062 351.601562 416.617188 351.601562 Z M 416.617188 357.304688 C 415.546875 357.304688 414.660156 356.414062 414.660156 355.34375 C 414.660156 354.277344 415.546875 353.386719 416.617188 353.386719 C 417.683594 353.386719 418.574219 354.277344 418.574219 355.34375 C 418.574219 356.414062 417.683594 357.304688 416.617188 357.304688 Z M 632.816406 301.902344 C 629.523438 301.902344 626.855469 304.574219 626.855469 307.871094 C 626.855469 311.164062 629.523438 313.839844 632.816406 313.839844 C 636.109375 313.839844 638.777344 311.164062 638.777344 307.871094 C 638.777344 304.574219 636.109375 301.902344 632.816406 301.902344 Z M 632.816406 312.058594 C 630.503906 312.058594 628.632812 310.1875 628.632812 307.871094 C 628.632812 305.554688 630.503906 303.683594 632.816406 303.683594 C 635.128906 303.683594 636.996094 305.554688 636.996094 307.871094 C 636.996094 310.1875 635.128906 312.058594 632.816406 312.058594 Z M 508.703125 71.480469 C 513.148438 71.480469 516.796875 67.828125 516.796875 63.375 C 516.796875 58.921875 513.148438 55.269531 508.703125 55.269531 C 504.253906 55.269531 500.605469 58.921875 500.605469 63.375 C 500.605469 67.828125 504.253906 71.480469 508.703125 71.480469 Z M 508.703125 57.140625 C 512.171875 57.140625 515.019531 59.988281 515.019531 63.464844 C 515.019531 66.9375 512.171875 69.789062 508.703125 69.789062 C 505.230469 69.789062 502.382812 66.9375 502.382812 63.464844 C 502.382812 59.988281 505.230469 57.140625 508.703125 57.140625 Z M 431.917969 90.628906 C 431.917969 89.027344 433.253906 87.691406 434.855469 87.691406 C 436.457031 87.691406 437.792969 89.027344 437.792969 90.628906 C 437.792969 92.234375 436.457031 93.570312 434.855469 93.570312 C 433.164062 93.480469 431.917969 92.234375 431.917969 90.628906 Z M 352.644531 236.792969 C 352.644531 238.394531 351.3125 239.730469 349.710938 239.730469 C 348.109375 239.730469 346.773438 238.394531 346.773438 236.792969 C 346.773438 235.191406 348.109375 233.855469 349.710938 233.855469 C 351.402344 233.855469 352.644531 235.191406 352.644531 236.792969 Z M 564.308594 209.449219 C 566.355469 209.449219 568.046875 211.140625 568.046875 213.191406 C 568.046875 215.238281 566.355469 216.929688 564.308594 216.929688 C 562.261719 216.929688 560.570312 215.238281 560.570312 213.191406 C 560.570312 211.140625 562.261719 209.449219 564.308594 209.449219 Z M 386.722656 403.085938 C 386.722656 405.132812 385.121094 406.738281 383.074219 406.738281 C 381.027344 406.738281 379.425781 405.132812 379.425781 403.085938 C 379.425781 401.035156 381.027344 399.433594 383.074219 399.433594 C 385.121094 399.433594 386.722656 401.035156 386.722656 403.085938 Z M 386.722656 403.085938"/></g></svg>