<svg xmlns="http://www.w3.org/2000/svg" width="1012.5" viewBox="0 0 1012.5 487.5" height="487.5" version="1.0"><defs><clipPath id="a"><path d="M 395.148438 234.566406 L 550.316406 234.566406 L 550.316406 373.242188 L 395.148438 373.242188 Z M 395.148438 234.566406"/></clipPath><clipPath id="b"><path d="M 384.503906 114.285156 L 628.125 114.285156 L 628.125 222.976562 L 384.503906 222.976562 Z M 384.503906 114.285156"/></clipPath></defs><g clip-path="url(#a)"><path fill="#FFF" d="M 604.039062 252.792969 C 604.484375 252.707031 604.753906 252.347656 604.753906 251.902344 C 604.753906 251.457031 604.484375 251.101562 604.039062 251.011719 C 596.566406 249.230469 595.320312 247.984375 593.542969 240.503906 C 593.453125 240.058594 593.097656 239.789062 592.652344 239.789062 C 592.207031 239.789062 591.851562 240.058594 591.761719 240.503906 C 589.984375 247.984375 588.738281 249.230469 581.265625 251.011719 C 580.820312 251.101562 580.550781 251.457031 580.550781 251.902344 C 580.550781 252.347656 580.820312 252.707031 581.265625 252.792969 C 588.738281 254.578125 589.984375 255.824219 591.761719 263.304688 C 591.851562 263.75 592.207031 264.019531 592.652344 264.019531 C 593.097656 264.019531 593.453125 263.75 593.542969 263.304688 C 595.320312 255.734375 596.65625 254.488281 604.039062 252.792969 Z M 592.742188 259.5625 C 591.316406 255.109375 589.539062 253.238281 585.089844 251.902344 C 589.539062 250.480469 591.40625 248.699219 592.742188 244.246094 C 594.164062 248.699219 595.945312 250.566406 600.394531 251.902344 C 595.945312 253.328125 594.164062 255.109375 592.742188 259.5625 Z M 625.214844 358.074219 C 625.214844 358.519531 624.949219 358.875 624.503906 358.964844 C 620.765625 359.855469 618.1875 360.65625 616.320312 361.816406 C 616.851562 363.0625 617.652344 364.398438 618.632812 366.003906 C 618.808594 366.359375 618.808594 366.804688 618.542969 367.070312 C 618.363281 367.25 618.1875 367.339844 617.921875 367.339844 C 617.742188 367.339844 617.5625 367.339844 617.476562 367.25 C 615.875 366.269531 614.539062 365.46875 613.292969 364.933594 C 612.136719 366.804688 611.335938 369.386719 610.445312 373.128906 C 610.359375 373.574219 610 373.839844 609.558594 373.839844 C 609.113281 373.839844 608.757812 373.574219 608.667969 373.128906 C 607.777344 369.386719 606.976562 366.804688 605.820312 364.933594 C 604.574219 365.46875 603.238281 366.269531 601.636719 367.25 C 601.28125 367.425781 600.835938 367.425781 600.570312 367.160156 C 600.304688 366.894531 600.214844 366.449219 600.480469 366.089844 C 601.460938 364.488281 602.261719 363.152344 602.796875 361.90625 C 600.925781 360.746094 598.347656 359.945312 594.609375 359.054688 C 594.164062 358.964844 593.898438 358.609375 593.898438 358.164062 C 593.898438 357.71875 594.164062 357.363281 594.609375 357.273438 C 598.347656 356.382812 600.925781 355.582031 602.796875 354.421875 C 602.261719 353.175781 601.460938 351.839844 600.480469 350.238281 C 600.304688 349.878906 600.304688 349.433594 600.570312 349.167969 C 600.835938 348.902344 601.28125 348.8125 601.636719 349.078125 C 603.238281 350.058594 604.574219 350.859375 605.820312 351.394531 C 606.976562 349.523438 607.777344 346.941406 608.667969 343.199219 C 608.757812 342.753906 609.113281 342.488281 609.558594 342.488281 C 610 342.488281 610.359375 342.753906 610.445312 343.199219 C 611.335938 346.941406 612.136719 349.523438 613.292969 351.394531 C 614.539062 350.859375 615.875 350.058594 617.476562 349.078125 C 617.832031 348.902344 618.277344 348.902344 618.542969 349.167969 C 618.808594 349.433594 618.898438 349.878906 618.632812 350.238281 C 617.652344 351.839844 616.851562 353.175781 616.320312 354.421875 C 618.1875 355.582031 620.765625 356.382812 624.503906 357.273438 C 624.949219 357.363281 625.214844 357.71875 625.214844 358.074219 Z M 591.140625 121.953125 C 591.140625 122.398438 591.40625 122.753906 591.851562 122.84375 C 597.546875 124.179688 598.347656 125.070312 599.679688 130.679688 C 599.769531 131.125 600.125 131.394531 600.570312 131.394531 C 601.015625 131.394531 601.371094 131.125 601.460938 130.679688 C 602.796875 124.980469 603.683594 124.179688 609.289062 122.84375 C 609.734375 122.753906 610 122.398438 610 121.953125 C 610 121.507812 609.734375 121.148438 609.289062 121.0625 C 603.59375 119.726562 602.796875 118.835938 601.460938 113.222656 C 601.371094 112.777344 601.015625 112.511719 600.570312 112.511719 C 600.125 112.511719 599.769531 112.777344 599.679688 113.222656 C 598.347656 118.921875 597.457031 119.726562 591.851562 121.0625 C 591.40625 121.148438 591.140625 121.507812 591.140625 121.953125 Z M 600.570312 116.695312 C 601.550781 119.546875 602.882812 120.882812 605.820312 121.953125 C 602.972656 122.929688 601.636719 124.265625 600.570312 127.207031 C 599.59375 124.355469 598.257812 123.019531 595.320312 121.953125 C 598.167969 120.882812 599.59375 119.546875 600.570312 116.695312 Z M 426.367188 -31.605469 C 431.082031 -30.445312 431.882812 -29.734375 432.949219 -25.011719 C 433.039062 -24.566406 433.394531 -24.300781 433.839844 -24.300781 C 434.285156 -24.300781 434.640625 -24.566406 434.730469 -25.011719 C 435.886719 -29.734375 436.597656 -30.535156 441.3125 -31.605469 C 441.757812 -31.691406 442.023438 -32.050781 442.023438 -32.496094 C 442.023438 -32.941406 441.757812 -33.296875 441.3125 -33.386719 C 436.597656 -34.542969 435.796875 -35.257812 434.730469 -39.976562 C 434.640625 -40.421875 434.285156 -40.6875 433.839844 -40.6875 C 433.394531 -40.6875 433.039062 -40.421875 432.949219 -39.976562 C 431.882812 -35.257812 431.082031 -34.453125 426.367188 -33.386719 C 425.921875 -33.296875 425.652344 -32.941406 425.652344 -32.496094 C 425.652344 -32.050781 425.921875 -31.691406 426.367188 -31.605469 Z M 433.839844 -36.59375 C 434.640625 -34.453125 435.796875 -33.296875 437.929688 -32.496094 C 435.796875 -31.691406 434.640625 -30.535156 433.839844 -28.398438 C 433.039062 -30.535156 431.882812 -31.691406 429.746094 -32.496094 C 431.882812 -33.296875 433.039062 -34.453125 433.839844 -36.59375 Z M 402.789062 -6.042969 C 402.878906 -5.597656 403.234375 -5.328125 403.675781 -5.328125 C 404.121094 -5.328125 404.476562 -5.597656 404.566406 -6.042969 C 405.722656 -10.761719 406.4375 -11.5625 411.152344 -12.632812 C 411.597656 -12.722656 411.863281 -13.078125 411.863281 -13.523438 C 411.863281 -13.96875 411.597656 -14.324219 411.152344 -14.414062 C 406.4375 -15.570312 405.636719 -16.285156 404.566406 -21.003906 C 404.476562 -21.449219 404.121094 -21.71875 403.675781 -21.71875 C 403.234375 -21.71875 402.878906 -21.449219 402.789062 -21.003906 C 401.632812 -16.285156 400.917969 -15.484375 396.203125 -14.414062 C 395.757812 -14.324219 395.492188 -13.96875 395.492188 -13.523438 C 395.492188 -13.078125 395.757812 -12.722656 396.203125 -12.632812 C 400.917969 -11.5625 401.71875 -10.851562 402.789062 -6.042969 Z M 403.675781 -17.621094 C 404.476562 -15.484375 405.636719 -14.324219 407.769531 -13.523438 C 405.636719 -12.722656 404.476562 -11.5625 403.675781 -9.425781 C 402.878906 -11.5625 401.71875 -12.722656 399.585938 -13.523438 C 401.71875 -14.414062 402.878906 -15.484375 403.675781 -17.621094 Z M 671.570312 23.53125 C 677.53125 24.953125 678.507812 25.84375 679.84375 31.8125 C 679.933594 32.257812 680.289062 32.527344 680.734375 32.527344 C 681.179688 32.527344 681.535156 32.257812 681.625 31.8125 C 683.046875 25.847656 683.9375 24.867188 689.898438 23.53125 C 690.34375 23.441406 690.609375 23.085938 690.609375 22.640625 C 690.609375 22.195312 690.34375 21.835938 689.898438 21.75 C 683.9375 20.324219 682.957031 19.433594 681.625 13.464844 C 681.535156 13.019531 681.179688 12.753906 680.734375 12.753906 C 680.289062 12.753906 679.933594 13.019531 679.84375 13.464844 C 678.421875 19.433594 677.53125 20.414062 671.480469 21.75 C 671.035156 21.835938 670.769531 22.195312 670.769531 22.640625 C 670.769531 23.085938 671.125 23.441406 671.570312 23.53125 Z M 680.734375 16.9375 C 681.800781 20.054688 683.226562 21.480469 686.429688 22.640625 C 683.3125 23.707031 681.890625 25.132812 680.734375 28.339844 C 679.664062 25.222656 678.242188 23.796875 675.039062 22.640625 C 678.242188 21.570312 679.664062 20.144531 680.734375 16.9375 Z M 718.636719 132.371094 C 718.191406 132.371094 717.835938 132.640625 717.746094 133.085938 C 716.320312 139.054688 715.433594 140.03125 709.472656 141.367188 C 709.027344 141.457031 708.757812 141.8125 708.757812 142.257812 C 708.757812 142.703125 709.027344 143.0625 709.472656 143.148438 C 715.433594 144.574219 716.410156 145.464844 717.746094 151.433594 C 717.835938 151.878906 718.191406 152.144531 718.636719 152.144531 C 719.082031 152.144531 719.4375 151.878906 719.523438 151.433594 C 720.949219 145.464844 721.839844 144.488281 727.800781 143.148438 C 728.246094 143.0625 728.511719 142.703125 728.511719 142.257812 C 728.511719 141.8125 728.246094 141.457031 727.800781 141.367188 C 721.839844 139.945312 720.859375 139.054688 719.523438 133.085938 C 719.347656 132.640625 718.992188 132.371094 718.636719 132.371094 Z M 724.242188 142.257812 C 721.125 143.328125 719.703125 144.753906 718.546875 147.960938 C 717.480469 144.84375 716.054688 143.417969 712.851562 142.257812 C 715.964844 141.191406 717.390625 139.765625 718.546875 136.558594 C 719.703125 139.765625 721.125 141.191406 724.242188 142.257812 Z M 630.730469 216.632812 C 630.730469 216.1875 630.464844 215.832031 630.019531 215.742188 C 625.304688 214.585938 624.503906 213.871094 623.4375 209.152344 C 623.347656 208.707031 622.992188 208.4375 622.546875 208.4375 C 622.101562 208.4375 621.746094 208.707031 621.65625 209.152344 C 620.5 213.871094 619.789062 214.671875 615.074219 215.742188 C 614.628906 215.832031 614.359375 216.1875 614.359375 216.632812 C 614.359375 217.078125 614.628906 217.433594 615.074219 217.523438 C 619.789062 218.679688 620.589844 219.394531 621.65625 224.113281 C 621.746094 224.558594 622.101562 224.828125 622.546875 224.828125 C 622.992188 224.828125 623.347656 224.558594 623.4375 224.113281 C 624.59375 219.394531 625.304688 218.59375 630.019531 217.523438 C 630.464844 217.433594 630.730469 217.078125 630.730469 216.632812 Z M 622.546875 220.730469 C 621.746094 218.59375 620.589844 217.433594 618.453125 216.632812 C 620.589844 215.832031 621.746094 214.671875 622.546875 212.535156 C 623.347656 214.671875 624.503906 215.832031 626.640625 216.632812 C 624.503906 217.433594 623.347656 218.59375 622.546875 220.730469 Z M 731.089844 307.214844 C 731.089844 307.660156 730.824219 308.019531 730.378906 308.105469 C 726.644531 308.996094 724.0625 309.800781 722.195312 310.957031 C 722.726562 312.203125 723.527344 313.539062 724.507812 315.144531 C 724.683594 315.5 724.683594 315.945312 724.417969 316.210938 C 724.242188 316.390625 724.0625 316.480469 723.796875 316.480469 C 723.617188 316.480469 723.441406 316.480469 723.351562 316.390625 C 721.75 315.410156 720.414062 314.609375 719.167969 314.074219 C 718.011719 315.945312 717.210938 318.527344 716.320312 322.269531 C 716.234375 322.714844 715.878906 322.980469 715.433594 322.980469 C 714.988281 322.980469 714.632812 322.714844 714.542969 322.269531 C 713.652344 318.527344 712.851562 315.945312 711.695312 314.074219 C 710.449219 314.609375 709.117188 315.410156 707.515625 316.390625 C 707.15625 316.570312 706.714844 316.570312 706.445312 316.300781 C 706.179688 316.035156 706.089844 315.589844 706.355469 315.234375 C 707.335938 313.628906 708.136719 312.292969 708.671875 311.046875 C 706.800781 309.886719 704.222656 309.085938 700.484375 308.195312 C 700.039062 308.105469 699.773438 307.75 699.773438 307.304688 C 699.773438 306.859375 700.039062 306.503906 700.484375 306.414062 C 704.222656 305.523438 706.800781 304.722656 708.671875 303.566406 C 708.136719 302.316406 707.335938 300.980469 706.355469 299.378906 C 706.179688 299.023438 706.179688 298.578125 706.445312 298.308594 C 706.714844 298.042969 707.15625 297.953125 707.515625 298.21875 C 709.117188 299.199219 710.449219 300 711.695312 300.535156 C 712.851562 298.664062 713.652344 296.082031 714.542969 292.339844 C 714.632812 291.894531 714.988281 291.628906 715.433594 291.628906 C 715.878906 291.628906 716.234375 291.894531 716.320312 292.339844 C 717.210938 296.082031 718.011719 298.664062 719.167969 300.535156 C 720.414062 300 721.75 299.199219 723.351562 298.21875 C 723.707031 298.042969 724.152344 298.042969 724.417969 298.308594 C 724.683594 298.578125 724.773438 299.023438 724.507812 299.378906 C 723.527344 300.980469 722.726562 302.316406 722.195312 303.566406 C 724.0625 304.722656 726.644531 305.523438 730.378906 306.414062 C 730.734375 306.503906 731.089844 306.859375 731.089844 307.214844 Z M 565.160156 85.167969 C 565.160156 85.613281 564.894531 85.96875 564.449219 86.058594 C 560.710938 86.949219 558.132812 87.75 556.261719 88.90625 C 556.796875 90.152344 557.597656 91.488281 558.578125 93.09375 C 558.753906 93.449219 558.753906 93.894531 558.488281 94.160156 C 558.308594 94.339844 558.132812 94.429688 557.863281 94.429688 C 557.6875 94.429688 557.507812 94.429688 557.417969 94.339844 C 555.816406 93.359375 554.484375 92.558594 553.238281 92.023438 C 552.082031 93.894531 551.28125 96.476562 550.390625 100.21875 C 550.300781 100.664062 549.945312 100.929688 549.5 100.929688 C 549.054688 100.929688 548.699219 100.664062 548.613281 100.21875 C 547.722656 96.476562 546.921875 93.894531 545.765625 92.023438 C 544.519531 92.558594 543.183594 93.359375 541.582031 94.339844 C 541.226562 94.519531 540.78125 94.519531 540.515625 94.25 C 540.25 93.984375 540.160156 93.539062 540.425781 93.183594 C 541.40625 91.578125 542.207031 90.242188 542.738281 88.996094 C 540.871094 87.839844 538.289062 87.035156 534.554688 86.144531 C 534.109375 86.058594 533.84375 85.699219 533.84375 85.253906 C 533.84375 84.808594 534.109375 84.453125 534.554688 84.363281 C 538.289062 83.472656 540.871094 82.671875 542.738281 81.515625 C 542.207031 80.265625 541.40625 78.929688 540.425781 77.328125 C 540.25 76.972656 540.25 76.527344 540.515625 76.257812 C 540.78125 75.992188 541.226562 75.902344 541.582031 76.171875 C 543.183594 77.148438 544.519531 77.953125 545.765625 78.484375 C 546.921875 76.617188 547.722656 74.03125 548.613281 70.292969 C 548.699219 69.847656 549.054688 69.578125 549.5 69.578125 C 549.945312 69.578125 550.300781 69.847656 550.390625 70.292969 C 551.28125 74.03125 552.082031 76.617188 553.238281 78.484375 C 554.484375 77.953125 555.816406 77.148438 557.417969 76.171875 C 557.777344 75.992188 558.21875 75.992188 558.488281 76.257812 C 558.753906 76.527344 558.84375 76.972656 558.578125 77.328125 C 557.597656 78.929688 556.796875 80.265625 556.261719 81.515625 C 558.132812 82.671875 560.710938 83.472656 564.449219 84.363281 C 564.804688 84.453125 565.160156 84.808594 565.160156 85.167969 Z M 731.089844 63.164062 C 731.089844 63.609375 730.824219 63.96875 730.378906 64.054688 C 726.644531 64.945312 724.0625 65.75 722.195312 66.90625 C 722.726562 68.152344 723.527344 69.488281 724.507812 71.09375 C 724.683594 71.449219 724.683594 71.894531 724.417969 72.160156 C 724.152344 72.429688 723.707031 72.519531 723.351562 72.25 C 721.75 71.269531 720.414062 70.46875 719.167969 69.933594 C 718.011719 71.804688 717.210938 74.386719 716.320312 78.128906 C 716.234375 78.574219 715.878906 78.84375 715.433594 78.84375 C 714.988281 78.84375 714.632812 78.574219 714.542969 78.128906 C 713.652344 74.386719 712.851562 71.804688 711.695312 69.933594 C 710.449219 70.46875 709.117188 71.269531 707.515625 72.25 C 707.335938 72.339844 707.246094 72.339844 707.070312 72.339844 C 706.800781 72.339844 706.625 72.25 706.445312 72.074219 C 706.179688 71.804688 706.089844 71.359375 706.355469 71.003906 C 707.335938 69.402344 708.136719 68.066406 708.671875 66.816406 C 706.800781 65.660156 704.222656 64.859375 700.484375 63.96875 C 700.039062 63.878906 699.773438 63.523438 699.773438 63.078125 C 699.773438 62.632812 700.039062 62.273438 700.484375 62.1875 C 704.222656 61.296875 706.800781 60.492188 708.671875 59.335938 C 708.136719 58.089844 707.335938 56.753906 706.355469 55.148438 C 706.179688 54.792969 706.179688 54.347656 706.445312 54.082031 C 706.714844 53.8125 707.15625 53.722656 707.515625 53.992188 C 709.117188 54.972656 710.449219 55.773438 711.695312 56.308594 C 712.851562 54.4375 713.652344 51.855469 714.542969 48.113281 C 714.632812 47.667969 714.988281 47.402344 715.433594 47.402344 C 715.878906 47.402344 716.234375 47.667969 716.320312 48.113281 C 717.210938 51.855469 718.011719 54.4375 719.167969 56.308594 C 720.414062 55.773438 721.75 54.972656 723.351562 53.992188 C 723.707031 53.8125 724.152344 53.8125 724.417969 54.082031 C 724.683594 54.347656 724.773438 54.792969 724.507812 55.148438 C 723.527344 56.753906 722.726562 58.089844 722.195312 59.335938 C 724.0625 60.492188 726.644531 61.296875 730.378906 62.1875 C 730.734375 62.363281 731.089844 62.71875 731.089844 63.164062 Z M 508.484375 144.398438 C 508.484375 144.84375 508.21875 145.199219 507.773438 145.289062 C 505.015625 145.910156 503.058594 146.535156 501.546875 147.425781 C 501.992188 148.316406 502.523438 149.296875 503.234375 150.542969 C 503.414062 150.898438 503.414062 151.34375 503.148438 151.613281 C 502.878906 151.878906 502.4375 151.96875 502.078125 151.699219 C 500.921875 150.988281 499.855469 150.363281 498.964844 150.007812 C 498.074219 151.433594 497.542969 153.394531 496.832031 156.242188 C 496.742188 156.6875 496.386719 156.957031 495.941406 156.957031 C 495.496094 156.957031 495.140625 156.6875 495.050781 156.242188 C 494.429688 153.480469 493.804688 151.523438 492.914062 150.007812 C 492.027344 150.453125 491.046875 150.988281 489.800781 151.699219 C 489.625 151.789062 489.535156 151.789062 489.355469 151.789062 C 489.089844 151.789062 488.910156 151.699219 488.734375 151.523438 C 488.46875 151.253906 488.378906 150.808594 488.644531 150.453125 C 489.355469 149.296875 489.980469 148.226562 490.335938 147.335938 C 488.910156 146.445312 486.953125 145.910156 484.109375 145.199219 C 483.664062 145.109375 483.394531 144.753906 483.394531 144.308594 C 483.394531 143.863281 483.664062 143.507812 484.109375 143.417969 C 486.867188 142.792969 488.824219 142.171875 490.335938 141.28125 C 489.890625 140.390625 489.355469 139.410156 488.644531 138.164062 C 488.46875 137.804688 488.46875 137.359375 488.734375 137.09375 C 489 136.828125 489.445312 136.738281 489.800781 137.003906 C 490.957031 137.71875 492.027344 138.339844 492.914062 138.695312 C 493.804688 137.273438 494.339844 135.3125 495.050781 132.460938 C 495.140625 132.015625 495.496094 131.75 495.941406 131.75 C 496.386719 131.75 496.742188 132.015625 496.832031 132.460938 C 497.453125 135.222656 498.074219 137.183594 498.964844 138.695312 C 499.855469 138.25 500.835938 137.71875 502.078125 137.003906 C 502.4375 136.828125 502.878906 136.828125 503.148438 137.09375 C 503.414062 137.359375 503.503906 137.804688 503.234375 138.164062 C 502.523438 139.320312 501.902344 140.390625 501.546875 141.28125 C 502.96875 142.171875 504.925781 142.703125 507.773438 143.417969 C 508.21875 143.59375 508.484375 143.953125 508.484375 144.398438 Z M 418.535156 75.546875 C 418.714844 75.902344 418.714844 76.347656 418.445312 76.617188 C 418.179688 76.882812 417.734375 76.972656 417.378906 76.703125 C 416.132812 75.992188 415.15625 75.367188 414.265625 74.921875 C 413.375 76.347656 412.753906 78.398438 412.128906 81.15625 C 412.039062 81.601562 411.683594 81.871094 411.242188 81.871094 C 410.796875 81.871094 410.441406 81.601562 410.351562 81.15625 C 409.726562 78.308594 409.105469 76.347656 408.214844 74.921875 C 407.324219 75.367188 406.347656 75.902344 405.101562 76.703125 C 404.921875 76.792969 404.835938 76.792969 404.65625 76.792969 C 404.390625 76.792969 404.210938 76.703125 404.035156 76.527344 C 403.765625 76.257812 403.675781 75.8125 403.945312 75.457031 C 404.65625 74.210938 405.277344 73.230469 405.722656 72.339844 C 404.300781 71.449219 402.253906 70.824219 399.496094 70.203125 C 399.050781 70.113281 398.785156 69.757812 398.785156 69.3125 C 398.785156 68.867188 399.050781 68.511719 399.496094 68.421875 C 402.34375 67.796875 404.300781 67.175781 405.722656 66.285156 C 405.277344 65.394531 404.746094 64.414062 403.945312 63.164062 C 403.765625 62.808594 403.765625 62.363281 404.035156 62.097656 C 404.300781 61.828125 404.746094 61.742188 405.101562 62.007812 C 406.347656 62.71875 407.324219 63.34375 408.214844 63.789062 C 409.105469 62.363281 409.726562 60.316406 410.351562 57.554688 C 410.441406 57.109375 410.796875 56.84375 411.242188 56.84375 C 411.683594 56.84375 412.039062 57.109375 412.128906 57.554688 C 412.753906 60.40625 413.375 62.363281 414.265625 63.789062 C 415.15625 63.34375 416.132812 62.808594 417.378906 62.007812 C 417.734375 61.828125 418.179688 61.828125 418.445312 62.097656 C 418.714844 62.363281 418.804688 62.808594 418.535156 63.164062 C 417.824219 64.414062 417.203125 65.394531 416.757812 66.285156 C 418.179688 67.175781 420.226562 67.796875 422.984375 68.421875 C 423.429688 68.511719 423.695312 68.867188 423.695312 69.3125 C 423.695312 69.757812 423.429688 70.113281 422.984375 70.203125 C 420.136719 70.824219 418.179688 71.449219 416.757812 72.339844 C 417.289062 73.320312 417.824219 74.300781 418.535156 75.546875 Z M 404.65625 53.636719 L 404.390625 46.597656 C 404.390625 46.066406 404.746094 45.707031 405.277344 45.707031 C 405.722656 45.707031 406.167969 46.066406 406.167969 46.597656 L 406.4375 53.546875 C 406.4375 54.082031 406.078125 54.4375 405.546875 54.4375 C 405.101562 54.4375 404.65625 54.082031 404.65625 53.636719 Z M 404.121094 39.472656 L 404.035156 35.734375 C 404.035156 35.199219 404.390625 34.839844 404.921875 34.839844 C 405.367188 34.839844 405.8125 35.199219 405.8125 35.734375 L 405.902344 39.472656 C 405.902344 40.007812 405.546875 40.363281 405.011719 40.363281 C 404.566406 40.363281 404.210938 39.917969 404.121094 39.472656 Z M 403.675781 26.738281 L 403.320312 14.445312 C 403.320312 13.910156 403.675781 13.554688 404.210938 13.554688 C 404.746094 13.554688 405.101562 13.910156 405.101562 14.445312 L 405.546875 26.824219 C 405.546875 27.359375 405.191406 27.714844 404.65625 27.714844 C 404.121094 27.628906 403.765625 27.269531 403.675781 26.738281 Z M 403.945312 7.765625 C 403.5 7.765625 403.054688 7.410156 403.054688 6.875 L 402.789062 -0.0742188 C 402.789062 -0.609375 403.144531 -0.964844 403.675781 -0.964844 C 404.121094 -0.964844 404.566406 -0.609375 404.566406 -0.0742188 L 404.835938 6.875 C 404.835938 7.320312 404.390625 7.675781 403.945312 7.765625 Z M 417.914062 56.21875 L 418.890625 50.519531 C 418.980469 50.074219 419.425781 49.714844 419.960938 49.804688 C 420.402344 49.894531 420.761719 50.339844 420.671875 50.875 L 419.691406 56.574219 C 419.605469 57.019531 419.246094 57.289062 418.804688 57.289062 C 418.714844 57.289062 418.714844 57.289062 418.625 57.289062 C 418.179688 57.199219 417.824219 56.753906 417.914062 56.21875 Z M 420.761719 39.652344 L 422.804688 27.449219 C 422.894531 27.003906 423.339844 26.648438 423.875 26.738281 C 424.320312 26.824219 424.675781 27.269531 424.585938 27.804688 L 422.539062 40.007812 C 422.449219 40.453125 422.09375 40.71875 421.648438 40.71875 C 421.5625 40.71875 421.5625 40.71875 421.472656 40.71875 C 421.027344 40.632812 420.671875 40.097656 420.761719 39.652344 Z M 423.785156 21.660156 L 424.496094 17.652344 C 424.585938 17.207031 425.03125 16.851562 425.566406 16.9375 C 426.007812 17.027344 426.367188 17.472656 426.277344 18.007812 L 425.566406 22.015625 C 425.476562 22.460938 425.121094 22.726562 424.675781 22.726562 C 424.585938 22.726562 424.585938 22.726562 424.496094 22.726562 C 424.050781 22.640625 423.695312 22.195312 423.785156 21.660156 Z M 432.414062 -18.15625 L 428.234375 6.605469 C 428.144531 7.050781 427.789062 7.320312 427.34375 7.320312 C 427.253906 7.320312 427.253906 7.320312 427.167969 7.320312 C 426.722656 7.230469 426.367188 6.785156 426.453125 6.25 L 430.636719 -18.421875 C 430.726562 -18.867188 431.167969 -19.222656 431.703125 -19.132812 C 432.148438 -19.046875 432.503906 -18.601562 432.414062 -18.15625 Z M 484.019531 137.359375 C 483.839844 137.359375 483.574219 137.273438 483.394531 137.183594 L 473.429688 128.453125 C 473.074219 128.097656 472.984375 127.5625 473.34375 127.207031 C 473.699219 126.851562 474.230469 126.761719 474.585938 127.117188 L 484.550781 135.847656 C 484.910156 136.203125 484.996094 136.738281 484.640625 137.09375 C 484.464844 137.183594 484.285156 137.359375 484.019531 137.359375 Z M 466.492188 119.992188 C 466.847656 120.347656 466.9375 120.882812 466.582031 121.238281 C 466.402344 121.417969 466.136719 121.507812 465.867188 121.507812 C 465.691406 121.507812 465.421875 121.417969 465.246094 121.328125 L 454.65625 112.066406 C 454.300781 111.707031 454.214844 111.175781 454.570312 110.816406 C 454.925781 110.460938 455.457031 110.371094 455.816406 110.730469 Z M 450.210938 105.742188 C 450.566406 106.097656 450.65625 106.632812 450.296875 106.988281 C 450.121094 107.167969 449.855469 107.253906 449.585938 107.253906 C 449.410156 107.253906 449.140625 107.167969 448.964844 107.078125 L 432.238281 92.46875 C 431.882812 92.113281 431.792969 91.578125 432.148438 91.222656 C 432.503906 90.867188 433.039062 90.777344 433.394531 91.132812 Z M 426.988281 85.523438 C 427.34375 85.878906 427.433594 86.414062 427.078125 86.769531 C 426.898438 86.949219 426.632812 87.035156 426.367188 87.035156 C 426.1875 87.035156 425.921875 86.949219 425.742188 86.859375 L 420.9375 82.671875 C 420.582031 82.316406 420.492188 81.78125 420.847656 81.425781 C 421.203125 81.070312 421.738281 80.980469 422.09375 81.335938 Z M 535.890625 99.59375 L 525.566406 111.53125 C 525.390625 111.707031 525.125 111.796875 524.855469 111.796875 C 524.679688 111.796875 524.410156 111.707031 524.234375 111.621094 C 523.878906 111.261719 523.789062 110.730469 524.144531 110.371094 L 534.464844 98.4375 C 534.820312 98.082031 535.355469 97.992188 535.710938 98.347656 C 536.246094 98.703125 536.246094 99.238281 535.890625 99.59375 Z M 519.875 118.03125 L 516.492188 121.953125 C 516.316406 122.128906 516.046875 122.21875 515.78125 122.21875 C 515.601562 122.21875 515.335938 122.128906 515.160156 122.039062 C 514.800781 121.683594 514.714844 121.148438 515.070312 120.792969 L 518.449219 116.875 C 518.804688 116.519531 519.339844 116.429688 519.695312 116.785156 C 520.230469 117.140625 520.230469 117.675781 519.875 118.03125 Z M 507.0625 131.480469 C 506.707031 131.125 506.617188 130.589844 506.972656 130.234375 L 510.621094 126.050781 C 510.976562 125.691406 511.511719 125.605469 511.867188 125.960938 C 512.222656 126.316406 512.3125 126.851562 511.957031 127.207031 L 508.308594 131.394531 C 508.128906 131.570312 507.863281 131.660156 507.597656 131.660156 C 507.417969 131.75 507.238281 131.660156 507.0625 131.480469 Z M 588.914062 112.957031 C 588.558594 112.597656 588.46875 112.066406 588.828125 111.707031 C 589.183594 111.351562 589.714844 111.261719 590.070312 111.621094 L 593.273438 114.46875 C 593.632812 114.824219 593.71875 115.359375 593.363281 115.71875 C 593.1875 115.894531 592.917969 115.984375 592.652344 115.984375 C 592.472656 115.984375 592.207031 115.894531 592.03125 115.804688 Z M 575.390625 101.019531 C 575.035156 100.664062 574.945312 100.128906 575.304688 99.773438 C 575.660156 99.417969 576.191406 99.328125 576.546875 99.683594 L 585.535156 107.613281 C 585.890625 107.96875 585.980469 108.503906 585.625 108.859375 C 585.445312 109.035156 585.179688 109.125 584.910156 109.125 C 584.734375 109.125 584.46875 109.035156 584.289062 108.949219 Z M 570.675781 96.835938 L 567.027344 93.539062 C 566.671875 93.183594 566.582031 92.648438 566.941406 92.292969 C 567.296875 91.933594 567.828125 91.847656 568.183594 92.203125 L 571.832031 95.5 C 572.1875 95.855469 572.277344 96.390625 571.921875 96.746094 C 571.742188 96.921875 571.476562 97.011719 571.210938 97.011719 C 571.03125 97.101562 570.855469 97.011719 570.675781 96.835938 Z M 702.621094 72.429688 C 702.796875 72.875 702.621094 73.410156 702.175781 73.585938 L 673.082031 87.214844 C 672.992188 87.304688 672.816406 87.304688 672.726562 87.304688 C 672.371094 87.304688 672.101562 87.125 671.925781 86.769531 C 671.746094 86.324219 671.925781 85.789062 672.371094 85.613281 L 701.554688 71.984375 C 701.910156 71.714844 702.441406 71.984375 702.621094 72.429688 Z M 661.070312 91.757812 C 660.894531 91.3125 661.070312 90.777344 661.515625 90.597656 L 665.964844 88.550781 C 666.410156 88.371094 666.941406 88.550781 667.121094 88.996094 C 667.300781 89.441406 667.121094 89.976562 666.675781 90.152344 L 662.226562 92.203125 C 662.136719 92.292969 661.960938 92.292969 661.871094 92.292969 C 661.515625 92.292969 661.25 92.113281 661.070312 91.757812 Z M 633.132812 104.851562 C 632.957031 104.40625 633.132812 103.871094 633.578125 103.691406 L 657.421875 92.558594 C 657.867188 92.378906 658.402344 92.558594 658.578125 93.003906 C 658.757812 93.449219 658.578125 93.984375 658.136719 94.160156 L 634.289062 105.296875 C 634.203125 105.386719 634.023438 105.386719 633.933594 105.386719 C 633.578125 105.296875 633.3125 105.117188 633.132812 104.851562 Z M 614.09375 112.777344 L 623.347656 108.503906 C 623.792969 108.324219 624.324219 108.503906 624.503906 108.949219 C 624.683594 109.394531 624.503906 109.925781 624.058594 110.105469 L 614.804688 114.378906 C 614.71875 114.46875 614.539062 114.46875 614.449219 114.46875 C 614.09375 114.46875 613.828125 114.292969 613.648438 113.933594 C 613.382812 113.488281 613.648438 112.957031 614.09375 112.777344 Z M 702.175781 43.925781 C 701.820312 43.570312 701.820312 43.035156 702.085938 42.679688 C 702.441406 42.324219 702.976562 42.324219 703.332031 42.589844 L 710.359375 49.003906 C 710.71875 49.359375 710.71875 49.894531 710.449219 50.25 C 710.273438 50.429688 710.003906 50.519531 709.828125 50.519531 C 709.648438 50.519531 709.382812 50.429688 709.203125 50.25 Z M 693.101562 35.644531 C 692.746094 35.285156 692.746094 34.753906 693.011719 34.394531 C 693.367188 34.039062 693.902344 34.039062 694.257812 34.308594 L 697.816406 37.515625 C 698.171875 37.871094 698.171875 38.40625 697.90625 38.761719 C 697.726562 38.9375 697.460938 39.027344 697.28125 39.027344 C 697.105469 39.027344 696.835938 38.9375 696.660156 38.761719 Z M 687.226562 27.804688 L 690.964844 31.277344 C 691.320312 31.636719 691.320312 32.167969 691.054688 32.527344 C 690.875 32.703125 690.609375 32.792969 690.429688 32.792969 C 690.253906 32.792969 689.988281 32.703125 689.808594 32.527344 L 686.070312 29.050781 C 685.714844 28.695312 685.714844 28.160156 685.984375 27.804688 C 686.25 27.449219 686.785156 27.449219 687.226562 27.804688 Z M 720.148438 125.691406 C 720.148438 125.160156 720.503906 124.800781 721.039062 124.800781 C 721.570312 124.800781 721.925781 125.160156 721.925781 125.691406 L 721.925781 130.414062 C 721.925781 130.949219 721.570312 131.304688 721.039062 131.304688 C 720.503906 131.304688 720.148438 130.949219 720.148438 130.414062 Z M 720.148438 95.410156 C 720.148438 94.875 720.503906 94.519531 721.039062 94.519531 C 721.570312 94.519531 721.925781 94.875 721.925781 95.410156 L 721.925781 119.546875 C 721.925781 120.082031 721.570312 120.4375 721.039062 120.4375 C 720.503906 120.4375 720.148438 120.082031 720.148438 119.546875 Z M 720.148438 90.511719 L 720.148438 76.972656 C 720.148438 76.4375 720.503906 76.082031 721.039062 76.082031 C 721.570312 76.082031 721.925781 76.4375 721.925781 76.972656 L 721.925781 90.511719 C 721.925781 91.042969 721.570312 91.402344 721.039062 91.402344 C 720.503906 91.402344 720.148438 90.957031 720.148438 90.511719 Z M 615.25 196.503906 L 614.09375 188.84375 C 614.003906 188.398438 614.359375 187.863281 614.804688 187.863281 C 615.339844 187.773438 615.785156 188.128906 615.785156 188.574219 L 616.941406 196.234375 C 617.03125 196.679688 616.675781 197.214844 616.230469 197.214844 C 616.140625 197.214844 616.140625 197.214844 616.050781 197.214844 C 615.695312 197.304688 615.339844 196.949219 615.25 196.503906 Z M 613.292969 183.5 L 611.070312 168.980469 C 610.980469 168.535156 611.335938 168 611.78125 168 C 612.316406 167.910156 612.757812 168.269531 612.757812 168.714844 L 614.984375 183.230469 C 615.074219 183.675781 614.71875 184.210938 614.273438 184.210938 C 614.183594 184.210938 614.183594 184.210938 614.09375 184.210938 C 613.738281 184.210938 613.382812 183.945312 613.292969 183.5 Z M 610.269531 163.902344 L 609.558594 159.359375 C 609.46875 158.914062 609.824219 158.382812 610.269531 158.382812 C 610.800781 158.292969 611.246094 158.648438 611.246094 159.09375 L 611.957031 163.636719 C 612.046875 164.082031 611.691406 164.617188 611.246094 164.617188 C 611.160156 164.617188 611.160156 164.617188 611.070312 164.617188 C 610.714844 164.617188 610.359375 164.347656 610.269531 163.902344 Z M 607.867188 147.871094 L 605.195312 130.503906 C 605.109375 130.058594 605.464844 129.523438 605.910156 129.523438 C 606.441406 129.433594 606.886719 129.789062 606.886719 130.234375 L 609.558594 147.605469 C 609.644531 148.050781 609.289062 148.582031 608.84375 148.582031 C 608.757812 148.582031 608.757812 148.582031 608.667969 148.582031 C 608.3125 148.671875 607.957031 148.316406 607.867188 147.871094 Z M 581.976562 238.722656 L 569.519531 225.363281 C 569.164062 225.003906 569.164062 224.472656 569.519531 224.113281 C 569.875 223.757812 570.410156 223.757812 570.765625 224.113281 L 583.222656 237.476562 C 583.578125 237.832031 583.578125 238.367188 583.222656 238.722656 C 583.042969 238.898438 582.867188 238.988281 582.597656 238.988281 C 582.421875 238.988281 582.152344 238.898438 581.976562 238.722656 Z M 562.578125 215.207031 C 562.9375 215.5625 562.9375 216.097656 562.578125 216.453125 C 562.402344 216.632812 562.222656 216.722656 561.957031 216.722656 C 561.691406 216.722656 561.511719 216.632812 561.335938 216.453125 L 556.175781 210.933594 C 555.816406 210.574219 555.816406 210.042969 556.175781 209.683594 C 556.53125 209.328125 557.0625 209.328125 557.417969 209.683594 Z M 547.8125 199.351562 C 548.167969 199.710938 548.167969 200.242188 547.8125 200.601562 C 547.632812 200.777344 547.453125 200.867188 547.1875 200.867188 C 546.921875 200.867188 546.742188 200.777344 546.566406 200.601562 L 530.816406 183.765625 C 530.460938 183.410156 530.460938 182.875 530.816406 182.519531 C 531.171875 182.164062 531.707031 182.164062 532.0625 182.519531 Z M 525.125 175.039062 C 525.480469 175.394531 525.480469 175.929688 525.125 176.285156 C 524.945312 176.460938 524.765625 176.550781 524.5 176.550781 C 524.234375 176.550781 524.054688 176.460938 523.878906 176.285156 L 520.496094 172.632812 C 520.140625 172.277344 520.140625 171.742188 520.496094 171.386719 C 520.851562 171.027344 521.386719 171.027344 521.742188 171.386719 Z M 515.601562 164.882812 C 515.960938 165.238281 515.960938 165.773438 515.601562 166.128906 C 515.425781 166.308594 515.246094 166.398438 514.980469 166.398438 C 514.714844 166.398438 514.535156 166.308594 514.359375 166.128906 L 509.199219 160.609375 C 508.839844 160.25 508.839844 159.71875 509.199219 159.359375 C 509.554688 159.003906 510.085938 159.003906 510.441406 159.359375 Z M 604.394531 336.164062 L 603.328125 329.039062 C 603.238281 328.59375 603.59375 328.058594 604.039062 328.058594 C 604.484375 327.96875 605.019531 328.324219 605.019531 328.769531 L 606.085938 335.898438 C 606.175781 336.34375 605.820312 336.875 605.375 336.875 C 605.285156 336.875 605.285156 336.875 605.195312 336.875 C 604.839844 336.964844 604.394531 336.609375 604.394531 336.164062 Z M 603.152344 322.269531 C 603.0625 322.269531 603.0625 322.269531 602.972656 322.269531 C 602.527344 322.269531 602.171875 321.914062 602.082031 321.554688 L 599.859375 307.039062 C 599.769531 306.59375 600.125 306.058594 600.570312 306.058594 C 601.015625 305.96875 601.550781 306.324219 601.550781 306.769531 L 603.773438 321.289062 C 603.953125 321.734375 603.59375 322.179688 603.152344 322.269531 Z M 597.902344 294.300781 L 597.191406 289.582031 C 597.101562 289.136719 597.457031 288.601562 597.902344 288.601562 C 598.347656 288.601562 598.878906 288.867188 598.878906 289.3125 L 599.59375 294.035156 C 599.679688 294.480469 599.324219 295.015625 598.878906 295.015625 C 598.792969 295.015625 598.792969 295.015625 598.703125 295.015625 C 598.347656 295.015625 597.992188 294.746094 597.902344 294.300781 Z M 596.832031 281.03125 C 596.746094 281.03125 596.746094 281.03125 596.65625 281.03125 C 596.210938 281.03125 595.855469 280.671875 595.765625 280.316406 L 594.164062 269.628906 C 594.074219 269.183594 594.433594 268.648438 594.875 268.648438 C 595.320312 268.558594 595.855469 268.917969 595.855469 269.363281 L 597.457031 280.050781 C 597.632812 280.496094 597.277344 280.941406 596.832031 281.03125 Z M 702.621094 316.480469 C 702.796875 316.925781 702.621094 317.460938 702.175781 317.636719 L 684.914062 326.097656 C 684.828125 326.1875 684.648438 326.1875 684.558594 326.1875 C 684.203125 326.1875 683.9375 326.011719 683.757812 325.652344 C 683.582031 325.207031 683.757812 324.675781 684.203125 324.496094 L 701.464844 316.035156 C 701.910156 315.855469 702.441406 316.035156 702.621094 316.480469 Z M 678.953125 328.058594 C 679.132812 328.503906 678.953125 329.039062 678.507812 329.214844 L 663.207031 336.699219 C 663.117188 336.789062 662.9375 336.789062 662.851562 336.789062 C 662.496094 336.789062 662.226562 336.609375 662.050781 336.253906 C 661.871094 335.808594 662.050781 335.273438 662.496094 335.09375 L 677.796875 327.613281 C 678.152344 327.433594 678.6875 327.613281 678.953125 328.058594 Z M 656.800781 338.835938 C 656.976562 339.28125 656.800781 339.816406 656.355469 339.992188 L 654.132812 341.0625 C 654.042969 341.152344 653.863281 341.152344 653.773438 341.152344 C 653.417969 341.152344 653.152344 340.972656 652.976562 340.617188 C 652.796875 340.171875 652.976562 339.636719 653.417969 339.460938 L 655.644531 338.390625 C 656.089844 338.210938 656.621094 338.390625 656.800781 338.835938 Z M 649.414062 342.488281 C 649.59375 342.933594 649.414062 343.46875 648.972656 343.644531 L 639.628906 348.1875 C 639.539062 348.277344 639.363281 348.277344 639.273438 348.277344 C 638.917969 348.277344 638.648438 348.097656 638.472656 347.742188 C 638.292969 347.296875 638.472656 346.761719 638.917969 346.585938 L 648.257812 342.042969 C 648.703125 341.863281 649.238281 342.042969 649.414062 342.488281 Z M 632.867188 350.59375 C 633.046875 351.039062 632.867188 351.574219 632.421875 351.75 L 630.554688 352.640625 C 630.464844 352.730469 630.285156 352.730469 630.199219 352.730469 C 629.84375 352.730469 629.574219 352.554688 629.398438 352.195312 C 629.21875 351.75 629.398438 351.214844 629.84375 351.039062 L 631.710938 350.148438 C 632.15625 349.96875 632.6875 350.148438 632.867188 350.59375 Z M 636.871094 228.566406 C 637.226562 228.925781 637.226562 229.457031 636.960938 229.816406 C 636.78125 229.992188 636.515625 230.082031 636.335938 230.082031 C 636.160156 230.082031 635.890625 229.992188 635.714844 229.816406 L 632.246094 226.699219 C 631.886719 226.339844 631.886719 225.808594 632.15625 225.449219 C 632.511719 225.09375 633.046875 225.09375 633.402344 225.363281 Z M 640.519531 231.953125 L 648.527344 239.34375 C 648.882812 239.703125 648.882812 240.234375 648.613281 240.59375 C 648.4375 240.769531 648.171875 240.859375 647.992188 240.859375 C 647.8125 240.859375 647.546875 240.769531 647.371094 240.59375 L 639.363281 233.199219 C 639.007812 232.84375 639.007812 232.308594 639.273438 231.953125 C 639.539062 231.597656 640.164062 231.597656 640.519531 231.953125 Z M 674.238281 265.265625 L 658.402344 250.746094 C 658.046875 250.390625 658.046875 249.855469 658.3125 249.5 C 658.667969 249.144531 659.203125 249.144531 659.558594 249.410156 L 675.394531 263.929688 C 675.75 264.285156 675.75 264.820312 675.484375 265.175781 C 675.304688 265.355469 675.039062 265.441406 674.863281 265.441406 C 674.59375 265.53125 674.417969 265.441406 674.238281 265.265625 Z M 684.738281 274.972656 L 679.398438 270.074219 C 679.042969 269.71875 679.042969 269.183594 679.308594 268.828125 C 679.664062 268.472656 680.199219 268.472656 680.554688 268.738281 L 685.894531 273.636719 C 686.25 273.992188 686.25 274.527344 685.984375 274.882812 C 685.804688 275.0625 685.539062 275.152344 685.359375 275.152344 C 685.09375 275.152344 684.914062 275.0625 684.738281 274.972656 Z M 693.992188 281.03125 L 703.152344 289.402344 C 703.511719 289.757812 703.511719 290.292969 703.242188 290.648438 C 703.066406 290.828125 702.796875 290.917969 702.621094 290.917969 C 702.441406 290.917969 702.175781 290.828125 701.996094 290.648438 L 692.832031 282.277344 C 692.476562 281.921875 692.476562 281.386719 692.746094 281.03125 C 693.011719 280.761719 693.632812 280.671875 693.992188 281.03125 Z M 438.820312 240.234375 C 434.640625 240.234375 431.167969 243.710938 431.167969 247.894531 C 431.167969 252.082031 434.640625 255.554688 438.820312 255.554688 C 443.003906 255.554688 446.472656 252.082031 446.472656 247.894531 C 446.472656 243.710938 443.09375 240.234375 438.820312 240.234375 Z M 438.820312 253.863281 C 435.617188 253.863281 432.949219 251.191406 432.949219 247.984375 C 432.949219 244.777344 435.617188 242.105469 438.820312 242.105469 C 442.023438 242.105469 444.695312 244.777344 444.695312 247.984375 C 444.695312 251.191406 442.113281 253.863281 438.820312 253.863281 Z M 521.207031 286.550781 C 519.164062 286.550781 517.472656 288.246094 517.472656 290.292969 C 517.472656 292.339844 519.164062 294.035156 521.207031 294.035156 C 523.253906 294.035156 524.945312 292.339844 524.945312 290.292969 C 524.945312 288.246094 523.253906 286.550781 521.207031 286.550781 Z M 521.207031 292.253906 C 520.140625 292.253906 519.25 291.363281 519.25 290.292969 C 519.25 289.222656 520.140625 288.332031 521.207031 288.332031 C 522.277344 288.332031 523.164062 289.222656 523.164062 290.292969 C 523.164062 291.363281 522.277344 292.253906 521.207031 292.253906 Z M 737.40625 236.851562 C 734.117188 236.851562 731.445312 239.523438 731.445312 242.820312 C 731.445312 246.113281 734.117188 248.785156 737.40625 248.785156 C 740.699219 248.785156 743.371094 246.113281 743.371094 242.820312 C 743.371094 239.523438 740.699219 236.851562 737.40625 236.851562 Z M 737.40625 247.003906 C 735.09375 247.003906 733.226562 245.136719 733.226562 242.820312 C 733.226562 240.503906 735.09375 238.632812 737.40625 238.632812 C 739.722656 238.632812 741.589844 240.503906 741.589844 242.820312 C 741.589844 245.136719 739.722656 247.003906 737.40625 247.003906 Z M 613.292969 6.429688 C 617.742188 6.429688 621.390625 2.777344 621.390625 -1.675781 C 621.390625 -6.128906 617.742188 -9.78125 613.292969 -9.78125 C 608.84375 -9.78125 605.195312 -6.128906 605.195312 -1.675781 C 605.195312 2.777344 608.84375 6.429688 613.292969 6.429688 Z M 613.292969 -7.910156 C 616.761719 -7.910156 619.609375 -5.0625 619.609375 -1.585938 C 619.609375 1.886719 616.761719 4.734375 613.292969 4.734375 C 609.824219 4.734375 606.976562 1.886719 606.976562 -1.585938 C 606.976562 -5.0625 609.824219 -7.910156 613.292969 -7.910156 Z M 536.511719 25.578125 C 536.511719 23.976562 537.847656 22.640625 539.449219 22.640625 C 541.050781 22.640625 542.382812 23.976562 542.382812 25.578125 C 542.382812 27.183594 541.050781 28.519531 539.449219 28.519531 C 537.757812 28.429688 536.511719 27.183594 536.511719 25.578125 Z M 457.238281 171.742188 C 457.238281 173.34375 455.902344 174.679688 454.300781 174.679688 C 452.699219 174.679688 451.367188 173.34375 451.367188 171.742188 C 451.367188 170.136719 452.699219 168.800781 454.300781 168.800781 C 455.992188 168.800781 457.238281 170.136719 457.238281 171.742188 Z M 668.902344 144.398438 C 670.945312 144.398438 672.636719 146.089844 672.636719 148.136719 C 672.636719 150.1875 670.945312 151.878906 668.902344 151.878906 C 666.855469 151.878906 665.164062 150.1875 665.164062 148.136719 C 665.164062 146.089844 666.855469 144.398438 668.902344 144.398438 Z M 491.3125 338.035156 C 491.3125 340.082031 489.710938 341.6875 487.667969 341.6875 C 485.621094 341.6875 484.019531 340.082031 484.019531 338.035156 C 484.019531 335.984375 485.621094 334.382812 487.667969 334.382812 C 489.710938 334.382812 491.3125 335.984375 491.3125 338.035156 Z M 491.3125 338.035156"/></g><g clip-path="url(#b)"><path fill="#FFF" d="M 480.851562 293.851562 C 447.632812 286.03125 441.425781 279.902344 433.667969 246.730469 C 433.597656 246.375 433.3125 246.164062 432.960938 246.164062 C 432.609375 246.164062 432.328125 246.375 432.257812 246.730469 C 424.425781 279.902344 418.289062 286.101562 385.070312 293.851562 C 384.71875 293.921875 384.503906 294.203125 384.503906 294.554688 C 384.503906 294.90625 384.71875 295.1875 385.070312 295.257812 C 418.289062 303.078125 424.496094 309.203125 432.257812 342.378906 C 432.328125 342.730469 432.609375 342.941406 432.960938 342.941406 C 433.3125 342.941406 433.597656 342.730469 433.667969 342.378906 C 441.496094 309.203125 447.632812 303.007812 480.851562 295.257812 C 481.207031 295.1875 481.417969 294.90625 481.417969 294.554688 C 481.417969 294.203125 481.207031 293.921875 480.851562 293.851562 Z M 432.960938 339.210938 C 425.554688 309.0625 418.433594 301.949219 388.242188 294.554688 C 418.433594 287.160156 425.554688 280.042969 432.960938 249.898438 C 440.367188 280.042969 447.492188 287.160156 477.679688 294.554688 C 447.492188 301.949219 440.367188 309.0625 432.960938 339.210938 Z M 606.050781 372.878906 C 584.605469 367.804688 580.585938 363.863281 575.578125 342.449219 C 575.507812 342.097656 575.226562 341.886719 574.875 341.886719 C 574.519531 341.886719 574.238281 342.097656 574.167969 342.449219 C 569.089844 363.863281 565.140625 367.878906 543.699219 372.878906 C 543.34375 372.949219 543.132812 373.230469 543.132812 373.582031 C 543.132812 373.933594 543.34375 374.214844 543.699219 374.285156 C 565.140625 379.359375 569.160156 383.300781 574.167969 404.714844 C 574.238281 405.066406 574.519531 405.277344 574.875 405.277344 C 575.226562 405.277344 575.507812 405.066406 575.578125 404.714844 C 580.65625 383.300781 584.605469 379.289062 606.050781 374.285156 C 606.402344 374.214844 606.613281 373.933594 606.613281 373.582031 C 606.613281 373.230469 606.332031 372.949219 606.050781 372.878906 Z M 574.875 401.546875 C 570.21875 382.949219 565.492188 378.230469 546.871094 373.582031 C 565.492188 368.933594 570.21875 364.214844 574.875 345.621094 C 579.527344 364.214844 584.253906 368.933594 602.875 373.582031 C 584.253906 378.230469 579.527344 382.949219 574.875 401.546875 Z M 524.65625 250.601562 C 524.65625 250.953125 524.9375 251.238281 525.289062 251.308594 L 545.742188 253.914062 L 548.351562 274.339844 C 548.425781 274.691406 548.707031 274.972656 549.058594 274.972656 C 549.410156 274.972656 549.695312 274.691406 549.765625 274.339844 L 552.375 253.914062 L 572.828125 251.308594 C 573.179688 251.238281 573.464844 250.953125 573.464844 250.601562 C 573.464844 250.25 573.179688 249.96875 572.828125 249.898438 L 552.375 247.292969 L 549.765625 226.9375 C 549.695312 226.585938 549.410156 226.304688 549.058594 226.304688 C 548.707031 226.304688 548.425781 226.585938 548.351562 226.9375 L 545.742188 247.292969 L 525.289062 249.96875 C 524.9375 249.96875 524.65625 250.25 524.65625 250.601562 Z M 546.449219 248.558594 C 546.800781 248.488281 547.011719 248.277344 547.082031 247.925781 L 549.058594 232.429688 L 551.035156 247.925781 C 551.105469 248.277344 551.316406 248.488281 551.667969 248.558594 L 567.1875 250.53125 L 551.667969 252.503906 C 551.316406 252.574219 551.105469 252.785156 551.035156 253.136719 L 549.058594 268.703125 L 547.082031 253.136719 C 547.011719 252.785156 546.800781 252.574219 546.449219 252.503906 L 530.933594 250.53125 Z M 392.617188 173.6875 L 407.5 175.589844 L 409.402344 190.453125 C 409.472656 190.804688 409.757812 191.085938 410.109375 191.085938 C 410.460938 191.085938 410.742188 190.804688 410.8125 190.453125 L 412.71875 175.589844 L 427.601562 173.6875 C 427.953125 173.617188 428.234375 173.335938 428.234375 172.984375 C 428.234375 172.632812 427.953125 172.351562 427.601562 172.277344 L 412.71875 170.378906 L 410.8125 155.585938 C 410.742188 155.234375 410.460938 154.953125 410.109375 154.953125 C 409.757812 154.953125 409.472656 155.234375 409.402344 155.585938 L 407.5 170.378906 L 392.617188 172.277344 C 392.265625 172.351562 391.980469 172.632812 391.980469 172.984375 C 391.980469 173.335938 392.265625 173.617188 392.617188 173.6875 Z M 408.203125 171.644531 C 408.488281 171.574219 408.769531 171.363281 408.839844 171.011719 L 410.109375 161.082031 L 411.378906 171.011719 C 411.449219 171.363281 411.660156 171.574219 412.011719 171.644531 L 421.957031 172.984375 L 412.011719 174.25 C 411.660156 174.320312 411.449219 174.53125 411.378906 174.886719 L 410.109375 184.886719 L 408.839844 174.886719 C 408.769531 174.53125 408.558594 174.320312 408.203125 174.25 L 398.257812 172.984375 Z M 472.179688 390.203125 L 453.488281 387.808594 L 451.089844 369.144531 C 451.019531 368.792969 450.734375 368.511719 450.382812 368.511719 C 450.03125 368.511719 449.75 368.792969 449.679688 369.144531 L 447.210938 387.808594 L 428.449219 390.273438 C 428.09375 390.347656 427.8125 390.628906 427.8125 390.980469 C 427.8125 391.332031 428.09375 391.613281 428.449219 391.683594 L 447.210938 394.007812 L 449.605469 412.742188 C 449.679688 413.097656 449.960938 413.378906 450.3125 413.378906 C 450.664062 413.378906 450.949219 413.097656 451.019531 412.742188 L 453.417969 394.007812 L 472.179688 391.613281 C 472.53125 391.542969 472.8125 391.261719 472.8125 390.910156 C 472.8125 390.558594 472.53125 390.273438 472.179688 390.203125 Z M 452.710938 392.671875 C 452.359375 392.742188 452.148438 392.953125 452.074219 393.304688 L 450.3125 407.179688 L 448.550781 393.304688 C 448.480469 392.953125 448.265625 392.742188 447.914062 392.671875 L 434.089844 390.910156 L 447.914062 389.078125 C 448.195312 389.007812 448.480469 388.796875 448.550781 388.445312 L 450.3125 374.640625 L 452.074219 388.445312 C 452.148438 388.796875 452.359375 389.007812 452.710938 389.078125 L 466.535156 390.839844 Z M 492.5625 208.058594 C 489.882812 209.1875 486.847656 210.878906 483.109375 213.132812 C 482.828125 213.273438 482.476562 213.273438 482.265625 213.0625 C 482.050781 212.851562 481.980469 212.496094 482.195312 212.214844 C 484.449219 208.554688 486.144531 205.523438 487.273438 202.777344 C 483.25 200.101562 477.75 198.339844 469.640625 196.4375 C 469.285156 196.367188 469.074219 196.085938 469.074219 195.734375 C 469.074219 195.382812 469.285156 195.101562 469.640625 195.03125 C 477.75 193.128906 483.320312 191.367188 487.273438 188.691406 C 486.144531 186.015625 484.449219 182.984375 482.195312 179.253906 C 482.050781 178.96875 482.050781 178.617188 482.265625 178.40625 C 482.476562 178.195312 482.828125 178.125 483.109375 178.335938 C 486.777344 180.589844 489.8125 182.28125 492.5625 183.40625 C 495.242188 179.394531 497.003906 173.898438 498.910156 165.800781 C 498.980469 165.445312 499.261719 165.234375 499.613281 165.234375 C 499.96875 165.234375 500.25 165.445312 500.320312 165.800781 C 502.226562 173.898438 503.988281 179.464844 506.667969 183.40625 C 509.347656 182.28125 512.382812 180.589844 516.121094 178.335938 C 516.402344 178.195312 516.753906 178.195312 516.964844 178.40625 C 517.179688 178.617188 517.25 178.96875 517.035156 179.253906 C 514.78125 182.914062 513.085938 185.945312 511.957031 188.691406 C 515.980469 191.367188 521.480469 193.128906 529.589844 195.03125 C 529.945312 195.101562 530.15625 195.382812 530.15625 195.734375 C 530.15625 196.085938 529.945312 196.367188 529.589844 196.4375 C 521.480469 198.339844 515.910156 200.101562 511.957031 202.777344 C 513.085938 205.453125 514.78125 208.484375 517.035156 212.214844 C 517.179688 212.496094 517.179688 212.851562 516.964844 213.0625 C 516.824219 213.203125 516.683594 213.273438 516.472656 213.273438 C 516.332031 213.273438 516.191406 213.273438 516.121094 213.203125 C 512.453125 210.949219 509.417969 209.257812 506.667969 208.128906 C 503.988281 212.144531 502.226562 217.640625 500.320312 225.738281 C 500.25 226.089844 499.96875 226.304688 499.613281 226.304688 C 499.261719 226.304688 498.980469 226.089844 498.910156 225.738281 C 497.003906 217.570312 495.242188 212.003906 492.5625 208.058594 Z M 463.21875 132.34375 C 468.15625 132.34375 472.105469 128.328125 472.105469 123.46875 C 472.105469 118.609375 468.15625 114.523438 463.21875 114.523438 C 458.28125 114.523438 454.332031 118.539062 454.332031 123.398438 C 454.332031 128.257812 458.28125 132.34375 463.21875 132.34375 Z M 463.21875 115.929688 C 467.382812 115.929688 470.695312 119.3125 470.695312 123.398438 C 470.695312 127.554688 467.3125 130.863281 463.21875 130.863281 C 459.058594 130.863281 455.742188 127.484375 455.742188 123.398438 C 455.742188 119.3125 459.058594 115.929688 463.21875 115.929688 Z M 617.121094 278.777344 C 611.058594 278.777344 606.121094 283.707031 606.121094 289.765625 C 606.121094 295.820312 611.058594 300.753906 617.121094 300.753906 C 623.1875 300.753906 628.125 295.820312 628.125 289.765625 C 628.125 283.707031 623.1875 278.777344 617.121094 278.777344 Z M 617.121094 299.34375 C 611.832031 299.34375 607.53125 295.046875 607.53125 289.765625 C 607.53125 284.480469 611.832031 280.183594 617.121094 280.183594 C 622.414062 280.183594 626.714844 284.480469 626.714844 289.765625 C 626.714844 295.046875 622.414062 299.34375 617.121094 299.34375 Z M 507.867188 411.96875 C 502.578125 411.96875 498.273438 416.265625 498.273438 421.546875 C 498.273438 426.832031 502.578125 431.128906 507.867188 431.128906 C 513.15625 431.128906 517.460938 426.832031 517.460938 421.546875 C 517.460938 416.265625 513.15625 411.96875 507.867188 411.96875 Z M 507.867188 429.71875 C 503.351562 429.71875 499.6875 426.054688 499.6875 421.546875 C 499.6875 417.039062 503.351562 413.378906 507.867188 413.378906 C 512.382812 413.378906 516.050781 417.039062 516.050781 421.546875 C 516.050781 426.054688 512.382812 429.71875 507.867188 429.71875 Z M 535.234375 322.796875 C 535.234375 326.53125 532.203125 329.488281 528.535156 329.488281 C 524.796875 329.488281 521.832031 326.460938 521.832031 322.796875 C 521.832031 319.066406 524.867188 316.105469 528.535156 316.105469 C 532.273438 316.105469 535.234375 319.136719 535.234375 322.796875 Z M 570.359375 153.050781 C 570.359375 149.316406 573.390625 146.359375 577.058594 146.359375 C 580.796875 146.359375 583.761719 149.386719 583.761719 153.050781 C 583.761719 156.785156 580.726562 159.742188 577.058594 159.742188 C 573.390625 159.742188 570.359375 156.714844 570.359375 153.050781 Z M 570.359375 153.050781"/></g></svg>