<svg xmlns="http://www.w3.org/2000/svg" width="1012.5" viewBox="0 0 1012.5 487.5" height="487.5" version="1.0"><defs><clipPath id="a"><path d="M 431.480469 109.628906 L 580.652344 109.628906 L 580.652344 304.523438 L 431.480469 304.523438 Z M 431.480469 109.628906"/></clipPath></defs><g clip-path="url(#a)"><path fill="#FFF" d="M 490.476562 220 C 470.132812 215.195312 466.332031 211.429688 461.582031 191.035156 C 461.539062 190.820312 461.367188 190.691406 461.152344 190.691406 C 460.933594 190.691406 460.761719 190.820312 460.71875 191.035156 C 455.925781 211.429688 452.167969 215.238281 431.824219 220 C 431.609375 220.042969 431.480469 220.214844 431.480469 220.433594 C 431.480469 220.648438 431.609375 220.824219 431.824219 220.867188 C 452.167969 225.671875 455.96875 229.4375 460.71875 249.828125 C 460.761719 250.046875 460.933594 250.175781 461.152344 250.175781 C 461.367188 250.175781 461.539062 250.046875 461.582031 249.828125 C 466.375 229.4375 470.132812 225.628906 490.476562 220.867188 C 490.691406 220.824219 490.820312 220.648438 490.820312 220.433594 C 490.820312 220.214844 490.691406 220.042969 490.476562 220 Z M 461.152344 247.878906 C 456.617188 229.351562 452.253906 224.980469 433.769531 220.433594 C 452.253906 215.886719 456.617188 211.515625 461.152344 192.984375 C 465.683594 211.515625 470.046875 215.886719 488.53125 220.433594 C 470.046875 224.980469 465.683594 229.351562 461.152344 247.878906 Z M 567.132812 268.574219 C 554.003906 265.457031 551.542969 263.03125 548.476562 249.871094 C 548.433594 249.65625 548.261719 249.527344 548.042969 249.527344 C 547.828125 249.527344 547.65625 249.65625 547.613281 249.871094 C 544.503906 263.03125 542.085938 265.5 528.957031 268.574219 C 528.738281 268.617188 528.609375 268.792969 528.609375 269.007812 C 528.609375 269.222656 528.738281 269.398438 528.957031 269.441406 C 542.085938 272.558594 544.546875 274.980469 547.613281 288.144531 C 547.65625 288.359375 547.828125 288.488281 548.042969 288.488281 C 548.261719 288.488281 548.433594 288.359375 548.476562 288.144531 C 551.585938 274.980469 554.003906 272.515625 567.132812 269.441406 C 567.347656 269.398438 567.480469 269.222656 567.480469 269.007812 C 567.480469 268.792969 567.304688 268.617188 567.132812 268.574219 Z M 548.042969 286.195312 C 545.195312 274.765625 542.300781 271.863281 530.898438 269.007812 C 542.300781 266.148438 545.195312 263.25 548.042969 251.820312 C 550.894531 263.25 553.789062 266.148438 565.191406 269.007812 C 553.789062 271.863281 550.894531 274.765625 548.042969 286.195312 Z M 517.292969 193.417969 C 517.292969 193.632812 517.46875 193.808594 517.683594 193.851562 L 530.207031 195.453125 L 531.804688 208.007812 C 531.847656 208.222656 532.023438 208.398438 532.238281 208.398438 C 532.453125 208.398438 532.625 208.222656 532.667969 208.007812 L 534.265625 195.453125 L 546.792969 193.851562 C 547.007812 193.808594 547.179688 193.632812 547.179688 193.417969 C 547.179688 193.203125 547.007812 193.027344 546.792969 192.984375 L 534.265625 191.382812 L 532.667969 178.871094 C 532.625 178.65625 532.453125 178.480469 532.238281 178.480469 C 532.023438 178.480469 531.847656 178.65625 531.804688 178.871094 L 530.207031 191.382812 L 517.683594 193.027344 C 517.46875 193.027344 517.292969 193.203125 517.292969 193.417969 Z M 530.640625 192.164062 C 530.855469 192.121094 530.984375 191.988281 531.027344 191.773438 L 532.238281 182.25 L 533.445312 191.773438 C 533.488281 191.988281 533.621094 192.121094 533.835938 192.164062 L 543.335938 193.375 L 533.835938 194.585938 C 533.621094 194.628906 533.488281 194.761719 533.445312 194.976562 L 532.238281 204.542969 L 531.027344 194.976562 C 530.984375 194.761719 530.855469 194.628906 530.640625 194.585938 L 521.136719 193.375 Z M 436.445312 146.140625 L 445.558594 147.3125 L 446.726562 156.445312 C 446.769531 156.664062 446.941406 156.835938 447.15625 156.835938 C 447.375 156.835938 447.546875 156.664062 447.589844 156.445312 L 448.753906 147.3125 L 457.867188 146.140625 C 458.085938 146.097656 458.257812 145.925781 458.257812 145.710938 C 458.257812 145.492188 458.085938 145.320312 457.867188 145.277344 L 448.753906 144.109375 L 447.589844 135.015625 C 447.546875 134.800781 447.375 134.625 447.15625 134.625 C 446.941406 134.625 446.769531 134.800781 446.726562 135.015625 L 445.558594 144.109375 L 436.445312 145.277344 C 436.230469 145.320312 436.058594 145.492188 436.058594 145.710938 C 436.058594 145.925781 436.230469 146.097656 436.445312 146.140625 Z M 445.992188 144.886719 C 446.164062 144.84375 446.335938 144.714844 446.378906 144.496094 L 447.15625 138.394531 L 447.933594 144.496094 C 447.976562 144.714844 448.109375 144.84375 448.324219 144.886719 L 454.414062 145.710938 L 448.324219 146.488281 C 448.109375 146.53125 447.976562 146.660156 447.933594 146.878906 L 447.15625 153.027344 L 446.378906 146.878906 C 446.335938 146.660156 446.207031 146.53125 445.992188 146.488281 L 439.902344 145.710938 Z M 485.164062 279.226562 L 473.71875 277.753906 L 472.25 266.28125 C 472.207031 266.0625 472.035156 265.890625 471.816406 265.890625 C 471.601562 265.890625 471.429688 266.0625 471.386719 266.28125 L 469.875 277.753906 L 458.386719 279.269531 C 458.171875 279.3125 457.996094 279.484375 457.996094 279.699219 C 457.996094 279.917969 458.171875 280.089844 458.386719 280.132812 L 469.875 281.5625 L 471.34375 293.078125 C 471.386719 293.296875 471.558594 293.46875 471.773438 293.46875 C 471.992188 293.46875 472.164062 293.296875 472.207031 293.078125 L 473.675781 281.5625 L 485.164062 280.089844 C 485.378906 280.046875 485.550781 279.875 485.550781 279.65625 C 485.550781 279.441406 485.378906 279.269531 485.164062 279.226562 Z M 473.242188 280.738281 C 473.027344 280.785156 472.898438 280.914062 472.855469 281.128906 L 471.773438 289.660156 L 470.695312 281.128906 C 470.652344 280.914062 470.523438 280.785156 470.304688 280.738281 L 461.839844 279.65625 L 470.304688 278.53125 C 470.480469 278.488281 470.652344 278.359375 470.695312 278.140625 L 471.773438 269.65625 L 472.855469 278.140625 C 472.898438 278.359375 473.027344 278.488281 473.242188 278.53125 L 481.707031 279.613281 Z M 497.644531 167.269531 C 496.003906 167.960938 494.144531 169 491.855469 170.386719 C 491.683594 170.472656 491.46875 170.472656 491.339844 170.34375 C 491.210938 170.214844 491.167969 169.996094 491.296875 169.824219 C 492.675781 167.574219 493.714844 165.710938 494.40625 164.023438 C 491.945312 162.378906 488.574219 161.292969 483.609375 160.125 C 483.390625 160.082031 483.261719 159.910156 483.261719 159.691406 C 483.261719 159.476562 483.390625 159.304688 483.609375 159.261719 C 488.574219 158.089844 491.988281 157.007812 494.40625 155.363281 C 493.714844 153.71875 492.675781 151.855469 491.296875 149.5625 C 491.210938 149.390625 491.210938 149.171875 491.339844 149.042969 C 491.46875 148.914062 491.683594 148.871094 491.855469 149 C 494.101562 150.386719 495.960938 151.425781 497.644531 152.117188 C 499.285156 149.648438 500.363281 146.273438 501.53125 141.292969 C 501.574219 141.078125 501.746094 140.945312 501.964844 140.945312 C 502.179688 140.945312 502.351562 141.078125 502.394531 141.292969 C 503.5625 146.273438 504.640625 149.691406 506.28125 152.117188 C 507.921875 151.425781 509.78125 150.386719 512.070312 149 C 512.242188 148.914062 512.457031 148.914062 512.585938 149.042969 C 512.71875 149.171875 512.761719 149.390625 512.628906 149.5625 C 511.25 151.8125 510.210938 153.675781 509.519531 155.363281 C 511.984375 157.007812 515.351562 158.089844 520.316406 159.261719 C 520.535156 159.304688 520.664062 159.476562 520.664062 159.691406 C 520.664062 159.910156 520.535156 160.082031 520.316406 160.125 C 515.351562 161.292969 511.941406 162.378906 509.519531 164.023438 C 510.210938 165.667969 511.25 167.527344 512.628906 169.824219 C 512.71875 169.996094 512.71875 170.214844 512.585938 170.34375 C 512.5 170.429688 512.414062 170.472656 512.285156 170.472656 C 512.199219 170.472656 512.113281 170.472656 512.070312 170.429688 C 509.824219 169.042969 507.964844 168.003906 506.28125 167.3125 C 504.640625 169.78125 503.5625 173.15625 502.394531 178.136719 C 502.351562 178.351562 502.179688 178.480469 501.964844 178.480469 C 501.746094 178.480469 501.574219 178.351562 501.53125 178.136719 C 500.363281 173.113281 499.285156 169.695312 497.644531 167.269531 Z M 479.679688 120.730469 C 482.703125 120.730469 485.121094 118.261719 485.121094 115.273438 C 485.121094 112.289062 482.703125 109.777344 479.679688 109.777344 C 476.65625 109.777344 474.238281 112.242188 474.238281 115.230469 C 474.238281 118.21875 476.65625 120.730469 479.679688 120.730469 Z M 479.679688 110.640625 C 482.226562 110.640625 484.257812 112.71875 484.257812 115.230469 C 484.257812 117.785156 482.183594 119.820312 479.679688 119.820312 C 477.128906 119.820312 475.101562 117.742188 475.101562 115.230469 C 475.101562 112.71875 477.128906 110.640625 479.679688 110.640625 Z M 573.914062 210.734375 C 570.199219 210.734375 567.175781 213.765625 567.175781 217.488281 C 567.175781 221.210938 570.199219 224.242188 573.914062 224.242188 C 577.628906 224.242188 580.652344 221.210938 580.652344 217.488281 C 580.652344 213.765625 577.628906 210.734375 573.914062 210.734375 Z M 573.914062 223.375 C 570.675781 223.375 568.039062 220.734375 568.039062 217.488281 C 568.039062 214.242188 570.675781 211.601562 573.914062 211.601562 C 577.152344 211.601562 579.789062 214.242188 579.789062 217.488281 C 579.789062 220.734375 577.152344 223.375 573.914062 223.375 Z M 507.015625 292.601562 C 503.777344 292.601562 501.140625 295.242188 501.140625 298.488281 C 501.140625 301.738281 503.777344 304.378906 507.015625 304.378906 C 510.253906 304.378906 512.890625 301.738281 512.890625 298.488281 C 512.890625 295.242188 510.253906 292.601562 507.015625 292.601562 Z M 507.015625 303.511719 C 504.253906 303.511719 502.007812 301.261719 502.007812 298.488281 C 502.007812 295.71875 504.253906 293.46875 507.015625 293.46875 C 509.78125 293.46875 512.027344 295.71875 512.027344 298.488281 C 512.027344 301.261719 509.78125 303.511719 507.015625 303.511719 Z M 523.773438 237.792969 C 523.773438 240.089844 521.914062 241.90625 519.671875 241.90625 C 517.382812 241.90625 515.566406 240.042969 515.566406 237.792969 C 515.566406 235.5 517.425781 233.679688 519.671875 233.679688 C 521.960938 233.679688 523.773438 235.542969 523.773438 237.792969 Z M 545.28125 133.457031 C 545.28125 131.164062 547.136719 129.34375 549.382812 129.34375 C 551.671875 129.34375 553.484375 131.207031 553.484375 133.457031 C 553.484375 135.753906 551.628906 137.570312 549.382812 137.570312 C 547.136719 137.570312 545.28125 135.707031 545.28125 133.457031 Z M 545.28125 133.457031"/></g></svg>