<svg xmlns="http://www.w3.org/2000/svg" width="1012.5" viewBox="0 0 1012.5 487.5" height="487.5" version="1.0"><defs><clipPath id="a"><path d="M 405.523438 65.539062 L 568.9375 65.539062 L 568.9375 374.375 L 405.523438 374.375 Z M 405.523438 65.539062"/></clipPath></defs><g clip-path="url(#a)"><path fill="#FFF" d="M 568.734375 353.691406 C 568.734375 352.496094 567.539062 351.097656 558.757812 349.570312 L 558.757812 315.121094 C 558.757812 278.210938 539.339844 245.625 508.148438 230.132812 C 499.96875 226.074219 495.710938 221.6875 495.578125 217.164062 C 495.378906 210.847656 503.09375 205.726562 506.417969 203.796875 C 511.738281 200.671875 516.992188 197.011719 522.046875 192.757812 C 542.53125 175.535156 551.375 159.507812 555.300781 149.066406 C 559.492188 137.761719 558.824219 130.578125 558.824219 130.3125 L 558.824219 89.746094 C 568.800781 88.015625 568.800781 86.355469 568.800781 85.621094 L 568.800781 73.519531 C 568.800781 72.523438 568.800781 69.863281 544.527344 67.667969 C 529.230469 66.269531 508.878906 65.539062 487.265625 65.539062 C 465.652344 65.539062 445.234375 66.269531 429.9375 67.667969 C 405.664062 69.929688 405.664062 72.523438 405.664062 73.519531 L 405.664062 85.621094 C 405.664062 86.355469 405.664062 88.082031 416.371094 89.878906 L 416.371094 130.378906 C 416.304688 130.976562 415.769531 138.09375 419.894531 149.132812 C 426.878906 167.953125 441.839844 183.246094 453.148438 192.824219 C 458.203125 197.082031 463.457031 200.804688 468.777344 203.863281 C 472.101562 205.792969 479.816406 210.980469 479.617188 217.230469 C 479.484375 221.753906 475.226562 226.140625 467.046875 230.199219 C 435.855469 245.691406 416.4375 278.210938 416.4375 315.1875 L 416.4375 349.503906 C 406.992188 350.964844 405.664062 352.429688 405.664062 353.691406 L 405.664062 366.394531 C 405.664062 367.390625 405.664062 370.050781 429.9375 372.246094 C 445.234375 373.644531 465.585938 374.375 487.199219 374.375 C 508.8125 374.375 529.164062 373.644531 544.460938 372.246094 C 568.734375 370.050781 568.734375 367.390625 568.734375 366.394531 Z M 567.40625 353.691406 C 567.40625 353.824219 566.804688 355.023438 558.757812 356.417969 L 558.757812 350.898438 C 567.003906 352.363281 567.40625 353.558594 567.40625 353.691406 Z M 430.070312 68.996094 C 445.300781 67.601562 465.585938 66.867188 487.199219 66.867188 C 508.8125 66.867188 529.097656 67.601562 544.328125 68.996094 C 567.136719 71.058594 567.40625 73.519531 567.40625 73.519531 C 567.40625 73.519531 567.136719 75.980469 544.328125 78.042969 C 529.097656 79.4375 508.8125 80.167969 487.199219 80.167969 C 465.585938 80.167969 445.300781 79.4375 430.070312 78.042969 C 407.257812 75.980469 406.992188 73.585938 406.992188 73.519531 C 406.992188 73.453125 407.257812 71.058594 430.070312 68.996094 Z M 406.992188 85.621094 L 406.992188 75.25 C 409.1875 76.445312 414.90625 77.976562 429.9375 79.371094 C 445.234375 80.769531 465.585938 81.5 487.199219 81.5 C 508.8125 81.5 529.164062 80.769531 544.460938 79.371094 C 559.558594 77.976562 565.277344 76.445312 567.40625 75.25 L 567.40625 85.621094 C 567.40625 85.621094 567.136719 88.082031 544.328125 90.144531 C 529.097656 91.542969 508.8125 92.273438 487.199219 92.273438 C 465.585938 92.273438 445.300781 91.542969 430.070312 90.144531 C 407.257812 88.082031 406.992188 85.6875 406.992188 85.621094 Z M 467.578125 231.328125 C 476.226562 227.007812 480.746094 222.285156 480.878906 217.230469 C 481.082031 210.246094 472.898438 204.726562 469.375 202.667969 C 464.121094 199.605469 458.933594 195.949219 453.945312 191.761719 C 433.726562 174.734375 424.949219 158.972656 421.160156 148.734375 C 417.035156 137.695312 417.699219 130.511719 417.699219 130.445312 C 417.699219 130.445312 417.699219 130.378906 417.699219 130.378906 L 417.699219 90.078125 C 420.890625 90.542969 424.882812 91.007812 429.9375 91.476562 C 445.234375 92.871094 465.585938 93.601562 487.199219 93.601562 C 508.8125 93.601562 529.164062 92.871094 544.460938 91.476562 C 549.914062 91.007812 554.171875 90.476562 557.429688 89.945312 L 557.429688 130.445312 C 557.429688 130.511719 558.09375 137.695312 553.96875 148.734375 C 547.054688 167.289062 532.289062 182.382812 521.183594 191.761719 C 516.195312 195.949219 511.007812 199.605469 505.753906 202.667969 C 502.230469 204.726562 494.046875 210.246094 494.25 217.230469 C 494.382812 222.285156 498.902344 227.074219 507.550781 231.328125 C 538.339844 246.558594 557.429688 278.679688 557.429688 315.121094 L 557.429688 356.617188 C 543.0625 358.878906 516.261719 360.34375 487.199219 360.34375 C 458.734375 360.34375 432.199219 358.945312 417.699219 356.75 L 417.699219 315.121094 C 417.699219 278.746094 436.855469 246.625 467.578125 231.328125 Z M 416.371094 350.765625 L 416.371094 356.484375 C 407.125 355.023438 406.992188 353.691406 406.992188 353.691406 C 406.992188 353.691406 407.125 352.363281 416.371094 350.765625 Z M 544.328125 370.917969 C 529.097656 372.3125 508.8125 373.042969 487.199219 373.042969 C 465.585938 373.042969 445.300781 372.3125 430.070312 370.917969 C 407.257812 368.855469 406.992188 366.460938 406.992188 366.394531 L 406.992188 355.421875 C 408.390625 356.21875 411.316406 357.085938 416.96875 358.015625 C 431.398438 360.277344 458.335938 361.738281 487.199219 361.738281 C 516.460938 361.738281 543.394531 360.277344 557.761719 358.015625 C 557.828125 358.082031 557.960938 358.082031 558.027344 358.082031 C 558.226562 358.082031 558.359375 358.015625 558.492188 357.882812 C 563.414062 357.085938 566.007812 356.21875 567.339844 355.488281 L 567.339844 366.460938 C 567.40625 366.460938 567.136719 368.855469 544.328125 370.917969 Z M 424.816406 353.691406 L 424.816406 344.050781 C 424.816406 343.652344 425.082031 343.386719 425.480469 343.386719 C 425.878906 343.386719 426.144531 343.652344 426.144531 344.050781 L 426.144531 353.691406 C 426.144531 354.089844 425.878906 354.359375 425.480469 354.359375 C 425.082031 354.359375 424.816406 354.023438 424.816406 353.691406 Z M 424.816406 338.332031 L 424.816406 324.832031 C 424.816406 324.433594 425.082031 324.164062 425.480469 324.164062 C 425.878906 324.164062 426.144531 324.433594 426.144531 324.832031 L 426.144531 338.332031 C 426.144531 338.730469 425.878906 338.996094 425.480469 338.996094 C 425.082031 338.996094 424.816406 338.730469 424.816406 338.332031 Z M 424.816406 318.910156 L 424.816406 315.121094 C 424.816406 314.722656 425.082031 314.457031 425.480469 314.457031 C 425.878906 314.457031 426.144531 314.722656 426.144531 315.121094 L 426.144531 318.910156 C 426.144531 319.3125 425.878906 319.578125 425.480469 319.578125 C 425.082031 319.578125 424.816406 319.246094 424.816406 318.910156 Z M 425.613281 302.617188 C 425.746094 301.421875 425.945312 300.226562 426.078125 299.027344 C 426.144531 298.695312 426.480469 298.429688 426.8125 298.496094 C 427.144531 298.5625 427.410156 298.894531 427.34375 299.226562 C 427.144531 300.359375 427.011719 301.554688 426.878906 302.753906 C 426.8125 303.085938 426.546875 303.351562 426.210938 303.351562 C 426.210938 303.351562 426.144531 303.351562 426.144531 303.351562 C 425.8125 303.351562 425.546875 303.019531 425.613281 302.617188 Z M 446.496094 176.066406 C 446.761719 176.332031 446.695312 176.730469 446.429688 176.996094 C 446.296875 177.128906 446.164062 177.128906 445.964844 177.128906 C 445.765625 177.128906 445.566406 177.0625 445.433594 176.929688 C 443.039062 174.136719 440.84375 171.34375 438.78125 168.550781 C 438.582031 168.285156 438.648438 167.820312 438.914062 167.621094 C 439.179688 167.421875 439.648438 167.488281 439.847656 167.753906 C 441.976562 170.546875 444.167969 173.339844 446.496094 176.066406 Z M 436.519531 162.566406 C 436.722656 162.898438 436.585938 163.296875 436.320312 163.496094 C 436.1875 163.5625 436.121094 163.628906 435.988281 163.628906 C 435.789062 163.628906 435.523438 163.496094 435.390625 163.296875 C 434.992188 162.632812 434.59375 161.96875 434.195312 161.367188 C 433.992188 161.035156 434.128906 160.636719 434.460938 160.4375 C 434.792969 160.238281 435.191406 160.371094 435.390625 160.703125 C 435.722656 161.300781 436.121094 161.96875 436.519531 162.566406 Z M 430.402344 150.726562 C 430.535156 151.0625 430.402344 151.460938 430.070312 151.59375 C 430.003906 151.660156 429.871094 151.660156 429.804688 151.660156 C 429.539062 151.660156 429.273438 151.527344 429.207031 151.261719 C 427.476562 147.070312 426.210938 142.949219 425.480469 138.957031 C 424.550781 133.769531 424.816406 130.710938 424.882812 130.3125 L 424.882812 126.1875 C 424.882812 125.789062 425.148438 125.523438 425.546875 125.523438 C 425.945312 125.523438 426.210938 125.789062 426.210938 126.1875 L 426.210938 130.3125 C 426.210938 130.3125 426.210938 130.378906 426.210938 130.378906 C 426.210938 130.378906 425.878906 133.503906 426.8125 138.691406 C 427.476562 142.613281 428.671875 146.671875 430.402344 150.726562 Z M 424.816406 116.28125 L 424.816406 97.460938 C 424.816406 97.0625 425.082031 96.796875 425.480469 96.796875 C 425.878906 96.796875 426.144531 97.0625 426.144531 97.460938 L 426.144531 116.28125 C 426.144531 116.679688 425.878906 116.945312 425.480469 116.945312 C 425.082031 116.945312 424.816406 116.613281 424.816406 116.28125 Z M 552.574219 338.332031 L 552.574219 347.640625 C 552.574219 348.039062 552.308594 348.304688 551.910156 348.304688 C 551.507812 348.304688 551.242188 348.039062 551.242188 347.640625 L 551.242188 338.332031 C 551.242188 337.933594 551.507812 337.664062 551.910156 337.664062 C 552.308594 337.664062 552.574219 338 552.574219 338.332031 Z M 551.910156 314.457031 C 552.308594 314.457031 552.574219 314.722656 552.574219 315.121094 L 552.574219 332.878906 C 552.574219 333.277344 552.308594 333.542969 551.910156 333.542969 C 551.507812 333.542969 551.242188 333.277344 551.242188 332.878906 L 551.242188 315.1875 C 551.242188 314.789062 551.578125 314.457031 551.910156 314.457031 Z M 550.578125 303.617188 C 550.445312 302.550781 550.3125 301.554688 550.179688 300.492188 C 550.113281 300.160156 550.378906 299.757812 550.710938 299.757812 C 551.109375 299.691406 551.441406 299.957031 551.441406 300.292969 C 551.578125 301.355469 551.710938 302.417969 551.84375 303.417969 C 551.910156 303.75 551.644531 304.082031 551.242188 304.148438 C 551.242188 304.148438 551.175781 304.148438 551.175781 304.148438 C 550.910156 304.214844 550.644531 303.949219 550.578125 303.617188 Z M 541.46875 271.960938 C 541.335938 271.628906 541.46875 271.230469 541.800781 271.097656 C 542.132812 270.964844 542.53125 271.097656 542.664062 271.429688 C 545.589844 277.414062 547.917969 283.800781 549.582031 290.382812 C 549.648438 290.714844 549.449219 291.113281 549.117188 291.179688 C 549.050781 291.179688 548.984375 291.179688 548.984375 291.179688 C 548.714844 291.179688 548.382812 290.980469 548.316406 290.648438 C 546.65625 284.199219 544.394531 277.878906 541.46875 271.960938 Z M 536.480469 263.117188 C 536.28125 262.785156 536.347656 262.386719 536.679688 262.1875 C 537.011719 261.984375 537.410156 262.050781 537.609375 262.386719 C 538.074219 263.117188 538.542969 263.914062 539.007812 264.710938 C 539.207031 265.046875 539.074219 265.445312 538.808594 265.644531 C 538.675781 265.710938 538.609375 265.710938 538.476562 265.710938 C 538.273438 265.710938 538.007812 265.578125 537.875 265.378906 C 537.410156 264.578125 536.945312 263.847656 536.480469 263.117188 Z M 524.175781 247.6875 C 523.910156 247.421875 523.910156 247.023438 524.175781 246.757812 C 524.441406 246.492188 524.839844 246.492188 525.105469 246.757812 C 528.234375 249.882812 531.226562 253.339844 533.886719 256.933594 C 534.085938 257.199219 534.019531 257.664062 533.753906 257.863281 C 533.621094 257.929688 533.488281 257.996094 533.355469 257.996094 C 533.152344 257.996094 532.953125 257.929688 532.820312 257.730469 C 530.160156 254.207031 527.234375 250.8125 524.175781 247.6875 Z M 545.390625 154.253906 C 550.578125 143.28125 551.242188 135.101562 551.308594 132.109375 C 551.308594 131.773438 551.644531 131.441406 551.976562 131.441406 C 552.375 131.441406 552.640625 131.773438 552.640625 132.109375 C 552.574219 135.964844 551.710938 144.011719 546.589844 154.851562 C 546.457031 155.117188 546.253906 155.25 545.988281 155.25 C 545.921875 155.25 545.789062 155.25 545.722656 155.183594 C 545.324219 154.984375 545.191406 154.585938 545.390625 154.253906 Z M 551.242188 122.996094 L 551.242188 108.433594 C 551.242188 108.035156 551.507812 107.769531 551.910156 107.769531 C 552.308594 107.769531 552.574219 108.035156 552.574219 108.433594 L 552.574219 122.996094 C 552.574219 123.394531 552.308594 123.660156 551.910156 123.660156 C 551.507812 123.660156 551.242188 123.328125 551.242188 122.996094 Z M 551.242188 101.648438 L 551.242188 97.859375 C 551.242188 97.460938 551.507812 97.195312 551.910156 97.195312 C 552.308594 97.195312 552.574219 97.460938 552.574219 97.859375 L 552.574219 101.648438 C 552.574219 102.046875 552.308594 102.316406 551.910156 102.316406 C 551.507812 102.316406 551.242188 102.046875 551.242188 101.648438 Z M 513.070312 169.214844 C 513.269531 169.015625 513.335938 168.683594 513.269531 168.417969 C 513.136719 168.152344 512.871094 168.019531 512.605469 168.019531 C 511.273438 168.21875 509.945312 168.285156 508.679688 168.285156 C 491.1875 168.285156 476.957031 154.054688 476.957031 136.5625 C 476.957031 122.597656 485.933594 110.429688 499.234375 106.238281 C 499.503906 106.171875 499.703125 105.90625 499.703125 105.574219 C 499.703125 105.242188 499.503906 105.042969 499.234375 104.910156 C 495.84375 103.910156 492.320312 103.445312 488.792969 103.445312 C 468.179688 103.445312 451.417969 120.203125 451.417969 140.820312 C 451.417969 161.433594 468.179688 178.195312 488.792969 178.195312 C 497.640625 178.261719 506.285156 175.066406 513.070312 169.214844 Z M 452.617188 140.886719 C 452.617188 121 468.777344 104.839844 488.660156 104.839844 C 491.320312 104.839844 494.046875 105.175781 496.640625 105.707031 C 483.941406 110.628906 475.558594 122.730469 475.558594 136.5625 C 475.558594 154.785156 490.390625 169.613281 508.613281 169.613281 C 509.210938 169.613281 509.878906 169.613281 510.476562 169.546875 C 504.222656 174.335938 496.574219 176.929688 488.660156 176.929688 C 468.84375 176.929688 452.617188 160.769531 452.617188 140.886719 Z M 486.933594 202.132812 C 487 202.46875 487.265625 202.667969 487.597656 202.667969 C 487.929688 202.667969 488.195312 202.46875 488.261719 202.132812 C 489.328125 197.546875 490.058594 196.8125 494.648438 195.75 C 494.980469 195.683594 495.179688 195.417969 495.179688 195.085938 C 495.179688 194.753906 494.980469 194.488281 494.648438 194.421875 C 490.058594 193.355469 489.328125 192.625 488.261719 188.035156 C 488.195312 187.703125 487.929688 187.503906 487.597656 187.503906 C 487.265625 187.503906 487 187.703125 486.933594 188.035156 C 485.867188 192.625 485.136719 193.355469 480.546875 194.421875 C 480.214844 194.488281 480.015625 194.753906 480.015625 195.085938 C 480.015625 195.417969 480.214844 195.683594 480.546875 195.75 C 485.136719 196.878906 485.800781 197.546875 486.933594 202.132812 Z M 487.53125 190.695312 C 488.394531 193.15625 489.460938 194.285156 491.921875 195.085938 C 489.460938 195.949219 488.328125 197.011719 487.53125 199.472656 C 486.667969 197.015625 485.601562 195.882812 483.140625 195.085938 C 485.601562 194.285156 486.734375 193.15625 487.53125 190.695312 Z M 521.714844 116.945312 C 526.304688 118.007812 527.035156 118.742188 528.101562 123.328125 C 528.167969 123.660156 528.433594 123.863281 528.765625 123.863281 C 529.097656 123.863281 529.363281 123.660156 529.429688 123.328125 C 530.492188 118.742188 531.226562 118.007812 535.8125 116.945312 C 536.148438 116.878906 536.347656 116.613281 536.347656 116.28125 C 536.347656 115.949219 536.148438 115.679688 535.8125 115.613281 C 531.226562 114.550781 530.492188 113.820312 529.429688 109.230469 C 529.363281 108.898438 529.097656 108.699219 528.765625 108.699219 C 528.433594 108.699219 528.167969 108.898438 528.101562 109.230469 C 527.035156 113.820312 526.304688 114.550781 521.714844 115.613281 C 521.382812 115.679688 521.183594 115.949219 521.183594 116.28125 C 521.183594 116.613281 521.449219 116.878906 521.714844 116.945312 Z M 528.765625 111.890625 C 529.628906 114.351562 530.695312 115.480469 533.152344 116.28125 C 530.695312 117.144531 529.5625 118.207031 528.765625 120.667969 C 527.898438 118.207031 526.835938 117.078125 524.375 116.28125 C 526.835938 115.414062 527.964844 114.351562 528.765625 111.890625 Z M 485.667969 272.359375 C 485.601562 272.027344 485.335938 271.828125 485.003906 271.828125 C 484.671875 271.828125 484.40625 272.027344 484.339844 272.359375 C 483.472656 276.085938 482.875 276.617188 479.21875 277.480469 C 478.886719 277.546875 478.6875 277.8125 478.6875 278.144531 C 478.6875 278.480469 478.886719 278.746094 479.21875 278.8125 C 482.941406 279.675781 483.472656 280.273438 484.339844 283.933594 C 484.40625 284.265625 484.671875 284.464844 485.003906 284.464844 C 485.335938 284.464844 485.601562 284.265625 485.667969 283.933594 C 486.535156 280.207031 487.132812 279.675781 490.789062 278.8125 C 491.121094 278.746094 491.320312 278.480469 491.320312 278.144531 C 491.320312 277.8125 491.121094 277.546875 490.789062 277.480469 C 487.132812 276.683594 486.535156 276.085938 485.667969 272.359375 Z M 485.070312 281.472656 C 484.40625 279.742188 483.539062 278.878906 481.8125 278.210938 C 483.539062 277.546875 484.40625 276.683594 485.070312 274.953125 C 485.734375 276.683594 486.601562 277.546875 488.328125 278.210938 C 486.601562 278.8125 485.667969 279.742188 485.070312 281.472656 Z M 506.816406 149.066406 L 515 150.0625 L 516.0625 158.242188 C 516.128906 158.574219 516.394531 158.839844 516.726562 158.839844 C 517.058594 158.839844 517.324219 158.574219 517.390625 158.242188 L 518.457031 150.0625 L 526.636719 149 C 526.96875 148.933594 527.234375 148.667969 527.234375 148.335938 C 527.234375 148 526.96875 147.734375 526.636719 147.667969 L 518.457031 146.605469 L 517.390625 138.425781 C 517.324219 138.09375 517.058594 137.828125 516.726562 137.828125 C 516.394531 137.828125 516.128906 138.09375 516.0625 138.425781 L 515 146.605469 L 506.816406 147.667969 C 506.484375 147.734375 506.21875 148 506.21875 148.335938 C 506.21875 148.667969 506.484375 149 506.816406 149.066406 Z M 515.664062 147.933594 C 515.996094 147.867188 516.195312 147.667969 516.261719 147.335938 L 516.726562 143.8125 L 517.191406 147.335938 C 517.257812 147.667969 517.457031 147.867188 517.792969 147.933594 L 521.316406 148.402344 L 517.792969 148.867188 C 517.457031 148.933594 517.257812 149.132812 517.191406 149.464844 L 516.726562 153.054688 L 516.261719 149.464844 C 516.195312 149.132812 515.996094 148.933594 515.664062 148.867188 L 512.136719 148.402344 Z M 491.386719 257.398438 C 491.386719 257.730469 491.65625 257.996094 491.988281 258.0625 L 500.101562 259.058594 L 501.164062 267.238281 C 501.230469 267.574219 501.496094 267.839844 501.828125 267.839844 C 502.164062 267.839844 502.429688 267.574219 502.496094 267.238281 L 503.558594 259.058594 L 511.738281 257.996094 C 512.070312 257.929688 512.335938 257.664062 512.335938 257.332031 C 512.335938 257 512.070312 256.734375 511.738281 256.667969 L 503.558594 255.601562 L 502.496094 247.488281 C 502.429688 247.15625 502.164062 246.890625 501.828125 246.890625 C 501.496094 246.890625 501.230469 247.15625 501.164062 247.488281 L 500.101562 255.601562 L 491.921875 256.667969 C 491.589844 256.800781 491.386719 257.066406 491.386719 257.398438 Z M 500.765625 256.933594 C 501.097656 256.867188 501.296875 256.667969 501.363281 256.332031 L 501.828125 252.808594 L 502.296875 256.332031 C 502.363281 256.667969 502.5625 256.867188 502.894531 256.933594 L 506.417969 257.398438 L 502.894531 257.863281 C 502.5625 257.929688 502.363281 258.128906 502.296875 258.460938 L 501.828125 261.984375 L 501.363281 258.460938 C 501.296875 258.128906 501.097656 257.929688 500.765625 257.863281 L 497.242188 257.398438 Z M 442.707031 112.289062 C 440.511719 112.289062 438.78125 114.085938 438.78125 116.214844 C 438.78125 118.40625 440.578125 120.136719 442.707031 120.136719 C 444.902344 120.136719 446.628906 118.339844 446.628906 116.214844 C 446.695312 114.085938 444.902344 112.289062 442.707031 112.289062 Z M 442.707031 118.875 C 441.242188 118.875 440.113281 117.675781 440.113281 116.28125 C 440.113281 114.882812 441.308594 113.6875 442.707031 113.6875 C 444.101562 113.6875 445.300781 114.882812 445.300781 116.28125 C 445.300781 117.675781 444.167969 118.875 442.707031 118.875 Z M 497.175781 129.714844 C 495.578125 129.714844 494.25 131.042969 494.25 132.640625 C 494.25 134.234375 495.578125 135.566406 497.175781 135.566406 C 498.769531 135.566406 500.101562 134.234375 500.101562 132.640625 C 500.101562 131.042969 498.769531 129.714844 497.175781 129.714844 Z M 497.175781 134.300781 C 496.308594 134.300781 495.578125 133.570312 495.578125 132.707031 C 495.578125 131.839844 496.308594 131.109375 497.175781 131.109375 C 498.039062 131.109375 498.769531 131.839844 498.769531 132.707031 C 498.769531 133.570312 498.039062 134.300781 497.175781 134.300781 Z M 478.019531 244.363281 C 479.617188 244.363281 480.945312 243.03125 480.945312 241.4375 C 480.945312 239.839844 479.617188 238.511719 478.019531 238.511719 C 476.425781 238.511719 475.09375 239.839844 475.09375 241.4375 C 475.09375 243.101562 476.359375 244.363281 478.019531 244.363281 Z M 478.019531 239.839844 C 478.886719 239.839844 479.617188 240.574219 479.617188 241.4375 C 479.617188 242.300781 478.886719 243.03125 478.019531 243.03125 C 477.15625 243.03125 476.425781 242.300781 476.425781 241.4375 C 476.425781 240.574219 477.089844 239.839844 478.019531 239.839844 Z M 517.390625 291.179688 C 519.320312 291.179688 520.917969 289.585938 520.917969 287.65625 C 520.917969 285.726562 519.320312 284.132812 517.390625 284.132812 C 515.464844 284.132812 513.867188 285.726562 513.867188 287.65625 C 513.867188 289.585938 515.464844 291.179688 517.390625 291.179688 Z M 517.390625 285.394531 C 518.589844 285.394531 519.585938 286.390625 519.585938 287.589844 C 519.585938 288.785156 518.589844 289.785156 517.390625 289.785156 C 516.195312 289.785156 515.199219 288.785156 515.199219 287.589844 C 515.199219 286.390625 516.195312 285.394531 517.390625 285.394531 Z M 435.257812 351.632812 C 435.589844 351.699219 460.0625 355.753906 491.523438 355.753906 C 507.351562 355.753906 524.972656 354.757812 542.199219 351.632812 C 542.53125 351.566406 542.730469 351.296875 542.730469 350.964844 L 542.730469 311.332031 C 542.730469 311 542.664062 302.683594 536.679688 298.960938 C 532.023438 296.035156 525.238281 296.765625 516.460938 301.023438 C 494.316406 311.796875 486.46875 306.210938 475.425781 296.234375 C 470.839844 292.046875 464.984375 288.054688 459.929688 285.460938 C 452.75 281.9375 446.960938 281.074219 442.640625 283 C 437.320312 285.328125 434.660156 291.777344 434.660156 302.019531 L 434.660156 350.964844 C 434.660156 351.296875 434.925781 351.566406 435.257812 351.632812 Z M 435.988281 302.085938 C 435.988281 292.378906 438.382812 286.390625 443.171875 284.265625 C 452.28125 280.207031 467.710938 290.980469 474.5625 297.230469 C 486 307.671875 494.582031 313.191406 517.058594 302.21875 C 525.371094 298.164062 531.757812 297.433594 535.949219 300.09375 C 541.335938 303.417969 541.402344 311.265625 541.402344 311.332031 L 541.402344 350.433594 C 493.117188 358.945312 441.839844 351.363281 435.988281 350.433594 Z M 457.136719 315.320312 C 457.136719 316.386719 456.273438 317.183594 455.277344 317.183594 C 454.210938 317.183594 453.414062 316.320312 453.414062 315.320312 C 453.414062 314.257812 454.277344 313.457031 455.277344 313.457031 C 456.273438 313.457031 457.136719 314.257812 457.136719 315.320312 Z M 498.503906 338.332031 C 498.503906 336.933594 499.636719 335.804688 501.03125 335.804688 C 502.429688 335.804688 503.558594 336.933594 503.558594 338.332031 C 503.558594 339.726562 502.429688 340.859375 501.03125 340.859375 C 499.636719 340.859375 498.503906 339.726562 498.503906 338.332031 Z M 520.320312 312.726562 C 520.320312 311.929688 520.917969 311.332031 521.714844 311.332031 C 522.511719 311.332031 523.113281 311.929688 523.113281 312.726562 C 523.113281 313.523438 522.511719 314.125 521.714844 314.125 C 520.917969 314.125 520.320312 313.523438 520.320312 312.726562 Z M 466.847656 329.285156 C 466.847656 329.886719 466.382812 330.351562 465.785156 330.351562 C 465.183594 330.351562 464.71875 329.886719 464.71875 329.285156 C 464.71875 328.6875 465.183594 328.222656 465.785156 328.222656 C 466.382812 328.222656 466.847656 328.6875 466.847656 329.285156 Z M 536.746094 133.636719 C 536.746094 132.574219 537.609375 131.773438 538.609375 131.773438 C 539.671875 131.773438 540.46875 132.640625 540.46875 133.636719 C 540.46875 134.703125 539.605469 135.5 538.609375 135.5 C 537.609375 135.5 536.746094 134.703125 536.746094 133.636719 Z M 463.589844 265.777344 C 463.589844 265.179688 464.054688 264.710938 464.652344 264.710938 C 465.25 264.710938 465.71875 265.179688 465.71875 265.777344 C 465.71875 266.375 465.25 266.839844 464.652344 266.839844 C 464.054688 266.839844 463.589844 266.375 463.589844 265.777344 Z M 463.589844 265.777344"/></g></svg>