<svg xmlns="http://www.w3.org/2000/svg" width="1012.5" viewBox="0 0 1012.5 487.5" height="487.5" version="1.0"><defs><clipPath id="a"><path d="M 497 173.242188 L 519 173.242188 L 519 193 L 497 193 Z M 497 173.242188"/></clipPath><clipPath id="b"><path d="M 576 200 L 596.917969 200 L 596.917969 220 L 576 220 Z M 576 200"/></clipPath><clipPath id="c"><path d="M 515 261 L 536 261 L 536 278.1875 L 515 278.1875 Z M 515 261"/></clipPath><clipPath id="d"><path d="M 542 139 L 585 139 L 585 182 L 542 182 Z M 542 139"/></clipPath><clipPath id="e"><path d="M 540.832031 157.800781 L 564.785156 137.367188 L 586.1875 162.464844 L 562.234375 182.894531 Z M 540.832031 157.800781"/></clipPath><clipPath id="f"><path d="M 519.179688 132.414062 L 571.648438 87.660156 L 614.457031 137.851562 L 561.984375 182.601562 Z M 519.179688 132.414062"/></clipPath><clipPath id="g"><path d="M 567 137 L 587 137 L 587 157 L 567 157 Z M 567 137"/></clipPath><clipPath id="h"><path d="M 540.832031 157.800781 L 564.785156 137.367188 L 586.1875 162.464844 L 562.234375 182.894531 Z M 540.832031 157.800781"/></clipPath><clipPath id="i"><path d="M 519.179688 132.414062 L 571.648438 87.660156 L 614.457031 137.851562 L 561.984375 182.601562 Z M 519.179688 132.414062"/></clipPath><clipPath id="j"><path d="M 540 137 L 574 137 L 574 147 L 540 147 Z M 540 137"/></clipPath><clipPath id="k"><path d="M 540.832031 157.800781 L 564.785156 137.367188 L 586.1875 162.464844 L 562.234375 182.894531 Z M 540.832031 157.800781"/></clipPath><clipPath id="l"><path d="M 519.179688 132.414062 L 571.648438 87.660156 L 614.457031 137.851562 L 561.984375 182.601562 Z M 519.179688 132.414062"/></clipPath><clipPath id="m"><path d="M 556 153 L 576 153 L 576 173 L 556 173 Z M 556 153"/></clipPath><clipPath id="n"><path d="M 540.832031 157.800781 L 564.785156 137.367188 L 586.1875 162.464844 L 562.234375 182.894531 Z M 540.832031 157.800781"/></clipPath><clipPath id="o"><path d="M 519.179688 132.414062 L 571.648438 87.660156 L 614.457031 137.851562 L 561.984375 182.601562 Z M 519.179688 132.414062"/></clipPath><clipPath id="p"><path d="M 577 137 L 587 137 L 587 147 L 577 147 Z M 577 137"/></clipPath><clipPath id="q"><path d="M 540.832031 157.800781 L 564.785156 137.367188 L 586.1875 162.464844 L 562.234375 182.894531 Z M 540.832031 157.800781"/></clipPath><clipPath id="r"><path d="M 519.179688 132.414062 L 571.648438 87.660156 L 614.457031 137.851562 L 561.984375 182.601562 Z M 519.179688 132.414062"/></clipPath><clipPath id="s"><path d="M 572 137 L 587 137 L 587 151 L 572 151 Z M 572 137"/></clipPath><clipPath id="t"><path d="M 540.832031 157.800781 L 564.785156 137.367188 L 586.1875 162.464844 L 562.234375 182.894531 Z M 540.832031 157.800781"/></clipPath><clipPath id="u"><path d="M 519.179688 132.414062 L 571.648438 87.660156 L 614.457031 137.851562 L 561.984375 182.601562 Z M 519.179688 132.414062"/></clipPath><clipPath id="v"><path d="M 561 161 L 580 161 L 580 178 L 561 178 Z M 561 161"/></clipPath><clipPath id="w"><path d="M 540.832031 157.800781 L 564.785156 137.367188 L 586.1875 162.464844 L 562.234375 182.894531 Z M 540.832031 157.800781"/></clipPath><clipPath id="x"><path d="M 519.179688 132.414062 L 571.648438 87.660156 L 614.457031 137.851562 L 561.984375 182.601562 Z M 519.179688 132.414062"/></clipPath><clipPath id="y"><path d="M 481 307 L 501 307 L 501 335 L 481 335 Z M 481 307"/></clipPath><clipPath id="z"><path d="M 500.796875 278.046875 L 540.90625 301.523438 L 521.59375 334.519531 L 481.484375 311.042969 Z M 500.796875 278.046875"/></clipPath><clipPath id="A"><path d="M 490.65625 272.113281 L 559.878906 312.628906 L 520.878906 379.265625 L 451.65625 338.746094 Z M 490.65625 272.113281"/></clipPath><clipPath id="B"><path d="M 491 328 L 536 328 L 536 335 L 491 335 Z M 491 328"/></clipPath><clipPath id="C"><path d="M 500.796875 278.046875 L 540.90625 301.523438 L 521.59375 334.519531 L 481.484375 311.042969 Z M 500.796875 278.046875"/></clipPath><clipPath id="D"><path d="M 490.65625 272.113281 L 559.878906 312.628906 L 520.878906 379.265625 L 451.65625 338.746094 Z M 490.65625 272.113281"/></clipPath><clipPath id="E"><path d="M 487 281 L 536 281 L 536 330 L 487 330 Z M 487 281"/></clipPath><clipPath id="F"><path d="M 500.796875 278.046875 L 540.90625 301.523438 L 521.59375 334.519531 L 481.484375 311.042969 Z M 500.796875 278.046875"/></clipPath><clipPath id="G"><path d="M 490.65625 272.113281 L 559.878906 312.628906 L 520.878906 379.265625 L 451.65625 338.746094 Z M 490.65625 272.113281"/></clipPath><clipPath id="H"><path d="M 481 322 L 483 322 L 483 335 L 481 335 Z M 481 322"/></clipPath><clipPath id="I"><path d="M 500.796875 278.046875 L 540.90625 301.523438 L 521.59375 334.519531 L 481.484375 311.042969 Z M 500.796875 278.046875"/></clipPath><clipPath id="J"><path d="M 490.65625 272.113281 L 559.878906 312.628906 L 520.878906 379.265625 L 451.65625 338.746094 Z M 490.65625 272.113281"/></clipPath><clipPath id="K"><path d="M 502 295 L 522 295 L 522 316 L 502 316 Z M 502 295"/></clipPath><clipPath id="L"><path d="M 500.796875 278.046875 L 540.90625 301.523438 L 521.59375 334.519531 L 481.484375 311.042969 Z M 500.796875 278.046875"/></clipPath><clipPath id="M"><path d="M 490.65625 272.113281 L 559.878906 312.628906 L 520.878906 379.265625 L 451.65625 338.746094 Z M 490.65625 272.113281"/></clipPath><clipPath id="N"><path d="M 497 333 L 506 333 L 506 335 L 497 335 Z M 497 333"/></clipPath><clipPath id="O"><path d="M 500.796875 278.046875 L 540.90625 301.523438 L 521.59375 334.519531 L 481.484375 311.042969 Z M 500.796875 278.046875"/></clipPath><clipPath id="P"><path d="M 490.65625 272.113281 L 559.878906 312.628906 L 520.878906 379.265625 L 451.65625 338.746094 Z M 490.65625 272.113281"/></clipPath><clipPath id="Q"><path d="M 514 300 L 530 300 L 530 324 L 514 324 Z M 514 300"/></clipPath><clipPath id="R"><path d="M 500.796875 278.046875 L 540.90625 301.523438 L 521.59375 334.519531 L 481.484375 311.042969 Z M 500.796875 278.046875"/></clipPath><clipPath id="S"><path d="M 490.65625 272.113281 L 559.878906 312.628906 L 520.878906 379.265625 L 451.65625 338.746094 Z M 490.65625 272.113281"/></clipPath><clipPath id="T"><path d="M 476 156 L 486 156 L 486 166 L 476 166 Z M 476 156"/></clipPath><clipPath id="U"><path d="M 460.597656 156.296875 L 485.1875 165.441406 L 476.039062 190.03125 L 451.449219 180.886719 Z M 460.597656 156.296875"/></clipPath><clipPath id="V"><path d="M 470.324219 130.148438 L 520.910156 148.964844 L 502.09375 199.550781 L 451.507812 180.734375 Z M 470.324219 130.148438"/></clipPath><clipPath id="W"><path d="M 482 156 L 486 156 L 486 160 L 482 160 Z M 482 156"/></clipPath><clipPath id="X"><path d="M 460.597656 156.296875 L 485.1875 165.441406 L 476.039062 190.03125 L 451.449219 180.886719 Z M 460.597656 156.296875"/></clipPath><clipPath id="Y"><path d="M 470.324219 130.148438 L 520.910156 148.964844 L 502.09375 199.550781 L 451.507812 180.734375 Z M 470.324219 130.148438"/></clipPath><clipPath id="Z"><path d="M 464 168 L 471 168 L 471 174 L 464 174 Z M 464 168"/></clipPath><clipPath id="aa"><path d="M 460.597656 156.296875 L 485.1875 165.441406 L 476.039062 190.03125 L 451.449219 180.886719 Z M 460.597656 156.296875"/></clipPath><clipPath id="ab"><path d="M 470.324219 130.148438 L 520.910156 148.964844 L 502.09375 199.550781 L 451.507812 180.734375 Z M 470.324219 130.148438"/></clipPath><clipPath id="ac"><path d="M 462 173 L 469 173 L 469 179 L 462 179 Z M 462 173"/></clipPath><clipPath id="ad"><path d="M 460.597656 156.296875 L 485.1875 165.441406 L 476.039062 190.03125 L 451.449219 180.886719 Z M 460.597656 156.296875"/></clipPath><clipPath id="ae"><path d="M 470.324219 130.148438 L 520.910156 148.964844 L 502.09375 199.550781 L 451.507812 180.734375 Z M 470.324219 130.148438"/></clipPath><clipPath id="af"><path d="M 452 159 L 482 159 L 482 189 L 452 189 Z M 452 159"/></clipPath><clipPath id="ag"><path d="M 460.597656 156.296875 L 485.1875 165.441406 L 476.039062 190.03125 L 451.449219 180.886719 Z M 460.597656 156.296875"/></clipPath><clipPath id="ah"><path d="M 470.324219 130.148438 L 520.910156 148.964844 L 502.09375 199.550781 L 451.507812 180.734375 Z M 470.324219 130.148438"/></clipPath><clipPath id="ai"><path d="M 459 165 L 473 165 L 473 181 L 459 181 Z M 459 165"/></clipPath><clipPath id="aj"><path d="M 460.597656 156.296875 L 485.1875 165.441406 L 476.039062 190.03125 L 451.449219 180.886719 Z M 460.597656 156.296875"/></clipPath><clipPath id="ak"><path d="M 470.324219 130.148438 L 520.910156 148.964844 L 502.09375 199.550781 L 451.507812 180.734375 Z M 470.324219 130.148438"/></clipPath><clipPath id="al"><path d="M 480 169 L 486 169 L 486 191 L 480 191 Z M 480 169"/></clipPath><clipPath id="am"><path d="M 460.597656 156.296875 L 485.1875 165.441406 L 476.039062 190.03125 L 451.449219 180.886719 Z M 460.597656 156.296875"/></clipPath><clipPath id="an"><path d="M 470.324219 130.148438 L 520.910156 148.964844 L 502.09375 199.550781 L 451.507812 180.734375 Z M 470.324219 130.148438"/></clipPath></defs><g clip-path="url(#a)"><path fill="#FFF" d="M 504.363281 189.226562 C 505.769531 188.214844 506.242188 186.226562 507.972656 186.015625 C 509.867188 185.789062 511.980469 187.867188 514.390625 187.621094 C 513.613281 185.65625 512.074219 184.457031 511.582031 182.207031 C 512.265625 181.085938 513.574219 180.585938 514.589844 179.800781 C 510.792969 180.289062 508.453125 178.570312 506.96875 176.191406 C 506.335938 177.832031 505.507812 179.273438 504.765625 180.804688 C 503.527344 181.121094 501.457031 181.050781 500.152344 181.804688 C 501.671875 182.824219 503.542969 183.496094 504.964844 184.613281 C 505.175781 186.429688 504.15625 188.078125 504.363281 189.226562 Z M 510.980469 177.597656 C 513.535156 177.714844 516.683594 177.242188 518.203125 178.398438 C 518.195312 181.265625 515.609375 181.550781 513.789062 182.609375 C 514.203125 184.726562 517.308594 185.984375 517 188.222656 C 516.558594 191.367188 510.308594 189.121094 508.375 188.019531 C 506.925781 188.167969 505.292969 192.710938 503.359375 192.433594 C 501.199219 192.121094 502.195312 187.613281 503.160156 186.015625 C 501.542969 184.398438 496.792969 183.367188 497.34375 180.804688 C 497.761719 178.839844 501.339844 179.769531 503.359375 179 C 504.976562 177.738281 504.625 173.914062 506.570312 173.585938 C 508.644531 173.238281 509.441406 176.441406 510.980469 177.597656" fill-rule="evenodd"/></g><path fill="#FFF" d="M 550.089844 190.628906 C 545.671875 186.757812 535.878906 187.75 532.039062 191.429688 C 531.4375 191.03125 530.957031 190.507812 530.035156 190.429688 C 529.753906 191.683594 528.835938 192.304688 528.429688 193.433594 C 528.929688 193.738281 529.347656 194.125 529.433594 194.839844 C 526.378906 199.136719 528.441406 206.238281 531.640625 208.871094 C 530.867188 209.058594 531.214844 210.671875 530.234375 210.074219 C 530.347656 211.097656 531.019531 211.5625 532.039062 211.679688 C 531.960938 210.664062 532.804688 210.570312 533.042969 209.875 C 540.425781 215.519531 553.894531 211.667969 555.304688 203.058594 C 555.644531 203.324219 555.976562 203.589844 556.710938 203.460938 C 557.320312 202.8125 557.183594 201.140625 556.710938 200.453125 C 556.234375 199.832031 555.558594 200.453125 555.105469 200.050781 C 554.460938 199.304688 555.839844 199.300781 555.507812 198.246094 C 553.964844 195.703125 554.480469 192.332031 552.097656 190.628906 C 551.429688 190.628906 550.757812 190.628906 550.089844 190.628906 Z M 558.914062 205.066406 C 558.316406 205.53125 557.75 206.035156 556.710938 206.066406 C 554.183594 213.277344 542.429688 217.5 533.847656 213.082031 C 531.632812 215.027344 528.828125 212.777344 528.027344 210.878906 C 527.882812 209.929688 528.316406 209.558594 528.632812 209.074219 C 525.945312 206.363281 524.363281 199.085938 526.828125 194.839844 C 524.996094 191.863281 528.070312 187.046875 531.640625 188.824219 C 537.078125 184.886719 544.980469 184.976562 550.292969 188.023438 C 550.859375 188.347656 551.539062 189.007812 552.097656 189.226562 C 552.683594 189.457031 553.234375 189.148438 553.703125 189.425781 C 554.617188 189.972656 555.148438 191.304688 555.910156 191.832031 C 556.058594 194.621094 557.753906 195.867188 557.914062 198.648438 C 558.101562 199.527344 559.191406 199.507812 559.316406 200.453125 C 559.503906 202.308594 559.058594 203.535156 558.914062 205.066406" fill-rule="evenodd"/><path fill="#FFF" d="M 538.660156 191.230469 C 538.757812 192.332031 537.429688 192.847656 536.652344 192.433594 C 536.863281 191.574219 537.515625 191.15625 538.660156 191.230469" fill-rule="evenodd"/><path fill="#FFF" d="M 548.488281 191.429688 C 547.246094 193.15625 548.121094 195.773438 549.890625 196.242188 C 547.4375 198.242188 545.625 191.832031 548.488281 191.429688" fill-rule="evenodd"/><path fill="#FFF" d="M 550.492188 192.234375 C 550.464844 193.46875 551.359375 193.769531 551.695312 194.640625 C 550.855469 196.59375 548.726562 194.386719 549.085938 192.632812 C 549.4375 192.171875 549.839844 191.898438 550.492188 192.234375" fill-rule="evenodd"/><path fill="#FFF" d="M 542.46875 194.636719 C 542.410156 195.113281 542.371094 197.160156 541.066406 197.042969 C 540.976562 195.683594 541.261719 194.699219 542.46875 194.636719" fill-rule="evenodd"/><path fill="#FFF" d="M 535.050781 197.847656 C 534.886719 198.753906 534.917969 199.855469 533.847656 199.851562 C 533.683594 199.183594 533.707031 197.605469 535.050781 197.847656" fill-rule="evenodd"/><path fill="#FFF" d="M 545.078125 200.050781 C 545.34375 200.050781 545.613281 200.050781 545.878906 200.050781 C 546.597656 200.546875 547.050781 203.386719 545.277344 203.058594 C 545.640625 202.167969 545.457031 200.773438 545.078125 200.050781" fill-rule="evenodd"/><path fill="#FFF" d="M 460.039062 241.554688 C 464.011719 254.300781 474.464844 264.550781 489.921875 264.609375 C 502.359375 264.660156 511.960938 257.355469 516.796875 248.972656 C 518.152344 246.621094 519.753906 243.9375 519.605469 240.953125 C 501.335938 243.492188 478.609375 242.433594 460.039062 241.554688 Z M 527.425781 235.335938 C 525.574219 235.808594 523.382812 236.265625 521.410156 236.542969 C 499.679688 239.597656 469.992188 238.519531 450.007812 234.9375 C 449.179688 234.296875 448.480469 233.523438 447.199219 233.332031 C 447.304688 233.929688 447.058594 234.882812 447.199219 235.335938 C 447.933594 237.707031 456.585938 239.136719 459.4375 239.546875 C 461.410156 239.832031 464.535156 239.578125 466.65625 239.75 C 484.742188 241.210938 510.660156 242.152344 527.027344 237.945312 C 529.191406 237.386719 532.542969 236.863281 532.039062 233.734375 C 530.34375 233.671875 529.097656 234.914062 527.425781 235.335938 Z M 522.613281 231.730469 C 525.691406 231.765625 529.664062 234.265625 531.441406 231.527344 C 528.996094 230.09375 525.605469 229.609375 522.414062 228.921875 C 522.269531 230.070312 522.625 230.714844 522.613281 231.730469 Z M 448.003906 231.527344 C 449.90625 234.351562 453.90625 231.601562 457.230469 231.730469 C 457.414062 231.171875 458.15625 229.28125 457.230469 228.921875 C 453.910156 229.550781 450.507812 230.089844 448.003906 231.527344 Z M 511.984375 211.679688 C 506.820312 206.519531 498.050781 201.929688 488.117188 202.660156 C 471.023438 203.914062 459.566406 216.710938 459.035156 234.738281 C 477.980469 237.253906 502.023438 237.097656 521.007812 234.738281 C 520.875 224.972656 517.5625 217.257812 511.984375 211.679688 Z M 522.414062 226.515625 C 526.609375 227.535156 531.550781 227.808594 533.84375 230.726562 C 533.878906 233.121094 534.777344 234.636719 534.246094 236.339844 C 533.074219 240.121094 526.800781 240.234375 522.613281 241.152344 C 517.839844 255.5 508.507812 266.539062 490.324219 266.816406 C 472.246094 267.089844 462.289062 255.761719 457.632812 241.554688 C 453.488281 240.078125 445.953125 240.355469 444.996094 235.941406 C 444.609375 234.160156 445.71875 232.921875 445.597656 230.726562 C 447.996094 227.777344 452.992188 227.429688 457.429688 226.515625 C 461.15625 212.703125 471.566406 201.539062 487.3125 200.453125 C 506.890625 199.105469 518.554688 211.582031 522.414062 226.515625" fill-rule="evenodd"/><path fill="#FFF" d="M 531.4375 204.0625 C 532.34375 203.964844 532.425781 203.046875 532.441406 202.058594 C 532.058594 201.972656 532.078125 201.484375 531.4375 201.65625 C 531.160156 202.289062 531.160156 203.425781 531.4375 204.0625 Z M 532.640625 200.851562 C 534.1875 202.210938 533.289062 205.667969 531.238281 205.265625 C 529.164062 204.855469 529.566406 199.601562 532.640625 200.851562" fill-rule="evenodd"/><g clip-path="url(#b)"><path fill="#FFF" d="M 584.589844 205.464844 C 583.238281 204.679688 581.816406 203.957031 580.378906 203.257812 C 580.871094 205.304688 582.011719 206.703125 582.582031 208.671875 C 581.660156 209.953125 580.269531 210.769531 579.175781 211.878906 C 580.710938 211.675781 582.054688 211.285156 583.785156 211.277344 C 585.453125 212.953125 586.503906 215.246094 588.398438 216.691406 C 588.761719 214.582031 588.210938 211.558594 589.601562 210.476562 C 590.707031 210.578125 592.230469 210.257812 593.011719 210.675781 C 590.898438 208.914062 588.851562 207.085938 589.003906 203.058594 C 587.75 204.078125 586.085938 204.6875 584.589844 205.464844 Z M 584.589844 203.257812 C 586.585938 202.976562 588.195312 200.351562 590.003906 200.652344 C 592.101562 201 591.039062 203.882812 591.609375 206.265625 C 591.839844 207.9375 596.769531 209.359375 596.824219 211.277344 C 596.890625 213.628906 592.929688 212.78125 590.605469 212.28125 C 590.515625 214.796875 590.921875 217.808594 589.601562 219.097656 C 585.738281 218.886719 584.8125 215.734375 583.183594 213.28125 C 581.042969 213.546875 579.195312 214.105469 576.96875 214.285156 C 575.074219 211.503906 578.71875 209.648438 580.378906 208.472656 C 579.457031 206.375 577.699219 204.078125 578.371094 201.054688 C 580.832031 199.941406 582.652344 202.550781 584.589844 203.257812" fill-rule="evenodd"/></g><path fill="#FFF" d="M 535.648438 202.058594 C 537.429688 202.140625 536.417969 205.160156 535.046875 205.066406 C 534.472656 204.007812 535.867188 203.398438 535.648438 202.058594" fill-rule="evenodd"/><path fill="#FFF" d="M 545.675781 208.273438 C 545.890625 209.585938 543.246094 210.46875 543.273438 208.675781 C 544.214844 208.765625 544.738281 207.90625 545.675781 208.273438" fill-rule="evenodd"/><path fill="#FFF" d="M 541.46875 262.203125 C 542.539062 263.019531 543.59375 261.957031 544.675781 261 C 546.136719 259.710938 547.902344 258.785156 546.480469 256.992188 C 544.359375 258.277344 542.449219 259.773438 541.46875 262.203125 Z M 584.789062 247.566406 C 574.980469 253.738281 565.953125 260.683594 553.699219 264.410156 C 557.222656 268.675781 563.5625 270.722656 569.546875 270.023438 C 579.5 268.859375 586.835938 258.097656 585.390625 247.367188 C 585.378906 247.246094 585.359375 247.128906 585.191406 247.167969 C 585.1875 247.433594 584.839844 247.351562 584.789062 247.566406 Z M 549.488281 264.007812 C 552.390625 263.3125 555.574219 262.570312 557.914062 261.601562 C 559.222656 261.058594 560.566406 259.839844 562.125 258.996094 C 563.636719 258.179688 565.386719 257.613281 566.9375 256.789062 C 573.441406 253.34375 577.910156 250.214844 583.988281 246.164062 C 586.671875 244.375 592.988281 239.945312 590.003906 237.542969 C 589.957031 237.828125 589.671875 237.882812 589.601562 238.144531 C 589.304688 238.316406 589.171875 238.648438 589.203125 239.148438 C 584.226562 244.164062 577.492188 248.074219 570.75 251.976562 C 564.195312 255.773438 556.945312 259.964844 549.488281 262.203125 C 547.167969 262.902344 544.445312 263.234375 541.867188 263.40625 C 542.871094 266.664062 547.179688 264.5625 549.488281 264.007812 Z M 583.585938 237.140625 C 584.1875 237.476562 583.964844 238.632812 584.789062 238.746094 C 586.695312 238.246094 589.125 238.269531 589.402344 236.140625 C 587.0625 236.074219 585.140625 236.421875 583.585938 237.140625 Z M 564.332031 228.121094 C 549.308594 228.636719 541.535156 247.574219 550.089844 260.398438 C 562.726562 255.453125 574.363281 249.511719 583.988281 241.554688 C 580.476562 234.199219 574.398438 227.773438 564.332031 228.121094 Z M 583.183594 235.136719 C 587.78125 232.804688 592.703125 234.882812 592.8125 239.148438 C 592.910156 242.933594 589.160156 243.59375 587.597656 246.164062 C 589.8125 261.074219 579.160156 273.703125 564.53125 272.429688 C 558.871094 271.9375 555.738281 269.183594 551.695312 266.414062 C 548.613281 267.0625 544.574219 268.261719 542.066406 267.015625 C 540.527344 266.25 539.375 263.578125 539.660156 261.402344 C 540.050781 258.453125 543.605469 257.355469 545.277344 255.1875 C 541.507812 240.28125 549.761719 227.199219 562.925781 225.914062 C 572.789062 224.953125 578.464844 229.914062 583.183594 235.136719" fill-rule="evenodd"/><g clip-path="url(#c)"><path fill="#FFF" d="M 522.8125 266.613281 C 521.8125 265.679688 520.246094 265.304688 518.800781 264.808594 C 519.421875 266.730469 520.671875 268.019531 521.410156 269.820312 C 520.675781 271.292969 519.113281 271.9375 518.402344 273.429688 C 519.785156 272.945312 521.277344 272.5625 523.015625 272.429688 C 523.671875 273.195312 524.546875 274.101562 525.421875 275.035156 C 526.207031 275.875 527.113281 277.328125 527.828125 277.039062 C 527.828125 275.101562 527.757812 273.09375 528.027344 271.425781 C 528.855469 270.875 530.839844 270.546875 532.039062 271.027344 C 529.417969 269.375 527.648438 267.539062 527.226562 263.808594 C 525.972656 264.960938 524.4375 265.832031 522.8125 266.613281 Z M 530.035156 266.816406 C 530.503906 268.003906 535.796875 269.574219 535.851562 271.425781 C 535.90625 273.417969 532.53125 273.1875 530.035156 272.832031 C 529.421875 274.679688 530.917969 278.472656 529.230469 279.644531 C 525.113281 279.753906 524.242188 276.613281 522.414062 274.433594 C 520.214844 274.648438 517.359375 276.714844 515.394531 275.234375 C 515.566406 272.402344 517.484375 271.3125 519.203125 270.023438 C 518.082031 267.804688 516.421875 266.121094 516.394531 262.804688 C 518.535156 261.21875 520.839844 263.726562 522.8125 264.207031 C 524.875 264.167969 526.089844 261.234375 527.828125 261.203125 C 530.027344 261.160156 529.800781 264.015625 530.035156 266.816406" fill-rule="evenodd"/></g><g clip-path="url(#d)"><g clip-path="url(#e)"><g clip-path="url(#f)"><path fill="#FFF" d="M 561.699219 180.871094 L 583.390625 162.371094 L 564.980469 140.789062 L 543.289062 159.289062 Z M 584.28125 162.746094 L 561.929688 181.808594 C 561.746094 181.964844 561.472656 181.945312 561.320312 181.761719 L 542.351562 159.523438 C 542.195312 159.339844 542.21875 159.066406 542.398438 158.914062 L 564.75 139.847656 C 564.933594 139.695312 565.207031 139.714844 565.363281 139.894531 L 584.332031 162.136719 C 584.484375 162.316406 584.460938 162.589844 584.28125 162.746094"/></g></g></g><g clip-path="url(#g)"><g clip-path="url(#h)"><g clip-path="url(#i)"><path fill="#FFF" d="M 569.03125 139.074219 L 591.957031 155.792969 L 608.800781 132.804688 L 585.875 116.082031 Z M 592.328125 156.726562 C 592.179688 156.855469 591.957031 156.867188 591.792969 156.746094 L 568.167969 139.519531 C 567.976562 139.378906 567.933594 139.105469 568.074219 138.914062 L 585.433594 115.222656 C 585.578125 115.03125 585.847656 114.988281 586.039062 115.128906 L 609.664062 132.359375 C 609.855469 132.5 609.898438 132.769531 609.757812 132.964844 L 592.398438 156.652344 C 592.375 156.679688 592.351562 156.703125 592.328125 156.726562"/></g></g></g><g clip-path="url(#j)"><g clip-path="url(#k)"><g clip-path="url(#l)"><path fill="#FFF" d="M 549.46875 144.996094 L 572.078125 127.628906 L 554.808594 105.125 L 532.199219 122.492188 Z M 572.964844 128.035156 C 572.957031 128.039062 572.953125 128.046875 572.945312 128.050781 L 549.652344 145.945312 C 549.558594 146.015625 549.445312 146.046875 549.332031 146.03125 C 549.214844 146.015625 549.113281 145.957031 549.042969 145.867188 L 531.246094 122.675781 C 531.101562 122.488281 531.140625 122.214844 531.328125 122.070312 L 554.625 104.175781 C 554.816406 104.027344 555.085938 104.0625 555.230469 104.253906 L 573.027344 127.441406 C 573.097656 127.535156 573.128906 127.648438 573.113281 127.761719 C 573.097656 127.867188 573.046875 127.964844 572.964844 128.035156"/></g></g></g><g clip-path="url(#m)"><g clip-path="url(#n)"><g clip-path="url(#o)"><path fill="#FFF" d="M 562.871094 162.941406 L 565.28125 160.886719 L 561.28125 158.660156 Z M 566.316406 161.136719 L 562.960938 164 C 562.851562 164.09375 562.707031 164.125 562.570312 164.089844 C 562.433594 164.054688 562.324219 163.957031 562.273438 163.824219 L 560.0625 157.863281 C 560 157.695312 560.046875 157.503906 560.1875 157.382812 C 560.324219 157.265625 560.519531 157.246094 560.679688 157.332031 L 566.25 160.429688 C 566.371094 160.5 566.453125 160.625 566.46875 160.765625 C 566.480469 160.90625 566.425781 161.042969 566.316406 161.136719 Z M 571.988281 163.535156 L 573.972656 161.839844 L 559.429688 154.230469 L 557.253906 156.085938 L 562.597656 171.539062 L 564.519531 169.902344 L 563.269531 166.539062 C 563.207031 166.367188 563.257812 166.175781 563.394531 166.058594 L 568.3125 161.863281 C 568.449219 161.746094 568.644531 161.726562 568.800781 161.8125 Z M 575.023438 162.078125 L 572.320312 164.382812 C 572.183594 164.5 571.988281 164.523438 571.832031 164.4375 L 568.648438 162.714844 L 564.1875 166.515625 L 565.4375 169.878906 C 565.5 170.050781 565.449219 170.242188 565.3125 170.359375 L 562.675781 172.609375 C 562.566406 172.703125 562.421875 172.734375 562.28125 172.699219 C 562.144531 172.660156 562.035156 172.558594 561.988281 172.421875 L 556.339844 156.09375 C 556.28125 155.925781 556.332031 155.738281 556.46875 155.621094 L 559.09375 153.382812 C 559.230469 153.265625 559.421875 153.246094 559.578125 153.328125 L 574.945312 161.367188 C 575.070312 161.433594 575.15625 161.558594 575.171875 161.703125 C 575.1875 161.84375 575.132812 161.984375 575.023438 162.078125"/></g></g></g><g clip-path="url(#p)"><g clip-path="url(#q)"><g clip-path="url(#r)"><path fill="#FFF" d="M 583.027344 134.957031 L 585.320312 136.667969 L 586.34375 135.300781 C 587.277344 134.058594 587.589844 133.589844 587.691406 133.414062 C 587.925781 133.011719 588.015625 132.644531 587.96875 132.292969 C 587.921875 131.960938 587.738281 131.683594 587.414062 131.441406 C 587.101562 131.207031 586.796875 131.105469 586.488281 131.132812 C 586.179688 131.15625 585.882812 131.324219 585.578125 131.644531 C 585.433594 131.796875 585.023438 132.296875 583.894531 133.804688 Z M 585.683594 137.601562 C 585.621094 137.652344 585.546875 137.6875 585.464844 137.699219 C 585.351562 137.714844 585.234375 137.6875 585.144531 137.617188 L 582.164062 135.390625 C 581.972656 135.25 581.933594 134.976562 582.078125 134.785156 L 583.203125 133.285156 C 584.140625 132.03125 584.714844 131.300781 584.949219 131.050781 C 585.40625 130.574219 585.902344 130.3125 586.421875 130.269531 C 586.941406 130.226562 587.453125 130.386719 587.9375 130.75 C 588.445312 131.128906 588.746094 131.605469 588.824219 132.167969 C 588.902344 132.710938 588.773438 133.277344 588.441406 133.847656 C 588.273438 134.132812 587.816406 134.777344 587.035156 135.816406 L 585.75 137.53125 C 585.730469 137.554688 585.707031 137.578125 585.683594 137.601562 Z M 588.15625 138.785156 L 590.914062 140.84375 L 592.464844 138.773438 C 593.320312 137.636719 593.601562 137.179688 593.683594 137 C 593.6875 136.996094 593.6875 136.992188 593.691406 136.988281 C 593.867188 136.632812 593.917969 136.289062 593.847656 135.933594 C 593.78125 135.59375 593.566406 135.289062 593.191406 135.011719 C 592.875 134.773438 592.5625 134.652344 592.238281 134.644531 C 591.917969 134.632812 591.609375 134.730469 591.296875 134.945312 C 591.054688 135.105469 590.546875 135.597656 589.476562 137.023438 Z M 591.28125 141.777344 C 591.21875 141.828125 591.140625 141.863281 591.058594 141.875 C 590.945312 141.894531 590.832031 141.863281 590.738281 141.796875 L 587.292969 139.222656 C 587.101562 139.078125 587.0625 138.808594 587.207031 138.617188 L 588.785156 136.507812 C 589.714844 135.269531 590.378906 134.523438 590.8125 134.230469 C 591.277344 133.914062 591.769531 133.761719 592.273438 133.777344 C 592.769531 133.796875 593.253906 133.976562 593.710938 134.316406 C 594.253906 134.722656 594.585938 135.210938 594.699219 135.761719 C 594.804688 136.300781 594.726562 136.84375 594.464844 137.367188 C 594.367188 137.574219 594.125 138.003906 593.160156 139.289062 L 591.34375 141.707031 C 591.324219 141.734375 591.304688 141.757812 591.28125 141.777344 Z M 578.921875 135.964844 L 591.128906 145.078125 L 594.167969 141.023438 C 595.390625 139.371094 596.148438 138.300781 596.417969 137.84375 C 596.820312 137.164062 597.039062 136.488281 597.058594 135.84375 C 597.082031 135.199219 596.933594 134.558594 596.617188 133.941406 C 596.300781 133.316406 595.871094 132.800781 595.339844 132.402344 C 594.667969 131.902344 593.960938 131.664062 593.183594 131.671875 C 592.414062 131.683594 591.648438 131.972656 590.90625 132.53125 C 590.761719 132.640625 590.5625 132.644531 590.410156 132.550781 C 590.257812 132.453125 590.183594 132.269531 590.222656 132.09375 C 590.375 131.421875 590.332031 130.789062 590.101562 130.160156 C 589.871094 129.53125 589.492188 129.03125 588.953125 128.625 C 588.460938 128.257812 587.921875 128.039062 587.355469 127.980469 C 586.777344 127.917969 586.226562 127.972656 585.722656 128.144531 C 585.21875 128.320312 584.75 128.609375 584.335938 129.003906 C 583.894531 129.421875 583.289062 130.144531 582.539062 131.140625 Z M 591.492188 146.011719 C 591.433594 146.0625 591.355469 146.097656 591.273438 146.109375 C 591.160156 146.128906 591.046875 146.097656 590.953125 146.03125 L 578.058594 136.402344 C 577.867188 136.257812 577.828125 135.988281 577.972656 135.796875 L 581.847656 130.625 C 582.636719 129.574219 583.257812 128.835938 583.742188 128.378906 C 584.246094 127.894531 584.820312 127.542969 585.445312 127.328125 C 586.070312 127.113281 586.746094 127.042969 587.453125 127.117188 C 588.175781 127.199219 588.855469 127.472656 589.472656 127.929688 C 590.140625 128.429688 590.625 129.078125 590.914062 129.859375 C 591.089844 130.339844 591.179688 130.832031 591.175781 131.335938 C 591.828125 130.996094 592.496094 130.816406 593.175781 130.808594 C 594.136719 130.796875 595.042969 131.097656 595.859375 131.710938 C 596.496094 132.1875 597.011719 132.804688 597.390625 133.546875 C 597.769531 134.296875 597.949219 135.078125 597.925781 135.867188 C 597.898438 136.660156 597.640625 137.472656 597.160156 138.285156 C 596.871094 138.769531 596.121094 139.835938 594.863281 141.535156 L 591.558594 145.941406 C 591.539062 145.96875 591.519531 145.992188 591.492188 146.011719"/></g></g></g><g clip-path="url(#s)"><g clip-path="url(#t)"><g clip-path="url(#u)"><path fill="#FFF" d="M 591.496094 150.726562 C 591.347656 150.851562 591.132812 150.867188 590.964844 150.75 L 572.957031 138.117188 C 572.761719 137.980469 572.714844 137.710938 572.851562 137.515625 C 572.988281 137.320312 573.257812 137.273438 573.453125 137.410156 L 591.464844 150.042969 C 591.660156 150.179688 591.707031 150.449219 591.570312 150.644531 C 591.546875 150.675781 591.523438 150.703125 591.496094 150.726562"/></g></g></g><g clip-path="url(#v)"><g clip-path="url(#w)"><g clip-path="url(#x)"><path fill="#FFF" d="M 579.527344 162.113281 L 562.054688 177.015625 C 561.871094 177.171875 561.597656 177.152344 561.445312 176.96875 C 561.289062 176.789062 561.3125 176.515625 561.496094 176.359375 L 578.96875 161.457031 C 579.148438 161.300781 579.421875 161.324219 579.578125 161.503906 C 579.730469 161.6875 579.710938 161.957031 579.527344 162.113281"/></g></g></g><g clip-path="url(#y)"><g clip-path="url(#z)"><g clip-path="url(#A)"><path fill="#FFF" d="M 453.453125 337.761719 L 482.070312 354.511719 L 498.839844 325.855469 L 470.226562 309.105469 Z M 481.992188 355.636719 L 452.507812 338.378906 C 452.265625 338.238281 452.1875 337.929688 452.328125 337.6875 L 469.609375 308.160156 C 469.75 307.917969 470.058594 307.839844 470.300781 307.980469 L 499.785156 325.238281 C 500.027344 325.378906 500.109375 325.6875 499.96875 325.929688 L 482.683594 355.457031 C 482.542969 355.695312 482.234375 355.777344 481.992188 355.636719"/></g></g></g><g clip-path="url(#B)"><g clip-path="url(#C)"><g clip-path="url(#D)"><path fill="#FFF" d="M 502.265625 329.652344 L 492.566406 361.40625 L 524.285156 371.074219 L 533.984375 339.324219 Z M 491.679688 362.179688 C 491.484375 362.0625 491.382812 361.824219 491.453125 361.59375 L 501.449219 328.875 C 501.53125 328.609375 501.8125 328.460938 502.078125 328.539062 L 534.765625 338.503906 C 535.03125 338.585938 535.179688 338.867188 535.097656 339.132812 L 525.101562 371.851562 C 525.019531 372.121094 524.738281 372.269531 524.472656 372.1875 L 491.789062 362.226562 C 491.75 362.214844 491.714844 362.199219 491.679688 362.179688"/></g></g></g><g clip-path="url(#E)"><g clip-path="url(#F)"><g clip-path="url(#G)"><path fill="#FFF" d="M 488.3125 310.382812 L 516.027344 328.582031 L 534.246094 300.824219 L 506.53125 282.625 Z M 515.917969 329.714844 C 515.910156 329.710938 515.902344 329.707031 515.894531 329.703125 L 487.335938 310.949219 C 487.222656 310.875 487.144531 310.761719 487.117188 310.628906 C 487.089844 310.5 487.117188 310.363281 487.191406 310.25 L 505.964844 281.648438 C 506.117188 281.414062 506.433594 281.351562 506.664062 281.503906 L 535.222656 300.257812 C 535.457031 300.410156 535.519531 300.722656 535.367188 300.957031 L 516.59375 329.558594 C 516.519531 329.667969 516.40625 329.746094 516.273438 329.773438 C 516.152344 329.800781 516.023438 329.78125 515.917969 329.714844"/></g></g></g><g clip-path="url(#H)"><g clip-path="url(#I)"><g clip-path="url(#J)"><path fill="#FFF" d="M 473.644531 332.109375 L 476.824219 333.972656 L 477.753906 328.699219 Z M 476.941406 335.210938 L 472.511719 332.617188 C 472.367188 332.535156 472.277344 332.386719 472.261719 332.222656 C 472.25 332.058594 472.316406 331.898438 472.445312 331.792969 L 478.167969 327.042969 C 478.328125 326.910156 478.558594 326.890625 478.742188 326.996094 C 478.925781 327.105469 479.023438 327.3125 478.984375 327.519531 L 477.691406 334.859375 C 477.664062 335.023438 477.554688 335.164062 477.40625 335.230469 C 477.257812 335.300781 477.082031 335.292969 476.941406 335.210938 Z M 476.453125 342.386719 L 479.078125 343.921875 L 481.929688 324.941406 L 479.054688 323.261719 L 464.070312 335.140625 L 466.605469 336.625 L 469.832031 333.941406 C 469.996094 333.804688 470.226562 333.789062 470.410156 333.894531 L 476.898438 337.691406 C 477.078125 337.796875 477.175781 338.003906 477.140625 338.210938 Z M 479.210938 345.171875 L 475.644531 343.085938 C 475.464844 342.980469 475.367188 342.773438 475.402344 342.570312 L 476.089844 338.390625 L 470.207031 334.945312 L 466.976562 337.628906 C 466.8125 337.761719 466.582031 337.78125 466.398438 337.675781 L 462.921875 335.640625 C 462.78125 335.554688 462.6875 335.40625 462.675781 335.238281 C 462.664062 335.074219 462.734375 334.910156 462.863281 334.808594 L 478.699219 322.253906 C 478.863281 322.125 479.089844 322.109375 479.269531 322.214844 L 482.734375 324.242188 C 482.914062 324.347656 483.007812 324.546875 482.976562 324.753906 L 479.964844 344.8125 C 479.9375 344.976562 479.832031 345.121094 479.683594 345.191406 C 479.53125 345.265625 479.355469 345.257812 479.210938 345.171875"/></g></g></g><g clip-path="url(#K)"><g clip-path="url(#L)"><g clip-path="url(#M)"><path fill="#FFF" d="M 516.65625 297.195312 C 514.839844 296.132812 513.003906 295.816406 511.070312 296.230469 C 508.894531 296.699219 506.921875 298.175781 505.210938 300.625 C 503.597656 302.933594 502.941406 305.210938 503.261719 307.390625 C 503.585938 309.589844 504.6875 311.316406 506.632812 312.675781 C 508.1875 313.761719 509.75 314.28125 511.277344 314.222656 C 512.679688 314.164062 514.105469 313.585938 515.527344 312.5 L 513.800781 310.246094 C 512.820312 311.042969 511.851562 311.5 510.917969 311.609375 C 509.832031 311.730469 508.8125 311.46875 507.882812 310.820312 C 506.640625 309.949219 505.941406 308.765625 505.804688 307.300781 C 505.667969 305.84375 506.304688 304.128906 507.753906 302.058594 C 509.105469 300.125 510.5 298.964844 511.898438 298.609375 C 513.328125 298.25 514.691406 298.511719 515.953125 299.394531 C 516.875 300.039062 517.484375 300.859375 517.773438 301.835938 C 518.011719 302.660156 518.003906 303.511719 517.742188 304.378906 L 520.386719 305.417969 C 520.730469 304.234375 520.808594 303.167969 520.613281 302.246094 C 520.246094 300.441406 519.160156 298.90625 517.394531 297.667969 C 517.148438 297.496094 516.902344 297.339844 516.65625 297.195312 Z M 506.84375 314.011719 C 506.582031 313.859375 506.316406 313.691406 506.054688 313.507812 C 503.898438 312 502.625 309.992188 502.265625 307.539062 C 501.90625 305.09375 502.621094 302.574219 504.382812 300.046875 C 506.246094 297.382812 508.425781 295.765625 510.863281 295.242188 C 513.3125 294.71875 515.703125 295.257812 517.972656 296.839844 C 519.957031 298.230469 521.179688 299.976562 521.605469 302.039062 C 521.863281 303.273438 521.71875 304.691406 521.179688 306.25 C 521.132812 306.382812 521.035156 306.488281 520.910156 306.546875 C 520.785156 306.601562 520.644531 306.605469 520.515625 306.554688 L 516.917969 305.140625 C 516.792969 305.09375 516.695312 304.996094 516.640625 304.871094 C 516.585938 304.746094 516.585938 304.605469 516.636719 304.480469 C 516.972656 303.65625 517.027344 302.882812 516.804688 302.121094 C 516.578125 301.359375 516.113281 300.738281 515.375 300.222656 C 514.347656 299.507812 513.292969 299.300781 512.144531 299.589844 C 510.988281 299.882812 509.789062 300.90625 508.582031 302.636719 C 507.292969 304.476562 506.699219 306.015625 506.808594 307.203125 C 506.917969 308.378906 507.460938 309.289062 508.460938 309.992188 C 509.191406 310.5 509.957031 310.703125 510.804688 310.605469 C 511.65625 310.507812 512.578125 310.015625 513.539062 309.140625 C 513.644531 309.046875 513.785156 309 513.925781 309.011719 C 514.066406 309.027344 514.195312 309.097656 514.277344 309.210938 L 516.628906 312.277344 C 516.792969 312.492188 516.757812 312.796875 516.550781 312.972656 C 514.832031 314.402344 513.070312 315.160156 511.316406 315.230469 C 509.828125 315.289062 508.328125 314.882812 506.84375 314.011719"/></g></g></g><g clip-path="url(#N)"><g clip-path="url(#O)"><g clip-path="url(#P)"><path fill="#FFF" d="M 497.972656 358.9375 C 497.777344 358.824219 497.679688 358.589844 497.742188 358.363281 L 504.808594 333.613281 C 504.886719 333.34375 505.167969 333.1875 505.433594 333.265625 C 505.703125 333.339844 505.855469 333.621094 505.78125 333.890625 L 498.714844 358.640625 C 498.636719 358.90625 498.359375 359.0625 498.089844 358.988281 C 498.046875 358.976562 498.007812 358.957031 497.972656 358.9375"/></g></g></g><g clip-path="url(#Q)"><g clip-path="url(#R)"><g clip-path="url(#S)"><path fill="#FFF" d="M 514.617188 323.621094 C 514.609375 323.617188 514.601562 323.613281 514.597656 323.609375 C 514.363281 323.457031 514.296875 323.144531 514.449219 322.910156 L 528.992188 300.464844 C 529.144531 300.230469 529.457031 300.164062 529.691406 300.316406 C 529.921875 300.464844 529.992188 300.777344 529.839844 301.011719 L 515.296875 323.460938 C 515.148438 323.6875 514.847656 323.757812 514.617188 323.621094"/></g></g></g><g clip-path="url(#T)"><g clip-path="url(#U)"><g clip-path="url(#V)"><path fill="#FFF" d="M 484.136719 138.542969 C 484.550781 137.425781 485.800781 136.855469 486.917969 137.269531 L 503.726562 143.523438 C 504.84375 143.9375 505.417969 145.1875 505 146.304688 L 498.75 163.113281 C 498.332031 164.230469 497.082031 164.804688 495.964844 164.386719 L 479.15625 158.136719 C 478.039062 157.71875 477.46875 156.472656 477.882812 155.351562 Z M 478.851562 158.957031 L 495.660156 165.210938 C 497.230469 165.796875 498.988281 164.992188 499.574219 163.417969 L 505.824219 146.609375 C 506.410156 145.039062 505.605469 143.285156 504.035156 142.699219 L 487.222656 136.445312 C 485.652344 135.859375 483.894531 136.664062 483.3125 138.238281 L 477.058594 155.046875 C 476.472656 156.617188 477.277344 158.375 478.851562 158.957031"/></g></g></g><g clip-path="url(#W)"><g clip-path="url(#X)"><g clip-path="url(#Y)"><path fill="#FFF" d="M 484.320312 154.550781 L 492.648438 144.90625 L 494.371094 145.546875 L 494.398438 158.296875 L 492.65625 157.648438 L 492.742188 154.863281 L 487.808594 153.03125 L 486.0625 155.199219 Z M 488.097656 154.074219 L 491.84375 155.46875 L 491.757812 158.253906 L 495.28125 159.566406 L 495.25 144.9375 L 492.382812 143.871094 L 482.828125 154.933594 L 486.351562 156.242188 L 488.097656 154.074219"/></g></g></g><g clip-path="url(#Z)"><g clip-path="url(#aa)"><g clip-path="url(#ab)"><path fill="#FFF" d="M 465.890625 171.71875 L 466.710938 169.515625 L 468.03125 170.007812 C 468.609375 170.222656 469.007812 170.476562 469.175781 170.746094 C 469.328125 170.980469 469.328125 171.296875 469.175781 171.707031 C 468.980469 172.230469 468.605469 172.703125 467.304688 172.246094 Z M 467.011719 173.074219 C 469.007812 173.777344 469.738281 172.710938 470 172.015625 C 470.25 171.335938 470.222656 170.75 469.917969 170.273438 C 469.636719 169.828125 469.117188 169.472656 468.335938 169.179688 L 466.191406 168.382812 L 464.757812 172.234375 L 467.011719 173.074219"/></g></g></g><g clip-path="url(#ac)"><g clip-path="url(#ad)"><g clip-path="url(#ae)"><path fill="#FFF" d="M 466.960938 177.4375 C 466.632812 177.554688 466.222656 177.527344 465.742188 177.347656 L 464.03125 176.710938 L 464.933594 174.292969 L 466.785156 174.980469 C 467.691406 175.335938 467.941406 175.855469 467.617188 176.726562 C 467.480469 177.09375 467.265625 177.328125 466.960938 177.4375 Z M 467.101562 174.160156 L 464.414062 173.160156 L 462.902344 177.230469 L 465.433594 178.171875 C 466.117188 178.425781 466.730469 178.457031 467.257812 178.265625 C 467.816406 178.0625 468.210938 177.648438 468.441406 177.035156 C 468.933594 175.707031 468.457031 174.6875 467.101562 174.160156"/></g></g></g><g clip-path="url(#af)"><g clip-path="url(#ag)"><g clip-path="url(#ah)"><path fill="#FFF" d="M 474.257812 185.976562 C 473.839844 187.09375 472.59375 187.664062 471.472656 187.25 L 454.667969 180.996094 C 453.546875 180.582031 452.976562 179.332031 453.394531 178.214844 L 459.644531 161.40625 C 460.0625 160.289062 461.308594 159.714844 462.425781 160.132812 L 479.234375 166.382812 C 480.355469 166.800781 480.925781 168.046875 480.507812 169.167969 Z M 479.542969 165.5625 L 462.734375 159.308594 C 461.160156 158.722656 459.40625 159.527344 458.820312 161.101562 L 452.570312 177.910156 C 451.984375 179.480469 452.789062 181.238281 454.359375 181.820312 L 471.167969 188.074219 C 472.742188 188.660156 474.496094 187.855469 475.082031 186.28125 L 481.332031 169.472656 C 481.917969 167.902344 481.117188 166.148438 479.542969 165.5625"/></g></g></g><g clip-path="url(#ai)"><g clip-path="url(#aj)"><g clip-path="url(#ak)"><path fill="#FFF" d="M 468.273438 179.625 C 467.417969 179.910156 466.339844 179.820312 465.074219 179.363281 L 460.816406 177.78125 L 464.980469 166.589844 L 468.777344 168 C 470.136719 168.507812 471.074219 169.144531 471.566406 169.898438 C 472.035156 170.621094 472.09375 171.433594 471.742188 172.382812 C 471.550781 172.890625 471.265625 173.277344 470.867188 173.566406 C 470.464844 173.847656 470.015625 173.992188 469.484375 174 L 468.101562 174.019531 L 469.242188 174.800781 C 469.722656 175.128906 470.027344 175.535156 470.179688 176.039062 C 470.332031 176.550781 470.300781 177.085938 470.082031 177.675781 C 469.699219 178.707031 469.105469 179.347656 468.273438 179.625 Z M 470.460938 174.730469 C 470.789062 174.632812 471.097656 174.480469 471.375 174.28125 C 471.914062 173.894531 472.316406 173.359375 472.566406 172.6875 C 473.015625 171.476562 472.929688 170.378906 472.304688 169.417969 C 471.707031 168.503906 470.625 167.75 469.082031 167.175781 L 464.460938 165.457031 L 459.6875 178.296875 L 464.773438 180.1875 C 466.230469 180.71875 467.503906 180.808594 468.550781 180.457031 C 469.636719 180.09375 470.429688 179.261719 470.90625 177.980469 C 471.191406 177.214844 471.230469 176.476562 471.019531 175.785156 C 470.902344 175.398438 470.71875 175.042969 470.460938 174.730469"/></g></g></g><g clip-path="url(#al)"><g clip-path="url(#am)"><g clip-path="url(#an)"><path fill="#FFF" d="M 502.34375 196.421875 C 501.925781 197.542969 500.679688 198.113281 499.5625 197.695312 L 482.753906 191.445312 C 481.636719 191.027344 481.0625 189.78125 481.480469 188.664062 L 487.730469 171.855469 C 488.148438 170.734375 489.394531 170.164062 490.515625 170.578125 L 507.324219 176.832031 C 508.441406 177.246094 509.011719 178.496094 508.59375 179.613281 Z M 507.628906 176.007812 L 490.820312 169.757812 C 489.246094 169.171875 487.492188 169.972656 486.90625 171.546875 L 480.65625 188.355469 C 480.070312 189.929688 480.875 191.683594 482.445312 192.269531 L 499.253906 198.519531 C 500.828125 199.105469 502.582031 198.300781 503.167969 196.730469 L 509.417969 179.921875 C 510.003906 178.347656 509.199219 176.59375 507.628906 176.007812"/></g></g></g></svg>