<svg xmlns="http://www.w3.org/2000/svg" width="1012.5" viewBox="0 0 1012.5 487.5" height="487.5" version="1.0"><defs><clipPath id="a"><path d="M 532 85.078125 L 554 85.078125 L 554 105 L 532 105 Z M 532 85.078125"/></clipPath><clipPath id="b"><path d="M 611 112 L 631.855469 112 L 631.855469 131 L 611 131 Z M 611 112"/></clipPath><clipPath id="c"><path d="M 380.761719 190.871094 L 548.640625 190.871094 L 548.640625 402.15625 L 380.761719 402.15625 Z M 380.761719 190.871094"/></clipPath></defs><g clip-path="url(#a)"><path fill="#FFF" d="M 539.300781 101.0625 C 540.710938 100.050781 541.179688 98.0625 542.910156 97.855469 C 544.804688 97.625 546.917969 99.703125 549.332031 99.457031 C 548.554688 97.496094 547.011719 96.292969 546.519531 94.042969 C 547.203125 92.921875 548.511719 92.425781 549.53125 91.636719 C 545.734375 92.125 543.390625 90.40625 541.910156 88.027344 C 541.273438 89.667969 540.445312 91.109375 539.703125 92.640625 C 538.464844 92.957031 536.394531 92.886719 535.089844 93.640625 C 536.613281 94.660156 538.480469 95.332031 539.902344 96.449219 C 540.113281 98.265625 539.09375 99.914062 539.300781 101.0625 Z M 545.921875 89.433594 C 548.472656 89.550781 551.625 89.078125 553.140625 90.234375 C 553.136719 93.101562 550.546875 93.386719 548.726562 94.445312 C 549.140625 96.5625 552.25 97.820312 551.9375 100.058594 C 551.5 103.203125 545.246094 100.957031 543.3125 99.855469 C 541.867188 100.003906 540.230469 104.546875 538.296875 104.269531 C 536.136719 103.957031 537.136719 99.449219 538.097656 97.855469 C 536.480469 96.234375 531.730469 95.203125 532.28125 92.640625 C 532.703125 90.675781 536.277344 91.605469 538.296875 90.835938 C 539.917969 89.574219 539.5625 85.75 541.507812 85.421875 C 543.582031 85.078125 544.378906 88.277344 545.921875 89.433594" fill-rule="evenodd"/></g><path fill="#FFF" d="M 585.027344 102.464844 C 580.609375 98.59375 570.816406 99.585938 566.980469 103.265625 C 566.375 102.867188 565.894531 102.34375 564.972656 102.265625 C 564.695312 103.523438 563.777344 104.140625 563.367188 105.273438 C 563.867188 105.574219 564.285156 105.960938 564.371094 106.675781 C 561.316406 110.972656 563.378906 118.074219 566.578125 120.707031 C 565.808594 120.894531 566.15625 122.507812 565.175781 121.910156 C 565.289062 122.933594 565.960938 123.398438 566.980469 123.515625 C 566.898438 122.5 567.742188 122.40625 567.984375 121.710938 C 575.367188 127.355469 588.835938 123.503906 590.246094 114.894531 C 590.582031 115.160156 590.917969 115.425781 591.648438 115.296875 C 592.257812 114.652344 592.121094 112.976562 591.648438 112.289062 C 591.171875 111.667969 590.496094 112.289062 590.042969 111.886719 C 589.402344 111.140625 590.777344 111.136719 590.445312 110.082031 C 588.902344 107.539062 589.417969 104.167969 587.035156 102.464844 C 586.367188 102.464844 585.699219 102.464844 585.027344 102.464844 Z M 593.855469 116.902344 C 593.253906 117.371094 592.6875 117.871094 591.648438 117.902344 C 589.125 125.117188 577.367188 129.335938 568.785156 124.917969 C 566.570312 126.863281 563.765625 124.613281 562.96875 122.714844 C 562.820312 121.765625 563.253906 121.394531 563.570312 120.910156 C 560.886719 118.199219 559.300781 110.921875 561.765625 106.675781 C 559.933594 103.703125 563.007812 98.882812 566.578125 100.660156 C 572.019531 96.722656 579.917969 96.8125 585.230469 99.859375 C 585.796875 100.183594 586.480469 100.84375 587.035156 101.0625 C 587.621094 101.292969 588.175781 100.984375 588.640625 101.261719 C 589.554688 101.808594 590.085938 103.140625 590.847656 103.667969 C 590.996094 106.457031 592.691406 107.703125 592.851562 110.484375 C 593.039062 111.367188 594.128906 111.34375 594.253906 112.289062 C 594.441406 114.144531 594 115.371094 593.855469 116.902344" fill-rule="evenodd"/><path fill="#FFF" d="M 573.597656 103.066406 C 573.695312 104.167969 572.367188 104.683594 571.59375 104.269531 C 571.800781 103.410156 572.453125 102.992188 573.597656 103.066406" fill-rule="evenodd"/><path fill="#FFF" d="M 583.425781 103.265625 C 582.183594 104.992188 583.058594 107.609375 584.832031 108.078125 C 582.375 110.078125 580.566406 103.667969 583.425781 103.265625" fill-rule="evenodd"/><path fill="#FFF" d="M 585.429688 104.070312 C 585.402344 105.304688 586.300781 105.605469 586.632812 106.476562 C 585.796875 108.429688 583.664062 106.222656 584.027344 104.46875 C 584.378906 104.007812 584.777344 103.734375 585.429688 104.070312" fill-rule="evenodd"/><path fill="#FFF" d="M 577.410156 106.472656 C 577.347656 106.953125 577.3125 108.996094 576.007812 108.878906 C 575.914062 107.519531 576.199219 106.535156 577.410156 106.472656" fill-rule="evenodd"/><path fill="#FFF" d="M 569.988281 109.683594 C 569.824219 110.589844 569.855469 111.691406 568.785156 111.6875 C 568.621094 111.023438 568.644531 109.441406 569.988281 109.683594" fill-rule="evenodd"/><path fill="#FFF" d="M 580.015625 111.886719 C 580.285156 111.886719 580.550781 111.886719 580.816406 111.886719 C 581.539062 112.382812 581.992188 115.222656 580.214844 114.894531 C 580.578125 114.003906 580.394531 112.609375 580.015625 111.886719" fill-rule="evenodd"/><path fill="#FFF" d="M 494.976562 153.390625 C 498.953125 166.136719 509.402344 176.386719 524.859375 176.445312 C 537.296875 176.496094 546.902344 169.191406 551.734375 160.808594 C 553.089844 158.457031 554.691406 155.773438 554.542969 152.789062 C 536.277344 155.328125 513.546875 154.269531 494.976562 153.390625 Z M 562.367188 147.175781 C 560.511719 147.644531 558.320312 148.101562 556.347656 148.378906 C 534.617188 151.433594 504.933594 150.355469 484.949219 146.773438 C 484.117188 146.132812 483.417969 145.359375 482.140625 145.167969 C 482.242188 145.765625 482 146.71875 482.140625 147.175781 C 482.875 149.542969 491.523438 150.972656 494.375 151.386719 C 496.347656 151.667969 499.472656 151.414062 501.59375 151.585938 C 519.683594 153.046875 545.601562 153.988281 561.964844 149.78125 C 564.132812 149.222656 567.484375 148.703125 566.980469 145.570312 C 565.28125 145.507812 564.035156 146.75 562.367188 147.175781 Z M 557.550781 143.566406 C 560.628906 143.601562 564.601562 146.101562 566.378906 143.363281 C 563.9375 141.929688 560.542969 141.445312 557.351562 140.757812 C 557.207031 141.90625 557.566406 142.550781 557.550781 143.566406 Z M 482.941406 143.363281 C 484.847656 146.1875 488.84375 143.4375 492.167969 143.566406 C 492.351562 143.007812 493.09375 141.117188 492.167969 140.757812 C 488.851562 141.386719 485.445312 141.925781 482.941406 143.363281 Z M 546.921875 123.519531 C 541.757812 118.355469 532.988281 113.765625 523.054688 114.496094 C 505.964844 115.75 494.503906 128.546875 493.972656 146.574219 C 512.917969 149.089844 536.960938 148.933594 555.949219 146.574219 C 555.8125 136.808594 552.5 129.09375 546.921875 123.519531 Z M 557.351562 138.355469 C 561.550781 139.371094 566.488281 139.644531 568.785156 142.5625 C 568.816406 144.957031 569.714844 146.472656 569.1875 148.175781 C 568.011719 151.957031 561.738281 152.070312 557.550781 152.988281 C 552.777344 167.335938 543.445312 178.375 525.261719 178.652344 C 507.183594 178.925781 497.226562 167.597656 492.570312 153.390625 C 488.425781 151.914062 480.890625 152.191406 479.933594 147.777344 C 479.546875 145.996094 480.660156 144.757812 480.535156 142.5625 C 482.933594 139.613281 487.929688 139.265625 492.367188 138.355469 C 496.09375 124.539062 506.503906 113.375 522.253906 112.289062 C 541.828125 110.941406 553.496094 123.417969 557.351562 138.355469" fill-rule="evenodd"/><path fill="#FFF" d="M 566.378906 115.898438 C 567.28125 115.800781 567.367188 114.882812 567.378906 113.894531 C 566.996094 113.808594 567.015625 113.320312 566.378906 113.492188 C 566.097656 114.125 566.097656 115.261719 566.378906 115.898438 Z M 567.582031 112.6875 C 569.125 114.046875 568.226562 117.503906 566.175781 117.101562 C 564.101562 116.691406 564.507812 111.4375 567.582031 112.6875" fill-rule="evenodd"/><g clip-path="url(#b)"><path fill="#FFF" d="M 619.527344 117.300781 C 618.175781 116.515625 616.753906 115.792969 615.316406 115.09375 C 615.808594 117.140625 616.953125 118.539062 617.523438 120.507812 C 616.601562 121.792969 615.207031 122.605469 614.113281 123.71875 C 615.648438 123.515625 616.992188 123.121094 618.726562 123.113281 C 620.394531 124.789062 621.441406 127.085938 623.339844 128.527344 C 623.703125 126.417969 623.148438 123.394531 624.542969 122.3125 C 625.644531 122.414062 627.171875 122.09375 627.949219 122.511719 C 625.835938 120.75 623.789062 118.921875 623.941406 114.894531 C 622.6875 115.914062 621.023438 116.523438 619.527344 117.300781 Z M 619.527344 115.09375 C 621.523438 114.8125 623.132812 112.1875 624.945312 112.488281 C 627.039062 112.835938 625.976562 115.71875 626.546875 118.101562 C 626.78125 119.773438 631.707031 121.195312 631.761719 123.113281 C 631.832031 125.464844 627.867188 124.617188 625.546875 124.117188 C 625.453125 126.632812 625.859375 129.644531 624.542969 130.933594 C 620.675781 130.722656 619.75 127.570312 618.125 125.117188 C 615.980469 125.382812 614.132812 125.941406 611.90625 126.121094 C 610.011719 123.339844 613.65625 121.484375 615.316406 120.308594 C 614.394531 118.210938 612.636719 115.914062 613.308594 112.890625 C 615.773438 111.777344 617.59375 114.386719 619.527344 115.09375" fill-rule="evenodd"/></g><path fill="#FFF" d="M 570.589844 113.894531 C 572.371094 113.976562 571.359375 116.996094 569.988281 116.902344 C 569.410156 115.847656 570.804688 115.234375 570.589844 113.894531" fill-rule="evenodd"/><path fill="#FFF" d="M 580.617188 120.109375 C 580.828125 121.421875 578.183594 122.304688 578.210938 120.511719 C 579.152344 120.601562 579.675781 119.742188 580.617188 120.109375" fill-rule="evenodd"/><path fill="#FFF" d="M 576.40625 174.039062 C 577.476562 174.855469 578.53125 173.792969 579.613281 172.835938 C 581.074219 171.546875 582.84375 170.621094 581.417969 168.828125 C 579.296875 170.117188 577.386719 171.609375 576.40625 174.039062 Z M 619.726562 159.40625 C 609.917969 165.574219 600.890625 172.519531 588.640625 176.246094 C 592.164062 180.511719 598.503906 182.558594 604.484375 181.859375 C 614.4375 180.695312 621.777344 169.933594 620.328125 159.203125 C 620.316406 159.082031 620.300781 158.964844 620.128906 159.003906 C 620.125 159.269531 619.777344 159.1875 619.726562 159.40625 Z M 584.429688 175.847656 C 587.328125 175.148438 590.515625 174.40625 592.851562 173.4375 C 594.164062 172.894531 595.503906 171.675781 597.066406 170.832031 C 598.578125 170.015625 600.324219 169.449219 601.878906 168.628906 C 608.382812 165.179688 612.847656 162.050781 618.925781 158 C 621.613281 156.210938 627.925781 151.78125 624.945312 149.378906 C 624.894531 149.664062 624.613281 149.71875 624.542969 149.980469 C 624.242188 150.152344 624.109375 150.484375 624.140625 150.984375 C 619.167969 156 612.433594 159.914062 605.6875 163.816406 C 599.132812 167.609375 591.882812 171.800781 584.429688 174.039062 C 582.105469 174.738281 579.382812 175.070312 576.804688 175.242188 C 577.808594 178.5 582.117188 176.398438 584.429688 175.847656 Z M 618.523438 148.980469 C 619.125 149.3125 618.90625 150.46875 619.726562 150.582031 C 621.632812 150.082031 624.0625 150.105469 624.339844 147.976562 C 622 147.910156 620.078125 148.257812 618.523438 148.980469 Z M 599.269531 139.957031 C 584.246094 140.472656 576.472656 159.410156 585.027344 172.234375 C 597.664062 167.289062 609.300781 161.347656 618.925781 153.390625 C 615.414062 146.035156 609.339844 139.609375 599.269531 139.957031 Z M 618.121094 146.972656 C 622.71875 144.640625 627.640625 146.71875 627.75 150.984375 C 627.847656 154.769531 624.101562 155.429688 622.535156 158 C 624.75 172.910156 614.101562 185.539062 599.46875 184.265625 C 593.808594 183.773438 590.675781 181.019531 586.636719 178.25 C 583.550781 178.898438 579.511719 180.097656 577.007812 178.851562 C 575.46875 178.085938 574.3125 175.414062 574.601562 173.238281 C 574.988281 170.289062 578.542969 169.191406 580.214844 167.023438 C 576.445312 152.117188 584.703125 139.035156 597.867188 137.75 C 607.730469 136.789062 613.40625 141.75 618.121094 146.972656" fill-rule="evenodd"/><path fill="#FFF" d="M 557.753906 178.449219 C 556.75 177.515625 555.183594 177.144531 553.742188 176.644531 C 554.359375 178.570312 555.609375 179.859375 556.351562 181.660156 C 555.613281 183.128906 554.050781 183.773438 553.339844 185.265625 C 554.722656 184.78125 556.214844 184.398438 557.953125 184.265625 C 558.613281 185.03125 559.484375 185.9375 560.359375 186.871094 C 561.148438 187.710938 562.050781 189.164062 562.765625 188.875 C 562.765625 186.9375 562.695312 184.929688 562.96875 183.261719 C 563.792969 182.710938 565.777344 182.382812 566.976562 182.863281 C 564.355469 181.214844 562.585938 179.375 562.164062 175.644531 C 560.910156 176.796875 559.378906 177.671875 557.753906 178.449219 Z M 564.972656 178.652344 C 565.445312 179.84375 570.738281 181.410156 570.789062 183.261719 C 570.84375 185.253906 567.46875 185.027344 564.972656 184.667969 C 564.363281 186.515625 565.855469 190.308594 564.171875 191.484375 C 560.050781 191.589844 559.179688 188.449219 557.351562 186.269531 C 555.152344 186.484375 552.300781 188.550781 550.332031 187.074219 C 550.503906 184.238281 552.425781 183.148438 554.144531 181.859375 C 553.019531 179.640625 551.363281 177.957031 551.335938 174.640625 C 553.472656 173.054688 555.78125 175.5625 557.753906 176.042969 C 559.8125 176.003906 561.027344 173.070312 562.765625 173.039062 C 564.964844 172.996094 564.738281 175.851562 564.972656 178.652344" fill-rule="evenodd"/><path fill="#FFF" d="M 531.679688 195.691406 C 532.003906 195.636719 532.027344 195.882812 532.28125 195.894531 C 533.5 205.621094 536.359375 214.359375 540.503906 221.355469 C 540.953125 222.113281 542.050781 223.363281 541.308594 224.363281 C 539.886719 223.457031 539.007812 221.597656 538.097656 219.953125 C 535.652344 215.53125 533.632812 209.292969 532.28125 203.511719 C 531.753906 201.261719 531.460938 197.929688 531.679688 195.691406" fill-rule="evenodd"/><path fill="#FFF" d="M 542.910156 216.34375 C 541.992188 209.777344 540.476562 203.808594 537.09375 199.703125 C 538.472656 205.8125 540.152344 211.617188 542.910156 216.34375 Z M 545.320312 221.957031 C 543.304688 221.097656 542.722656 218.589844 541.707031 216.746094 C 538.765625 211.398438 536.125 204.5 535.289062 197.5 C 535.257812 197.265625 535.335938 197.140625 535.488281 197.097656 C 535.652344 196.957031 536.039062 196.785156 536.09375 197.097656 C 542.367188 202.1875 543.324219 212.589844 545.320312 221.957031" fill-rule="evenodd"/><path fill="#FFF" d="M 464.890625 251.027344 C 464.914062 251.605469 464.78125 252.339844 465.09375 252.632812 C 465.867188 252.539062 466.3125 252.113281 466.296875 251.230469 C 465.8125 250.726562 465.765625 251.039062 464.890625 251.027344 Z M 464.691406 253.835938 C 461.167969 251.140625 466.804688 247.292969 467.5 251.027344 C 467.808594 252.691406 466.652344 253.847656 464.691406 253.835938" fill-rule="evenodd"/><path fill="#FFF" d="M 384.464844 271.078125 C 384.664062 271.078125 384.867188 271.078125 385.066406 271.078125 C 385.3125 271.605469 385.847656 272.554688 385.46875 273.082031 C 384.347656 273.199219 384.460938 272.082031 384.464844 271.078125" fill-rule="evenodd"/><g clip-path="url(#c)"><path fill="#FFF" d="M 467.898438 288.117188 C 467.9375 286.351562 468.46875 285.636719 467.097656 285.511719 C 466.566406 285.464844 465.902344 285.949219 465.292969 285.714844 C 464.558594 321.078125 464.890625 359.242188 464.890625 395.582031 C 464.890625 397.832031 464.484375 400.792969 467.898438 399.992188 C 468.507812 364.421875 467.097656 325.351562 467.898438 288.117188 Z M 470.105469 285.511719 C 479.691406 316.582031 489.382812 349.792969 499.390625 381.347656 C 500.363281 384.425781 500.660156 389.109375 504.203125 386.960938 C 504.097656 384.851562 503.007812 382.933594 502.398438 380.945312 C 492.589844 348.96875 482.863281 316.871094 473.113281 285.113281 C 473.101562 284.988281 473.085938 284.875 472.914062 284.910156 C 472.476562 284.8125 471.023438 285.421875 470.105469 285.511719 Z M 452.457031 310.574219 C 445.367188 333.996094 438.128906 357.816406 430.996094 380.945312 C 430.359375 383.011719 429.382812 385.019531 429.191406 387.164062 C 429.804688 387.550781 430.738281 387.621094 431.796875 387.5625 C 440.1875 362.355469 447.839844 336.558594 455.464844 311.175781 C 458.046875 302.582031 461.296875 294.1875 463.085938 285.3125 C 462.457031 284.871094 461.324219 284.9375 460.679688 284.511719 C 458.015625 292.886719 455.085938 301.890625 452.457031 310.574219 Z M 461.082031 283.109375 C 464.195312 284.445312 469.480469 284.3125 473.113281 283.507812 C 472.984375 282.765625 473.375 281.511719 472.914062 281.101562 C 469.914062 282.839844 463.25 282.726562 460.480469 280.902344 C 460.574219 281.738281 460.863281 282.386719 461.082031 283.109375 Z M 383.863281 274.285156 C 384.34375 275.648438 384.804688 277.613281 386.070312 277.695312 C 385.929688 275.023438 386.675781 274.359375 388.875 273.882812 C 388.320312 272.4375 387.378906 271.371094 387.070312 269.671875 C 386.195312 269.535156 385.941406 270.015625 385.066406 269.875 C 384.066406 269.671875 384.09375 268.441406 383.058594 268.269531 C 382.324219 270.308594 383.175781 272.34375 383.863281 274.285156 Z M 402.113281 257.242188 C 397.695312 259.707031 392.40625 261.308594 387.875 263.660156 C 387.429688 269.367188 390.476562 273.179688 392.886719 276.691406 C 397.800781 274.449219 402.777344 272.277344 407.929688 270.277344 C 405.320312 266.601562 403.597656 262.039062 402.113281 257.242188 Z M 469.304688 245.617188 C 465.320312 246.84375 461.039062 247.777344 458.273438 250.226562 C 458.65625 252.449219 459.210938 254.503906 459.675781 256.640625 C 462.003906 256.5625 462.75 254.902344 464.890625 254.636719 C 464.316406 260.027344 465.679688 270.847656 464.890625 276.289062 C 464.632812 278.082031 461.40625 277.738281 461.28125 279.5 C 463.722656 281.003906 468.703125 280.945312 472.113281 280.300781 C 471.828125 278.113281 469.601562 277.867188 468.300781 276.691406 C 468.3125 268.984375 468.285156 260.28125 468.300781 253.234375 C 469.476562 252.738281 470.851562 252.441406 471.910156 251.832031 C 470.925781 250.679688 469.792969 247.933594 469.304688 245.617188 Z M 403.316406 251.628906 C 403.507812 261.53125 407.792969 268.175781 412.746094 273.882812 C 421.289062 270.328125 429.816406 266.757812 438.617188 263.460938 C 433.984375 257.464844 431.074219 249.75 429.191406 241.003906 C 420.632812 244.613281 411.808594 247.953125 403.316406 251.628906 Z M 430.394531 237.996094 C 431.820312 248.34375 435.398438 258.066406 441.625 264.261719 C 447.132812 261.882812 452.710938 259.570312 458.472656 257.445312 C 458.25 254.621094 456.203125 251.519531 457.070312 249.222656 C 457.636719 247.71875 461.058594 246.253906 462.886719 245.617188 C 465.234375 244.796875 467.929688 244.082031 470.105469 244.410156 C 471.398438 246.53125 471.683594 249.65625 473.316406 251.429688 C 477.617188 249.449219 482.140625 247.6875 486.753906 246.015625 C 481.710938 238.492188 478.394531 229.246094 475.921875 219.148438 C 461.039062 225.726562 445.257812 231.402344 430.394531 237.996094 Z M 476.925781 215.941406 C 479.449219 228.65625 483.058594 240.285156 490.765625 247.820312 C 509.234375 240.351562 527.316406 232.5 546.320312 225.566406 C 547.3125 210.105469 541.582031 199.71875 533.484375 192.6875 C 515.113281 200.921875 495.796875 208.207031 476.925781 215.941406 Z M 533.285156 190.882812 C 535.839844 190.777344 538.394531 194.71875 540.101562 196.695312 C 545.761719 203.234375 549.136719 213.039062 548.527344 225.164062 C 544.824219 228.519531 539.539062 229.902344 534.488281 231.980469 C 522.53125 236.90625 510.398438 241.972656 497.785156 247.019531 C 495.804688 247.808594 491.867188 249.925781 490.363281 249.824219 C 488.566406 249.707031 488.519531 248.035156 487.152344 247.21875 C 481.855469 249.875 476.042969 252.019531 470.304688 254.238281 C 470.304688 261.253906 470.304688 268.269531 470.304688 275.289062 C 471.792969 276.960938 474.019531 277.785156 474.71875 279.898438 C 475.078125 280.984375 474.71875 282.242188 474.917969 283.707031 C 475.492188 287.863281 477.601562 292.363281 478.929688 296.742188 C 486.769531 322.589844 494.722656 348.308594 502.597656 374.332031 C 503.925781 378.71875 505.984375 382.933594 506.207031 387.5625 C 505.546875 389.175781 502.867188 389.835938 500.59375 389.167969 C 497.699219 386.210938 497.152344 381.75 495.980469 377.9375 C 487.460938 350.3125 478.734375 321.765625 470.304688 293.933594 C 469.941406 325.792969 470.105469 360.09375 470.105469 392.976562 C 470.105469 396.617188 470.929688 400.988281 468.300781 402 C 467.105469 402.457031 463.960938 401.847656 463.285156 400.996094 C 461.90625 399.253906 462.683594 392.164062 462.683594 388.363281 C 462.6875 357.707031 462.683594 325.75 462.683594 295.9375 C 454.058594 323.085938 445.875 351.054688 437.414062 378.542969 C 436.273438 382.246094 435.429688 386.308594 433 389.367188 C 430.875 389.933594 428.039062 389.535156 427.386719 387.964844 C 427.164062 383.261719 429.476562 378.921875 430.792969 374.53125 C 439.21875 346.496094 448.097656 317.890625 456.667969 289.523438 C 457.316406 287.375 458.625 285.148438 458.875 283.308594 C 459.101562 281.621094 458.464844 279.945312 459.074219 278.496094 C 459.761719 276.863281 461.351562 276.398438 462.886719 275.289062 C 462.886719 269.339844 462.886719 263.390625 462.886719 257.445312 C 458.078125 259.117188 452.300781 261.753906 447.039062 263.859375 C 444.234375 264.984375 441.425781 266.917969 439.019531 264.660156 C 433.238281 267.210938 425.492188 270.289062 418.558594 273.082031 C 416.667969 273.84375 413.316406 275.898438 411.742188 275.6875 C 409.964844 275.453125 409.402344 272.898438 408.332031 272.082031 C 406.238281 272.941406 403.613281 274.058594 400.710938 275.289062 C 398.265625 276.324219 394.777344 278.402344 392.886719 278.296875 C 390.851562 278.179688 390.675781 275.949219 389.078125 275.6875 C 387.832031 277.128906 388.855469 279.492188 386.46875 279.898438 C 382.039062 280.65625 378.398438 266.867188 382.660156 266.066406 C 384.511719 265.71875 384.472656 266.941406 385.867188 267.667969 C 385.160156 266.542969 385.523438 264.3125 385.667969 262.859375 C 390.472656 260.175781 395.679688 257.894531 401.511719 256.242188 C 401.324219 254.152344 401.378906 252.742188 401.3125 250.828125 C 410.273438 247.019531 419.316406 243.296875 428.589844 239.800781 C 428.683594 238.761719 428.371094 237.3125 428.789062 236.59375 C 444.304688 230.449219 459.542969 224.03125 475.121094 217.945312 C 474.140625 213.566406 478.882812 213.316406 482.742188 211.734375 C 497.199219 205.796875 510.785156 200.207031 525.460938 194.289062 C 528.425781 193.09375 531.53125 192.28125 533.285156 190.882812" fill-rule="evenodd"/></g></svg>