<svg xmlns="http://www.w3.org/2000/svg" width="1012.5" viewBox="0 0 1012.5 487.5" height="487.5" version="1.0"><defs><clipPath id="a"><path d="M 589 158.042969 L 592.632812 158.042969 L 592.632812 161 L 589 161 Z M 589 158.042969"/></clipPath><clipPath id="b"><path d="M 420.246094 159.625 L 588.125 159.625 L 588.125 370.910156 L 420.246094 370.910156 Z M 420.246094 159.625"/></clipPath></defs><g clip-path="url(#a)"><path fill="#FFF" d="M 597.238281 147.203125 C 596.238281 146.269531 594.667969 145.894531 593.226562 145.398438 C 593.84375 147.320312 595.097656 148.609375 595.835938 150.410156 C 595.101562 151.882812 593.535156 152.527344 592.824219 154.019531 C 594.210938 153.53125 595.699219 153.152344 597.4375 153.019531 C 598.097656 153.78125 598.96875 154.691406 599.847656 155.625 C 600.632812 156.460938 601.535156 157.917969 602.253906 157.628906 C 602.25 155.691406 602.183594 153.683594 602.453125 152.015625 C 603.277344 151.464844 605.265625 151.136719 606.464844 151.617188 C 603.84375 149.964844 602.074219 148.128906 601.652344 144.398438 C 600.398438 145.546875 598.863281 146.421875 597.238281 147.203125 Z M 604.460938 147.40625 C 604.929688 148.59375 610.222656 150.164062 610.273438 152.015625 C 610.332031 154.007812 606.957031 153.777344 604.460938 153.421875 C 603.847656 155.269531 605.34375 159.0625 603.65625 160.234375 C 599.539062 160.34375 598.667969 157.203125 596.839844 155.023438 C 594.636719 155.238281 591.785156 157.304688 589.816406 155.824219 C 589.988281 152.988281 591.910156 151.902344 593.628906 150.613281 C 592.507812 148.394531 590.847656 146.710938 590.820312 143.394531 C 592.960938 141.808594 595.265625 144.316406 597.238281 144.796875 C 599.300781 144.753906 600.515625 141.824219 602.253906 141.789062 C 604.449219 141.75 604.222656 144.605469 604.460938 147.40625" fill-rule="evenodd"/></g><path fill="#FFF" d="M 571.167969 164.445312 C 571.488281 164.390625 571.511719 164.636719 571.765625 164.644531 C 572.988281 174.375 575.847656 183.113281 579.992188 190.109375 C 580.441406 190.867188 581.535156 192.117188 580.792969 193.117188 C 579.371094 192.210938 578.496094 190.351562 577.582031 188.707031 C 575.136719 184.285156 573.121094 178.046875 571.765625 172.265625 C 571.242188 170.015625 570.949219 166.679688 571.167969 164.445312" fill-rule="evenodd"/><path fill="#FFF" d="M 582.398438 185.097656 C 581.480469 178.53125 579.960938 172.558594 576.578125 168.457031 C 577.957031 174.566406 579.636719 180.371094 582.398438 185.097656 Z M 584.804688 190.710938 C 582.792969 189.851562 582.207031 187.34375 581.191406 185.5 C 578.25 180.148438 575.609375 173.253906 574.777344 166.25 C 574.742188 166.015625 574.820312 165.894531 574.976562 165.847656 C 575.136719 165.710938 575.527344 165.539062 575.578125 165.847656 C 581.851562 170.941406 582.808594 181.339844 584.804688 190.710938" fill-rule="evenodd"/><path fill="#FFF" d="M 504.378906 219.78125 C 504.402344 220.359375 504.269531 221.09375 504.578125 221.386719 C 505.355469 221.292969 505.796875 220.867188 505.78125 219.980469 C 505.300781 219.480469 505.25 219.792969 504.378906 219.78125 Z M 504.175781 222.585938 C 500.65625 219.894531 506.289062 216.042969 506.984375 219.78125 C 507.292969 221.445312 506.140625 222.597656 504.175781 222.585938" fill-rule="evenodd"/><path fill="#FFF" d="M 423.949219 239.832031 C 424.148438 239.832031 424.351562 239.832031 424.550781 239.832031 C 424.796875 240.359375 425.335938 241.308594 424.953125 241.835938 C 423.832031 241.953125 423.945312 240.835938 423.949219 239.832031" fill-rule="evenodd"/><g clip-path="url(#b)"><path fill="#FFF" d="M 507.386719 256.871094 C 507.425781 255.101562 507.957031 254.390625 506.582031 254.265625 C 506.050781 254.21875 505.386719 254.703125 504.777344 254.46875 C 504.046875 289.832031 504.375 327.996094 504.375 364.335938 C 504.375 366.585938 503.96875 369.546875 507.386719 368.746094 C 507.992188 333.175781 506.582031 294.105469 507.386719 256.871094 Z M 509.589844 254.265625 C 519.179688 285.335938 528.871094 318.546875 538.875 350.101562 C 539.851562 353.179688 540.144531 357.863281 543.6875 355.714844 C 543.585938 353.605469 542.492188 351.6875 541.882812 349.699219 C 532.074219 317.71875 522.347656 285.625 512.601562 253.863281 C 512.589844 253.742188 512.570312 253.628906 512.398438 253.664062 C 511.960938 253.566406 510.511719 254.175781 509.589844 254.265625 Z M 491.941406 279.328125 C 484.851562 302.75 477.613281 326.570312 470.480469 349.699219 C 469.84375 351.765625 468.867188 353.773438 468.675781 355.914062 C 469.289062 356.304688 470.222656 356.375 471.285156 356.316406 C 479.671875 331.105469 487.324219 305.3125 494.949219 279.929688 C 497.53125 271.332031 500.78125 262.941406 502.570312 254.066406 C 501.941406 253.625 500.808594 253.6875 500.164062 253.265625 C 497.503906 261.640625 494.570312 270.644531 491.941406 279.328125 Z M 500.566406 251.859375 C 503.679688 253.199219 508.96875 253.066406 512.601562 252.261719 C 512.472656 251.519531 512.859375 250.265625 512.398438 249.855469 C 509.398438 251.589844 502.734375 251.480469 499.964844 249.65625 C 500.0625 250.492188 500.351562 251.140625 500.566406 251.859375 Z M 423.347656 243.039062 C 423.832031 244.402344 424.289062 246.363281 425.554688 246.449219 C 425.414062 243.777344 426.160156 243.109375 428.363281 242.636719 C 427.804688 241.191406 426.863281 240.125 426.558594 238.425781 C 425.679688 238.285156 425.425781 238.769531 424.550781 238.628906 C 423.550781 238.425781 423.578125 237.195312 422.546875 237.023438 C 421.808594 239.0625 422.660156 241.097656 423.347656 243.039062 Z M 441.597656 225.996094 C 437.179688 228.460938 431.890625 230.058594 427.359375 232.414062 C 426.914062 238.121094 429.964844 241.933594 432.375 245.445312 C 437.285156 243.203125 442.265625 241.03125 447.414062 239.027344 C 444.804688 235.355469 443.085938 230.792969 441.597656 225.996094 Z M 508.789062 214.367188 C 504.804688 215.597656 500.523438 216.53125 497.757812 218.980469 C 498.144531 221.203125 498.695312 223.253906 499.164062 225.394531 C 501.488281 225.316406 502.234375 223.65625 504.375 223.390625 C 503.804688 228.78125 505.164062 239.601562 504.375 245.042969 C 504.117188 246.835938 500.890625 246.492188 500.765625 248.25 C 503.207031 249.757812 508.191406 249.699219 511.597656 249.054688 C 511.3125 246.863281 509.085938 246.617188 507.785156 245.445312 C 507.796875 237.738281 507.769531 229.03125 507.785156 221.988281 C 508.964844 221.492188 510.335938 221.195312 511.394531 220.585938 C 510.410156 219.429688 509.277344 216.6875 508.789062 214.367188 Z M 442.804688 220.382812 C 442.996094 230.285156 447.28125 236.929688 452.230469 242.636719 C 460.773438 239.082031 469.300781 235.511719 478.101562 232.210938 C 473.46875 226.21875 470.558594 218.5 468.675781 209.757812 C 460.117188 213.363281 451.292969 216.707031 442.804688 220.382812 Z M 469.878906 206.75 C 471.308594 217.097656 474.882812 226.816406 481.109375 233.015625 C 486.617188 230.632812 492.199219 228.324219 497.957031 226.195312 C 497.734375 223.371094 495.6875 220.273438 496.554688 217.976562 C 497.121094 216.472656 500.546875 215.003906 502.371094 214.367188 C 504.71875 213.550781 507.417969 212.835938 509.589844 213.164062 C 510.882812 215.28125 511.167969 218.410156 512.800781 220.183594 C 517.101562 218.199219 521.625 216.441406 526.238281 214.769531 C 521.195312 207.246094 517.878906 197.996094 515.40625 187.902344 C 500.527344 194.480469 484.746094 200.15625 469.878906 206.75 Z M 516.410156 184.695312 C 518.933594 197.410156 522.542969 209.039062 530.25 216.574219 C 548.71875 209.105469 566.804688 201.253906 585.808594 194.320312 C 586.796875 178.855469 581.070312 168.472656 572.972656 161.4375 C 554.601562 169.675781 535.28125 176.960938 516.410156 184.695312 Z M 572.769531 159.632812 C 575.324219 159.53125 577.878906 163.472656 579.589844 165.449219 C 585.25 171.988281 588.621094 181.792969 588.011719 193.917969 C 584.3125 197.273438 579.023438 198.65625 573.972656 200.734375 C 562.015625 205.660156 549.882812 210.726562 537.269531 215.773438 C 535.292969 216.5625 531.351562 218.679688 529.847656 218.578125 C 528.050781 218.460938 528.007812 216.789062 526.640625 215.972656 C 521.339844 218.628906 515.527344 220.769531 509.792969 222.988281 C 509.792969 230.007812 509.792969 237.023438 509.792969 244.042969 C 511.277344 245.714844 513.503906 246.535156 514.203125 248.652344 C 514.5625 249.734375 514.203125 250.996094 514.40625 252.460938 C 514.976562 256.617188 517.089844 261.117188 518.417969 265.492188 C 526.253906 291.34375 534.207031 317.0625 542.082031 343.082031 C 543.410156 347.472656 545.472656 351.6875 545.695312 356.316406 C 545.03125 357.929688 542.355469 358.589844 540.078125 357.921875 C 537.1875 354.964844 536.640625 350.503906 535.464844 346.691406 C 526.945312 319.066406 518.21875 290.515625 509.792969 262.6875 C 509.425781 294.542969 509.589844 328.847656 509.589844 361.730469 C 509.589844 365.367188 510.414062 369.742188 507.785156 370.75 C 506.589844 371.210938 503.445312 370.597656 502.773438 369.75 C 501.390625 368.007812 502.171875 360.917969 502.171875 357.117188 C 502.171875 326.460938 502.171875 294.503906 502.171875 264.691406 C 493.542969 291.839844 485.359375 319.808594 476.898438 347.292969 C 475.757812 351 474.914062 355.0625 472.488281 358.121094 C 470.359375 358.683594 467.523438 358.285156 466.871094 356.71875 C 466.648438 352.015625 468.960938 347.675781 470.28125 343.285156 C 478.703125 315.25 487.582031 286.644531 496.152344 258.277344 C 496.800781 256.128906 498.109375 253.902344 498.359375 252.0625 C 498.589844 250.375 497.953125 248.695312 498.558594 247.25 C 499.246094 245.617188 500.835938 245.148438 502.371094 244.042969 C 502.371094 238.09375 502.371094 232.144531 502.371094 226.195312 C 497.5625 227.871094 491.785156 230.507812 486.527344 232.613281 C 483.71875 233.734375 480.910156 235.671875 478.503906 233.414062 C 472.722656 235.964844 464.976562 239.042969 458.046875 241.835938 C 456.15625 242.597656 452.804688 244.652344 451.226562 244.441406 C 449.449219 244.207031 448.886719 241.652344 447.816406 240.832031 C 445.726562 241.691406 443.101562 242.8125 440.195312 244.042969 C 437.75 245.078125 434.261719 247.15625 432.375 247.046875 C 430.335938 246.933594 430.160156 244.703125 428.5625 244.441406 C 427.316406 245.882812 428.34375 248.242188 425.957031 248.652344 C 421.523438 249.410156 417.882812 235.621094 422.144531 234.820312 C 423.996094 234.46875 423.957031 235.691406 425.355469 236.421875 C 424.644531 235.296875 425.007812 233.066406 425.152344 231.609375 C 429.957031 228.929688 435.164062 226.648438 440.996094 224.996094 C 440.808594 222.90625 440.867188 221.496094 440.796875 219.582031 C 449.757812 215.773438 458.800781 212.050781 468.074219 208.554688 C 468.171875 207.515625 467.859375 206.066406 468.273438 205.347656 C 483.789062 199.203125 499.027344 192.785156 514.605469 186.699219 C 513.628906 182.316406 518.367188 182.070312 522.226562 180.484375 C 536.683594 174.550781 550.269531 168.960938 564.949219 163.042969 C 567.910156 161.847656 571.015625 161.035156 572.769531 159.632812" fill-rule="evenodd"/></g></svg>